<svg width="77" height="112" viewBox="0 0 77 112" fill="none" xmlns="http://www.w3.org/2000/svg">
<g opacity="0.4">
<path d="M27.0789 0.767645C16.6075 2.99826 3.12626 14.0749 0.846052 29.6614C-1.43583 45.2497 10.3501 82.1288 16.8142 90.1133C23.2783 98.0978 35.4441 113.685 59.3968 110.643C59.3968 110.643 76.8854 109.884 75.7448 79.4678C74.6035 49.052 69.2808 36.5062 65.0994 26.2407C60.918 15.9752 50.2709 -4.17518 27.0789 0.767645Z" fill="#0F0935"/>
<path d="M48.1807 111.521C49.0262 111.711 49.8767 111.87 50.7332 112C50.9819 111.971 51.2299 111.94 51.4787 111.912C51.4787 111.912 51.4173 111.905 51.3862 111.9C51.4308 111.904 51.477 111.904 51.5232 111.908C54.4598 111.585 57.4158 111.4 60.37 111.197C63.0797 110.402 65.7138 109.325 68.2713 108.035C72.7544 103.155 75.2767 96.5252 76.1087 89.9519C76.6391 85.7638 76.5878 81.5371 76.2726 77.3331C76.2718 77.2322 76.2701 77.128 76.2684 77.028C76.0272 62.6466 73.5655 47.8568 68.7437 34.2849C64.6531 22.7721 58.8286 10.4003 47.6596 4.23628C39.8314 -0.0854287 30.1231 -0.928416 21.6049 1.80816C21.4561 1.85523 21.3074 1.90397 21.1603 1.95524C19.0154 2.67888 16.9504 3.62862 15.0139 4.81368C14.4844 5.13811 13.9709 5.4827 13.4649 5.8357C11.3486 7.27291 9.45754 9.00429 7.81442 10.9693C7.73625 11.0601 7.65811 11.15 7.58162 11.2408C7.58162 11.2408 7.56735 11.2576 7.56146 11.2668C2.58754 17.2132 -0.144014 24.9413 0.0484541 32.7182C-0.212933 38.6721 0.607356 44.7025 1.9269 50.5169C2.44547 52.8081 3.02204 55.0975 3.64483 57.3794C6.44277 70.9278 10.7284 84.0375 19.9366 94.904C27.189 103.463 37.2999 109.767 48.1807 111.521ZM45.413 4.88513C49.7599 6.98379 53.3193 10.0549 56.2896 13.6756C53.3899 10.5709 50.0331 7.85368 46.1358 5.66004C43.8909 4.39681 41.4888 3.38572 39.0018 2.64779C41.214 3.15712 43.3689 3.9001 45.413 4.88513ZM19.7643 91.8657C19.2146 91.1614 18.6893 90.4394 18.1707 89.7149C17.2101 88.3315 16.2965 86.9119 15.435 85.4629C10.5191 77.1834 7.17481 68.0652 4.50967 58.8443C4.36511 58.3434 4.22308 57.8383 4.0802 57.334C2.95313 52.8291 2.03951 48.2897 1.28813 43.799C1.28309 43.762 1.21669 43.762 1.22257 43.8015C1.59322 46.1086 1.97313 48.4199 2.37991 50.7287C1.31672 46.1011 0.551875 41.3911 0.403952 36.6727C0.493883 37.2492 0.594759 37.8241 0.718309 38.3973C0.771258 38.6385 1.19485 38.6494 1.15619 38.3805C-0.270091 28.5302 2.98592 18.1755 9.8467 10.9878C4.87279 18.4613 4.22979 28.1335 4.94083 36.8399C6.49739 55.8817 13.5818 74.3771 25.1072 89.5981C25.3316 89.8939 25.8737 89.625 25.6341 89.2896C15.5754 75.1386 8.81459 58.7561 6.45455 41.5272C5.16526 32.1165 4.70974 21.6938 9.30797 13.0512C10.1459 11.4778 11.157 10.0087 12.3126 8.67819C12.4421 8.56892 12.569 8.45881 12.6993 8.35292C18.4657 3.68409 25.9653 1.52407 33.3371 1.87371C35.9703 2.19813 38.5631 2.82429 41.0257 3.73284C49.0329 6.68626 55.1919 12.1157 59.9044 18.7756C62.551 23.0688 64.6245 27.7737 66.3517 32.3837C70.8499 44.3924 73.7856 56.7936 74.6631 69.6007C75.533 82.2767 76.7819 101.494 64.1765 108.823C61.7316 109.263 59.2993 109.619 56.7417 109.539C52.8612 109.42 49.0035 108.615 45.4248 107.105C39.1162 104.44 33.6001 99.6316 29.9256 93.8652C29.9113 93.8425 29.8642 93.8584 29.8785 93.8845C33.4262 100.447 38.8178 105.482 45.7862 108.279C48.2319 109.262 50.9879 110.004 53.827 110.402C40.5265 110.159 28.0295 102.478 19.7643 91.8657Z" fill="#F4F3F2"/>
<path d="M51.4186 107.022C43.5711 104.833 36.3532 99.7409 32.7433 92.2598C32.7265 92.2253 32.6627 92.2396 32.6803 92.2775C36.3137 100.012 42.724 105.911 51.3203 107.493C51.6582 107.555 51.7431 107.113 51.4186 107.022Z" fill="#F4F3F2"/>
<path d="M72.8031 64.4452C71.6399 53.5627 69.3723 41.9482 64.516 32.0534C64.3547 31.7239 63.7688 31.834 63.9025 32.2299C67.4745 42.8828 70.9263 53.2249 72.1946 64.4687C73.4427 75.5226 73.1376 86.811 71.4029 97.7968C71.3987 97.8212 71.439 97.8288 71.4424 97.8061C73.5242 86.7732 73.9974 75.6226 72.8031 64.4452Z" fill="#F4F3F2"/>
<path d="M46.3264 7.20989C46.065 7.06365 45.7406 7.43767 46.0137 7.62761C53.1132 12.5662 58.6956 18.8715 62.0071 26.9585C62.0163 26.9803 62.0516 26.9711 62.0441 26.9484C59.4008 18.7689 53.9201 11.4593 46.3264 7.20989Z" fill="#F4F3F2"/>
<path d="M44.6484 6.08113C31.2596 -3.49437 11.3917 6.5333 9.80572 22.3897C9.80404 22.4124 9.84018 22.4216 9.84522 22.3972C11.485 15.1381 15.8529 8.79081 22.6086 5.43901C29.8451 1.85019 37.3488 3.06131 44.3357 6.49884C44.5979 6.62828 44.924 6.27781 44.6484 6.08113Z" fill="#F4F3F2"/>
<path d="M32.1195 91.6714C18.8821 71.5647 11.0254 49.3536 9.22674 25.2967C9.22422 25.274 9.18555 25.274 9.18555 25.2975C9.7722 48.8308 17.6533 72.9305 31.5278 92.0168C31.7741 92.3564 32.375 92.0571 32.1195 91.6714Z" fill="#F4F3F2"/>
<path d="M7.59929 15.1037C6.56131 15.587 5.3737 15.9912 4.43741 16.6535C4.32983 16.7291 4.42311 16.893 4.54498 16.8493C5.62751 16.4585 6.642 15.7281 7.63628 15.1541C7.67494 15.1331 7.63375 15.0877 7.59929 15.1037Z" fill="#F4F3F2"/>
<path d="M5.57026 20.7734C4.40285 21.629 3.00174 22.2485 1.93434 23.236C1.75784 23.3991 2.03267 23.6227 2.20581 23.5226C3.45391 22.8049 4.45155 21.6711 5.6072 20.8247C5.64166 20.7995 5.60136 20.7507 5.57026 20.7734Z" fill="#F4F3F2"/>
<path d="M4.92224 27.2393C4.28936 27.6099 3.71026 28.0411 3.11941 28.4731C2.59411 28.8572 1.9789 29.2303 1.55362 29.7245C1.3267 29.9884 1.69062 30.328 1.96714 30.1591C2.5269 29.8195 2.995 29.2892 3.46146 28.8345C3.98003 28.3285 4.49529 27.8352 4.95671 27.2762C4.97604 27.2527 4.94661 27.225 4.92224 27.2393Z" fill="#F4F3F2"/>
<path d="M4.60419 34.4345C3.95366 34.8791 3.30228 35.3237 2.65008 35.7683C2.06595 36.1667 1.3793 36.5273 0.90275 37.0534C0.680865 37.2997 1.02962 37.588 1.28092 37.4518C1.90455 37.1173 2.41892 36.5475 2.94673 36.0785C3.52834 35.5624 4.11163 35.0447 4.69324 34.5278C4.74871 34.4782 4.65966 34.3967 4.60419 34.4345Z" fill="#F4F3F2"/>
<path d="M5.60281 41.3978C4.84554 41.6424 4.19333 42.2644 3.56549 42.7392C2.92505 43.2234 2.12914 43.6781 1.6299 44.3135C1.40466 44.5992 1.75932 44.9051 2.05096 44.7581C2.77965 44.3899 3.38309 43.7243 3.99748 43.1923C4.57404 42.6922 5.33638 42.1837 5.70115 41.5012C5.73309 41.4416 5.66164 41.3794 5.60281 41.3978Z" fill="#F4F3F2"/>
<path d="M6.67029 51.3835C6.05758 51.6592 5.50961 51.9996 4.94481 52.361C4.43381 52.6879 3.88663 52.9872 3.42941 53.3897C3.17811 53.6116 3.5681 53.9218 3.80763 53.7881C4.33713 53.4948 4.7994 53.0779 5.27595 52.709C5.792 52.3106 6.28454 51.924 6.73251 51.4482C6.77033 51.4079 6.71063 51.3659 6.67029 51.3835Z" fill="#F4F3F2"/>
<path d="M9.08084 58.3317C7.54446 59.4436 5.83323 60.7262 4.59269 62.1634C4.40022 62.3878 4.72044 62.7131 4.95409 62.5441C6.48795 61.4255 7.91929 59.8462 9.15143 58.4056C9.18841 58.3619 9.12707 58.2981 9.08084 58.3317Z" fill="#F4F3F2"/>
<path d="M13.8265 68.1734C13.1197 68.4617 12.4339 68.7811 11.7472 69.1122C11.0706 69.4392 10.3033 69.7376 9.71998 70.2158C9.48549 70.4082 9.8099 70.731 10.0402 70.6511C10.7126 70.4217 11.3354 69.967 11.9355 69.5905C12.602 69.1744 13.2567 68.7542 13.8921 68.2928C13.956 68.2465 13.9005 68.1432 13.8265 68.1734Z" fill="#F4F3F2"/>
<path d="M16.5071 77.0516C14.5673 77.0348 12.4913 77.7214 10.6069 78.1358C10.5464 78.1484 10.5725 78.2358 10.6288 78.2291C12.5518 78.0383 14.7572 78.0551 16.5978 77.4298C16.8348 77.3491 16.7323 77.0541 16.5071 77.0516Z" fill="#F4F3F2"/>
<path d="M21.1205 85.4193C19.2143 85.5655 17.2014 86.0127 15.3869 86.5918C15.291 86.6229 15.3305 86.7498 15.423 86.7456C17.3292 86.6657 19.39 86.4077 21.2323 85.8908C21.5265 85.8084 21.4038 85.3974 21.1205 85.4193Z" fill="#F4F3F2"/>
<path d="M28.4853 92.6952C27.4818 92.7608 26.4917 93.0306 25.5193 93.2735C24.5964 93.5038 23.5728 93.6719 22.7432 94.1459C22.7239 94.156 22.7314 94.1879 22.7314 94.1879C23.7139 94.2787 24.715 94.0383 25.663 93.8795C26.6497 93.713 27.6717 93.5786 28.6147 93.2373C28.9383 93.1205 28.8223 92.6717 28.4853 92.6952Z" fill="#F4F3F2"/>
<path d="M65.296 61.3448C63.3831 55.7102 60.2624 50.4186 55.186 47.1114C49.3439 43.3074 44.2136 44.2008 37.7924 45.5473C32.0015 46.7634 28.1118 44.7328 26.3636 39.1092C25.0911 35.017 25.55 30.0741 27.5151 26.2794C32.5798 16.4946 46.4955 16.3232 49.5716 27.6553C49.7372 28.2663 50.839 28.1705 50.8121 27.5057C50.3499 16.066 36.1232 13.3697 28.427 19.775C20.64 26.2567 19.1213 42.1988 28.5808 48.0838C34.5011 51.7659 40.0583 47.4459 46.224 47.7543C56.0021 48.2452 60.7777 58.5905 62.7326 66.8045C63.8387 71.4498 64.5572 76.6868 62.6098 81.227C60.3254 86.5506 55.007 89.1619 49.5195 86.7346C41.2955 83.0962 39.4414 73.4241 37.4402 65.6127C36.9511 63.6989 33.8926 64.4596 34.2036 66.4145C35.9291 77.2717 41.6947 93.1264 55.7407 91.0832C69.8522 89.0291 68.673 71.2977 65.296 61.3448Z" fill="#F4F3F2"/>
<path d="M54.3981 93.4181C53.5509 87.0271 50.7109 80.679 48.7148 74.5587L42.1104 54.3167C39.9092 47.5661 37.703 40.8188 35.4135 34.0975C33.3804 28.1293 31.7583 21.0954 27.9249 15.9979C27.7812 15.8054 27.4164 15.8508 27.4089 16.1231C27.2357 22.4124 30.1059 29.0177 31.9533 34.9556C34.062 41.7307 36.2531 48.478 38.4501 55.2245C40.6463 61.9726 42.8433 68.7225 45.0394 75.4706C47.0356 81.6027 48.4896 88.4299 51.5581 94.1106C52.1641 95.2335 54.5872 94.8502 54.3981 93.4181Z" fill="#F4F3F2"/>
<path d="M64.1742 92.3237C59.9013 78.8442 55.1635 65.5025 50.6048 52.118C46.2688 39.3907 42.3396 26.0423 36.1537 14.0648C36.0537 13.8714 35.7537 14.0042 35.7873 14.2034C38.0725 27.6998 43.1237 40.9414 47.3975 53.9049C51.7226 67.0246 55.8872 80.2133 60.4913 93.2381C61.22 95.2948 64.8752 94.535 64.1742 92.3237Z" fill="#F4F3F2"/>
</g>
</svg>
