<svg width="76" height="91" viewBox="0 0 76 91" fill="none" xmlns="http://www.w3.org/2000/svg">
<g opacity="0.4">
<path d="M35.0507 84.9994C42.8739 85.6056 54.526 80.8513 59.138 70.7966C63.7514 60.7411 62.5325 33.4873 59.5062 26.798C56.4798 20.1088 50.8919 7.14132 33.3937 4.36452C33.3937 4.36452 20.8991 1.3515 15.8463 22.0993C10.7942 42.8473 12.1361 52.3834 13.1114 60.1512C14.0866 67.9191 17.7234 83.6584 35.0507 84.9994Z" fill="#FF4B00"/>
<path d="M41.4808 6.03388C40.9204 5.7353 40.3505 5.45667 39.7708 5.19614C39.5895 5.16583 39.4084 5.13683 39.2274 5.10539C39.2274 5.10539 39.2695 5.12228 39.2904 5.13195C39.2598 5.12013 39.2272 5.11084 39.1952 5.09925C37.0596 4.72497 34.9368 4.2538 32.8117 3.79545C30.7455 3.78498 28.6781 3.98083 26.6238 4.33554C22.5186 6.72358 19.4608 10.6873 17.6073 14.9538C16.4262 17.6721 15.6484 20.5337 15.0612 23.4332C15.0424 23.5014 15.0235 23.5721 15.0054 23.6399C12.4059 33.3898 11.2956 43.863 12.0862 53.9904C12.7571 62.5813 14.4869 72.1012 21.1859 78.5109C25.8808 83.0043 32.5733 85.5301 39.1148 85.4012C39.2289 85.3994 39.3434 85.3966 39.4571 85.3916C41.1109 85.3359 42.7519 85.1115 44.3474 84.7024C44.7838 84.5903 45.2127 84.4614 45.638 84.3253C47.4091 83.7824 49.0778 82.9957 50.6164 82.0013C50.6891 81.9559 50.7616 81.911 50.8331 81.8651C50.8331 81.8651 50.8464 81.8567 50.8523 81.8516C55.5095 78.843 58.9267 74.1805 60.2886 68.8955C61.6198 64.9319 62.2021 60.6985 62.3902 56.5102C62.4654 54.8602 62.4992 53.1995 62.499 51.5347C63.1328 41.8311 62.6317 32.1237 58.2229 22.9371C54.7505 15.7017 48.8256 9.4106 41.4808 6.03388ZM22.8972 78.5261C20.2321 76.234 18.3103 73.4448 16.9105 70.4035C18.3599 73.0825 20.2067 75.5922 22.536 77.8576C23.8778 79.1623 25.3791 80.3286 26.993 81.3277C25.5292 80.5382 24.1507 79.6026 22.8972 78.5261ZM57.7594 25.0214C58.0119 25.6073 58.2437 26.2003 58.4703 26.7935C58.8822 27.9204 59.2538 29.0622 59.583 30.2133C61.4594 36.7895 62.0646 43.6147 62.1705 50.3721C62.1761 50.7391 62.179 51.1085 62.1828 51.4775C62.111 54.7437 61.8818 57.99 61.5474 61.1708C61.5438 61.1967 61.5907 61.2101 61.5942 61.1823C61.7768 59.5512 61.9537 57.9155 62.1112 56.276C61.9706 59.6121 61.6035 62.9435 60.7992 66.1563C60.8467 65.7492 60.8862 65.3411 60.9094 64.9295C60.9185 64.7561 60.6215 64.6634 60.597 64.8526C59.7069 71.7849 55.4136 78.1136 49.185 81.5792C54.1364 77.5404 56.4532 71.1454 57.628 65.1289C60.1964 51.9699 58.7565 38.0652 53.5502 25.474C53.4487 25.2292 53.0141 25.3013 53.1187 25.5758C57.4955 37.1496 59.1139 49.5638 57.462 61.6618C56.5598 68.27 54.8741 75.3927 49.9628 80.2959C49.0681 81.1883 48.0713 81.9755 46.9991 82.6401C46.8866 82.6877 46.7758 82.7364 46.6634 82.7816C41.6926 84.7686 35.9814 84.7138 30.8437 82.9919C29.0469 82.2422 27.3367 81.2971 25.773 80.1878C20.6881 76.5813 17.3851 71.6771 15.3404 66.2345C14.2985 62.8049 13.7406 59.213 13.409 55.755C12.5458 46.7474 12.8613 37.7901 14.7084 28.9738C16.5356 20.2474 19.355 7.032 29.6669 4.6292C31.478 4.82499 33.2639 5.07551 35.0544 5.64495C37.7713 6.50773 40.3402 7.828 42.5762 9.56828C46.5173 12.6379 49.4859 16.9935 50.9698 21.6242C50.9756 21.6424 51.0118 21.6411 51.0068 21.6206C49.7658 16.4786 46.9287 11.995 42.5472 8.70337C41.0095 7.54754 39.2066 6.49134 37.2786 5.65026C46.623 8.49537 53.9675 16.1962 57.7594 25.0214Z" fill="#F4F3F2"/>
<path d="M38.3283 8.41584C43.4477 11.4742 47.5633 16.3645 48.6713 22.1388C48.6765 22.1654 48.7244 22.1687 48.7192 22.1396C47.6435 16.1894 44.2534 10.9181 38.4885 8.11758C38.2617 8.00808 38.1167 8.2892 38.3283 8.41584Z" fill="#F4F3F2"/>
<path d="M15.0283 32.8266C13.7536 40.4022 13.1178 48.6942 14.6409 56.348C14.6914 56.6028 15.1263 56.6467 15.1082 56.3527C14.6378 48.4463 14.1924 40.7739 15.4624 32.9334C16.7101 25.2251 19.0997 17.6717 22.4404 10.6106C22.4481 10.595 22.421 10.5818 22.4143 10.5964C18.8194 17.6193 16.3377 25.0458 15.0283 32.8266Z" fill="#F4F3F2"/>
<path d="M22.6992 76.7736C22.8556 76.925 23.1567 76.7381 23.0004 76.5549C18.9388 71.7922 16.2115 66.4135 15.4309 60.2906C15.4286 60.274 15.4019 60.2731 15.4029 60.2899C15.6939 66.3405 18.1559 72.3763 22.6992 76.7736Z" fill="#F4F3F2"/>
<path d="M23.6669 77.8735C31.2762 87.032 47.2358 84.2727 51.4095 73.8961C51.415 73.8811 51.3913 73.8676 51.3831 73.883C48.8272 78.4493 44.5206 81.8505 39.105 82.7497C33.3043 83.7118 28.2393 81.3821 23.9681 77.6547C23.8079 77.5146 23.5101 77.6852 23.6669 77.8735Z" fill="#F4F3F2"/>
<path d="M48.9974 22.6615C54.4716 38.8935 55.7412 55.4605 52.3778 72.0514C52.3752 72.0672 52.4026 72.075 52.4071 72.0591C56.5253 56.0658 55.6022 38.2199 49.4817 22.5477C49.3733 22.269 48.8913 22.3497 48.9974 22.6615Z" fill="#F4F3F2"/>
<path d="M51.5652 79.2556C52.3911 79.1389 53.3075 79.1056 54.0962 78.8476C54.1867 78.8182 54.1524 78.6888 54.0579 78.6938C53.2183 78.7392 52.3614 79.0274 51.5488 79.2142C51.5174 79.2205 51.5378 79.2594 51.5652 79.2556Z" fill="#F4F3F2"/>
<path d="M54.0903 75.8403C55.0794 75.4984 56.188 75.363 57.1319 74.912C57.2879 74.8376 57.1369 74.6314 56.9954 74.6639C55.9759 74.8965 55.0531 75.4603 54.0741 75.7982C54.045 75.8083 54.064 75.8493 54.0903 75.8403Z" fill="#F4F3F2"/>
<path d="M55.7921 71.6091C56.3103 71.4867 56.8022 71.3126 57.3026 71.1403C57.7475 70.987 58.2538 70.8593 58.6492 70.6117C58.8603 70.4794 58.6687 70.177 58.4409 70.2352C57.9803 70.3514 57.5476 70.6148 57.1307 70.8275C56.6671 71.0643 56.2083 71.2932 55.7748 71.5772C55.7567 71.5892 55.7721 71.6139 55.7921 71.6091Z" fill="#F4F3F2"/>
<path d="M57.4032 66.8192C57.9482 66.6504 58.4937 66.4818 59.0399 66.3134C59.5291 66.1624 60.0833 66.0576 60.5211 65.7987C60.7252 65.6774 60.5345 65.4126 60.3308 65.4538C59.8261 65.5537 59.3532 65.8344 58.8902 66.0444C58.3801 66.2752 57.8685 66.5069 57.3583 66.7383C57.3096 66.7606 57.3568 66.8336 57.4032 66.8192Z" fill="#F4F3F2"/>
<path d="M58.039 61.9208C58.6208 61.9085 59.2011 61.6204 59.7359 61.4266C60.2813 61.2292 60.9309 61.0829 61.4057 60.7549C61.6198 60.6075 61.4283 60.3297 61.1941 60.3701C60.6087 60.4715 60.0544 60.7989 59.5181 61.0339C59.0147 61.2551 58.3785 61.4444 57.9895 61.8312C57.9554 61.865 57.9939 61.9214 58.039 61.9208Z" fill="#F4F3F2"/>
<path d="M59.2082 54.9696C59.6939 54.9072 60.1464 54.788 60.6148 54.6581C61.0385 54.5405 61.4825 54.449 61.8829 54.2696C62.1031 54.1706 61.8874 53.8828 61.6926 53.9246C61.2622 54.0157 60.8555 54.2038 60.448 54.3566C60.0069 54.5213 59.5846 54.6828 59.1767 54.9134C59.1422 54.933 59.1763 54.9734 59.2082 54.9696Z" fill="#F4F3F2"/>
<path d="M58.8443 49.7962C60.1432 49.3559 61.5985 48.8357 62.7512 48.1162C62.9303 48.0037 62.7669 47.7197 62.5694 47.7865C61.2709 48.232 59.9561 49.0087 58.8087 49.7321C58.7741 49.7542 58.8051 49.8096 58.8443 49.7962Z" fill="#F4F3F2"/>
<path d="M57.3902 42.2007C57.9448 42.1487 58.4905 42.0715 59.0391 41.9866C59.5798 41.9024 60.1791 41.8558 60.683 41.6508C60.8857 41.5682 60.7188 41.2851 60.5408 41.2926C60.0219 41.3118 59.4945 41.493 58.9983 41.626C58.4476 41.7723 57.9044 41.9238 57.3669 42.107C57.3128 42.1253 57.3321 42.2062 57.3902 42.2007Z" fill="#F4F3F2"/>
<path d="M57.2055 35.6713C58.5719 36.0737 60.17 36.029 61.5802 36.1294C61.6254 36.1331 61.6238 36.0688 61.5828 36.062C60.1883 35.8031 58.6343 35.3471 57.2143 35.3979C57.0314 35.4046 57.0469 35.6242 57.2055 35.6713Z" fill="#F4F3F2"/>
<path d="M55.5615 29.0969C56.9356 29.3825 58.4429 29.4866 59.8357 29.4618C59.9093 29.4601 59.9059 29.3666 59.8398 29.3508C58.4785 29.0204 56.9737 28.779 55.5734 28.7563C55.3498 28.7525 55.3573 29.0545 55.5615 29.0969Z" fill="#F4F3F2"/>
<path d="M51.762 22.7039C52.4832 22.862 53.2342 22.8796 53.9676 22.9118C54.6636 22.9425 55.4187 23.0355 56.0958 22.8829C56.1113 22.88 56.1122 22.8569 56.1122 22.8569C55.4359 22.5977 54.6828 22.558 53.9828 22.474C53.2541 22.3874 52.5066 22.2721 51.775 22.3122C51.5241 22.3257 51.5195 22.6519 51.762 22.7039Z" fill="#F4F3F2"/>
<path d="M19.7312 36.4315C19.9966 40.618 21.1809 44.8167 24.1283 48.0711C27.5206 51.8149 31.3151 52.2464 36.1083 52.6326C40.4313 52.9796 42.7866 55.1335 42.9379 59.2795C43.0482 62.2966 41.7722 65.5384 39.6539 67.7021C34.1933 73.2817 24.3347 70.5921 24.3453 62.3276C24.3461 61.882 23.5496 61.7245 23.4405 62.1784C21.5637 69.9886 31.0895 74.6754 37.7573 71.906C44.5038 69.1034 48.6466 58.6553 43.1009 52.7785C39.6299 49.1011 34.874 50.8951 30.58 49.444C23.7705 47.1417 22.391 39.2003 22.5927 33.2652C22.7064 29.9086 23.2077 26.231 25.4571 23.5608C28.0954 20.4302 32.3536 19.7408 35.7606 22.4844C40.8667 26.5967 40.313 33.4951 40.2215 39.1679C40.1983 40.5575 42.5043 40.6609 42.6613 39.2795C43.534 31.6076 42.5166 19.7501 32.2056 18.2968C21.8461 16.8377 19.2636 29.0367 19.7312 36.4315Z" fill="#F4F3F2"/>
<path d="M33.6037 16.9924C32.971 21.4744 33.7536 26.3292 33.9842 30.8603L34.7489 45.8465C35.0029 50.8441 35.2612 55.8404 35.5832 60.836C35.8693 65.2718 35.6599 70.3438 37.3848 74.5552C37.4492 74.714 37.7155 74.7569 37.7733 74.5747C39.1068 70.367 38.3524 65.3327 38.1917 60.9546C38.0076 55.9592 37.76 50.9659 37.5081 45.972C37.2572 40.9771 37.0059 35.9809 36.7549 30.986C36.5266 26.4471 36.8148 21.5485 35.7423 17.0978C35.5307 16.2182 33.746 15.9882 33.6037 16.9924Z" fill="#F4F3F2"/>
<path d="M26.4902 15.7597C26.9111 25.714 27.6867 35.6691 28.3277 45.617C28.938 55.0767 29.1414 64.8733 31.2023 74.2002C31.2357 74.3507 31.4731 74.3216 31.4877 74.1805C32.4735 64.6155 31.4573 54.6647 30.9364 45.0582C30.4094 35.336 30.009 25.5997 29.2667 15.8853C29.1483 14.351 26.4211 14.1267 26.4902 15.7597Z" fill="#F4F3F2"/>
</g>
</svg>
