<svg width="179" height="170" viewBox="0 0 179 170" fill="none" xmlns="http://www.w3.org/2000/svg">
<g opacity="0.4">
<path d="M124.053 35.6979C110.743 28.9082 63.8449 25.3754 41.2843 43.6383C18.7226 61.9016 17.082 79.4968 17.8529 89.5151C18.6236 99.5328 27.6092 128.487 68.8224 138.234C110.035 147.98 131.938 136.403 143.985 123.486C156.031 110.569 171.34 59.8228 124.053 35.6979Z" fill="#6130DF"/>
<path d="M152.236 113.546C156.034 107.245 159.185 99.7702 159.54 92.3415C159.547 92.1953 159.519 92.0643 159.472 91.9471C159.808 90.1538 160.034 88.3377 160.139 86.5066C161.549 61.6753 142.096 41.3781 119.985 33.4623C107.958 29.1563 94.9221 27.6202 82.192 28.3027C70.4265 28.9329 58.5824 31.6402 48.2124 37.3579C38.5089 42.7081 30.5908 50.6115 25.8099 60.6519C21.4059 69.8998 19.7239 80.7319 22.3274 90.7365C22.9615 93.1723 23.8487 95.5202 24.9562 97.7792C25.2481 98.3747 26.2393 98.1024 25.9358 97.4398C17.102 78.1488 27.0847 55.3877 43.5651 43.7717C62.4656 30.4509 88.3784 28.7282 110.342 33.8896C132.462 39.0881 153.601 54.9314 156.647 78.8024C159.659 102.4 141.323 122.773 119.834 129.354C92.7724 137.642 64.5993 127.572 41.0524 114.116C40.2492 113.657 39.5523 114.924 40.3253 115.41C52.0039 122.76 64.0465 128.771 77.4469 132.315C89.436 135.486 102.021 136.351 114.233 133.948C125.817 131.668 136.691 126.476 145.147 118.153C146.711 116.613 148.186 114.97 149.554 113.24C146.601 117.628 143.052 121.619 139.074 125.099C129.196 133.738 116.956 138.969 103.938 140.426C90.9402 141.879 77.5901 139.892 65.2843 135.588C51.9321 130.918 38.7036 123.672 29.3758 112.845C20.0634 102.036 15.3543 86.1371 21.1652 72.5348C21.2045 72.4423 21.0462 72.3381 20.9924 72.4309C14.6606 83.4567 16.1338 97.11 22.4368 107.818C30.3035 121.181 44.1994 130.052 58.1849 135.984C83.595 146.763 114.33 147.479 137.107 130.175C143.1 125.622 148.345 120.003 152.236 113.546Z" fill="#F4F3F2"/>
<path d="M52.6413 36.2543C48.9866 36.9984 45.3676 39.005 42.1337 40.8178C38.7343 42.7224 35.6063 45.0001 32.8078 47.7148C30.0946 50.3465 27.7348 53.4294 25.8816 56.7198C23.8145 60.3883 22.8209 64.0473 21.7828 68.0795C21.6694 68.519 22.3245 68.874 22.521 68.4073C23.9811 64.9476 26.3137 61.5602 28.4734 58.4968C30.5667 55.5281 32.8437 52.7603 35.3444 50.1289C37.8964 47.4443 40.6496 44.9243 43.6576 42.7563C46.7169 40.5512 50.0865 39.2273 53.3818 37.4715C54.1542 37.0596 53.2596 36.1282 52.6413 36.2543Z" fill="#F4F3F2"/>
<path d="M18.5312 80.0275C19.2053 75.7376 20.3233 71.5596 22.049 67.569C23.7286 63.6865 25.9241 60.0754 28.6134 56.8089C31.489 53.316 35.0574 50.8838 38.2963 47.8219C39.0877 47.0737 38.2774 45.4609 37.1767 45.982C33.2654 47.835 29.8893 51.5844 27.2231 54.9105C24.4227 58.4049 22.0819 62.3322 20.2926 66.4354C18.5089 70.5249 17.1964 74.9297 16.6906 79.3712C16.4377 81.5857 16.3704 83.7868 16.5291 86.0095C16.7003 88.4074 17.365 90.6677 17.7798 93.0229C17.783 93.0423 17.8148 93.0422 17.8119 93.0206C17.2122 88.8859 17.8855 84.1346 18.5312 80.0275Z" fill="#F4F3F2"/>
<path d="M132.905 44.218C110.508 29.8531 80.4967 28.7008 56.437 39.3458C49.478 42.424 43.0322 46.1594 37.3203 51.2168C37.289 51.2444 37.3301 51.2951 37.3632 51.2713C47.9919 43.6376 59.4579 37.8393 72.3075 35.0705C85.2436 32.2824 98.9106 32.5318 111.677 36.0638C118.978 38.084 125.932 41.1914 132.593 44.7737C132.943 44.9619 133.236 44.4297 132.905 44.218Z" fill="#F4F3F2"/>
<path d="M151.747 100.631C159.365 84.605 153.849 65.7913 142.766 52.8454C142.205 52.1905 141.138 52.8699 141.719 53.5809C151.117 65.0893 156.497 80.2678 152.254 94.9848C148.047 109.575 135.652 120.142 121.604 124.949C107.093 129.916 91.2134 128.732 76.5762 124.959C60.9849 120.94 43.6537 114.304 34.1454 100.538C24.5316 86.6187 26.7028 67.987 36.9631 55.0948C36.9959 55.0532 36.9293 54.985 36.8898 55.0216C26.4743 64.7639 23.8795 81.4071 29.2109 94.3821C35.9286 110.731 53.6142 119.102 69.4488 124.135C84.5299 128.928 100.85 131.35 116.465 127.753C131.163 124.367 145.177 114.453 151.747 100.631Z" fill="#F4F3F2"/>
<path d="M18.8551 86.129C20.4204 80.0901 22.2421 73.69 22.7761 67.4633C22.7784 67.4384 22.7386 67.4221 22.7285 67.4485C20.5948 73.3073 19.5826 79.8869 18.4755 86.012C18.4397 86.2105 18.8002 86.3428 18.8551 86.129Z" fill="#F4F3F2"/>
<path d="M19.1321 94.5301C19.9403 90.6802 20.3409 86.7168 20.8891 82.8232C20.903 82.7261 20.7444 82.6906 20.7262 82.7938C20.0644 86.6687 19.2407 90.565 18.8391 94.4776C18.8214 94.6544 19.0942 94.7135 19.1321 94.5301Z" fill="#F4F3F2"/>
<path d="M20.4198 97.6507C21.0537 93.8284 21.4656 89.9721 21.9267 86.1264C21.937 86.0391 21.7951 86.0065 21.78 86.1001C21.1665 89.922 20.5028 93.7403 20.0617 97.5864C20.037 97.8002 20.3818 97.879 20.4198 97.6507Z" fill="#F4F3F2"/>
<path d="M21.6806 101.929C21.8889 98.7932 22.041 95.6532 22.216 92.5151C22.219 92.4671 22.1376 92.4481 22.1343 92.5009C21.9477 95.6375 21.7367 98.7732 21.5833 101.911C21.5799 101.969 21.6762 101.992 21.6806 101.929Z" fill="#F4F3F2"/>
<path d="M23.2695 105.699C23.4902 102.397 23.5606 99.0824 23.6844 95.7752C23.6876 95.6889 23.5441 95.6538 23.5381 95.749C23.331 99.0454 23.0711 102.343 22.9602 105.644C22.9541 105.826 23.2565 105.901 23.2695 105.699Z" fill="#F4F3F2"/>
<path d="M26.6923 109.242C26.781 107.292 26.4731 105.258 26.347 103.31C26.3445 103.268 26.266 103.258 26.2664 103.305C26.271 105.251 26.1044 107.289 26.3206 109.222C26.3414 109.414 26.6825 109.463 26.6923 109.242Z" fill="#F4F3F2"/>
<path d="M30.1555 111.54C30.1316 110.587 30.064 109.642 29.9916 108.691C29.9134 107.67 29.9372 106.578 29.6967 105.583C29.6822 105.525 29.5949 105.51 29.5834 105.577C29.414 106.515 29.5066 107.54 29.4974 108.492C29.4883 109.472 29.4804 110.447 29.5214 111.427C29.5366 111.797 30.1662 111.952 30.1555 111.54Z" fill="#F4F3F2"/>
<path d="M35.666 119.076C35.716 116.73 35.5615 114.388 35.5181 112.044C35.5171 111.988 35.4216 111.963 35.4202 112.027C35.3611 114.349 35.1923 116.672 35.2265 118.997C35.23 119.253 35.6597 119.364 35.666 119.076Z" fill="#F4F3F2"/>
<path d="M39.4143 122.321C39.218 119.6 38.6098 116.909 38.2493 114.205C38.235 114.098 38.0584 114.1 38.0726 114.218C38.3908 116.922 38.467 119.675 38.9477 122.354C38.9987 122.639 39.4368 122.633 39.4143 122.321Z" fill="#F4F3F2"/>
<path d="M42.1605 124.406C42.0213 121.484 41.7102 118.51 41.2986 115.614C41.2868 115.532 41.1373 115.508 41.1363 115.605C41.1063 118.507 41.1876 121.474 41.4326 124.367C41.4646 124.746 42.1812 124.831 42.1605 124.406Z" fill="#F4F3F2"/>
<path d="M45.644 125.772C45.6396 124.43 45.3654 123.076 45.1743 121.751C44.9634 120.292 44.794 118.818 44.504 117.372C44.4867 117.286 44.3254 117.253 44.3257 117.363C44.3324 118.687 44.4498 120.01 44.53 121.331C44.6185 122.784 44.6104 124.303 44.8994 125.731C44.9725 126.091 45.6454 126.229 45.644 125.772Z" fill="#F4F3F2"/>
<path d="M49.8677 127.859C49.7854 126.458 49.3589 125.048 49.0596 123.677C48.7887 122.437 48.6213 121.118 48.1624 119.934C48.1127 119.805 47.8721 119.792 47.8666 119.955C47.8235 121.204 48.115 122.495 48.2744 123.734C48.4535 125.122 48.528 126.58 48.919 127.927C49.0786 128.476 49.9061 128.512 49.8677 127.859Z" fill="#F4F3F2"/>
<path d="M54.0126 129.416C54.0141 127.272 53.5202 125.044 53.2531 122.918C53.2323 122.753 52.9262 122.708 52.9294 122.9C52.965 125.018 52.7903 127.27 53.09 129.366C53.157 129.832 54.012 129.968 54.0126 129.416Z" fill="#F4F3F2"/>
<path d="M58.837 132.651C58.6506 130.187 57.9216 127.7 57.4269 125.281C57.3407 124.858 56.6575 124.855 56.7193 125.331C57.0357 127.77 57.1574 130.345 57.7756 132.727C57.9371 133.35 58.8919 133.375 58.837 132.651Z" fill="#F4F3F2"/>
<path d="M64.0182 134.966C64.228 134.019 63.9725 132.892 63.8985 131.927C63.8139 130.831 63.7845 129.716 63.5971 128.633C63.5712 128.482 63.327 128.444 63.3057 128.617C63.1726 129.695 63.2047 130.802 63.179 131.888C63.1554 132.867 62.9721 133.974 63.2257 134.923C63.3348 135.333 63.9152 135.432 64.0182 134.966Z" fill="#F4F3F2"/>
<path d="M70.3292 137.385C70.4946 136.386 70.3834 135.308 70.3776 134.296C70.3717 133.262 70.3659 132.228 70.3596 131.194C70.3595 131.128 70.2546 131.098 70.2458 131.174C70.0151 133.176 69.5088 135.335 69.6168 137.347C69.6383 137.74 70.2636 137.781 70.3292 137.385Z" fill="#F4F3F2"/>
<path d="M76.408 138.444C76.4309 137.506 76.0646 136.541 75.8439 135.635C75.623 134.726 75.4623 133.771 75.1344 132.894C75.0946 132.787 74.8837 132.773 74.8856 132.912C74.8969 133.834 75.0968 134.767 75.2218 135.681C75.3479 136.602 75.3669 137.628 75.7234 138.493C75.8432 138.784 76.3987 138.828 76.408 138.444Z" fill="#F4F3F2"/>
<path d="M82.5302 140.126C82.3631 139.03 81.8577 137.968 81.4751 136.932C81.0515 135.784 80.6273 134.636 80.2033 133.488C80.096 133.199 79.5529 133.263 79.6465 133.601C79.9688 134.77 80.2919 135.939 80.6139 137.108C80.9077 138.173 81.1186 139.322 81.6174 140.312C81.841 140.754 82.62 140.715 82.5302 140.126Z" fill="#F4F3F2"/>
<path d="M87.6407 141.036C87.7007 139.965 87.2103 138.817 86.9351 137.787C86.6219 136.617 86.3262 135.441 85.9666 134.285C85.8663 133.962 85.3345 133.922 85.3875 134.326C85.5434 135.509 85.7677 136.681 85.9727 137.856C86.1572 138.915 86.1966 140.144 86.6916 141.104C86.8856 141.48 87.6102 141.589 87.6407 141.036Z" fill="#F4F3F2"/>
<path d="M92.1598 140.99C92.2557 140.208 91.9226 139.4 91.7259 138.649C91.5079 137.818 91.2896 136.987 91.0715 136.155C90.9498 135.692 90.1713 135.668 90.2675 136.213C90.4147 137.049 90.5617 137.885 90.7089 138.721C90.8454 139.497 90.8851 140.363 91.2889 141.052C91.4896 141.395 92.0977 141.5 92.1598 140.99Z" fill="#F4F3F2"/>
<path d="M96.3915 142.077C96.427 141.146 96.1175 140.208 95.9178 139.303C95.6998 138.314 95.4815 137.326 95.2634 136.338C95.1564 135.853 94.3644 135.843 94.4433 136.397C94.5843 137.39 94.7249 138.384 94.8662 139.378C94.9972 140.302 95.042 141.279 95.396 142.148C95.5705 142.577 96.3706 142.632 96.3915 142.077Z" fill="#F4F3F2"/>
<path d="M102.155 139.804C101.996 138.023 101.362 136.248 100.826 134.55C100.806 134.488 100.714 134.509 100.718 134.572C100.804 136.322 100.836 138.168 101.303 139.866C101.438 140.358 102.207 140.39 102.155 139.804Z" fill="#F4F3F2"/>
<path d="M107.097 140.731C107.18 139.816 106.889 138.846 106.736 137.947C106.567 136.957 106.411 135.964 106.251 134.972C106.182 134.551 105.515 134.56 105.559 135.022C105.655 136.018 105.755 137.014 105.842 138.011C105.923 138.93 105.904 139.919 106.21 140.794C106.354 141.206 107.054 141.199 107.097 140.731Z" fill="#F4F3F2"/>
<path d="M111.905 141.046C112.055 139.941 111.575 138.697 111.333 137.619L110.501 133.917C110.399 133.462 109.654 133.452 109.729 133.973C109.909 135.214 110.088 136.455 110.267 137.695C110.428 138.81 110.431 140.107 110.955 141.113C111.164 141.514 111.832 141.58 111.905 141.046Z" fill="#F4F3F2"/>
<path d="M115.815 139.472C115.831 138.494 115.461 137.493 115.23 136.546C114.975 135.499 114.719 134.45 114.464 133.402C114.393 133.111 113.923 133.1 113.966 133.438C114.1 134.495 114.234 135.551 114.368 136.608C114.491 137.577 114.507 138.627 114.866 139.54C115.026 139.948 115.807 140.001 115.815 139.472Z" fill="#F4F3F2"/>
<path d="M120.92 138.188C120.598 136.463 119.717 134.752 119.093 133.114C118.962 132.77 118.331 132.839 118.429 133.249C118.83 134.94 119.066 136.826 119.761 138.424C120.016 139.01 121.057 138.919 120.92 138.188Z" fill="#F4F3F2"/>
<path d="M124.783 136.573C124.807 135.695 124.584 134.797 124.425 133.937C124.253 133.009 124.081 132.08 123.909 131.152C123.831 130.731 123.185 130.74 123.218 131.202L123.403 133.862C123.464 134.734 123.461 135.671 123.699 136.514C123.837 137.004 124.764 137.268 124.783 136.573Z" fill="#F4F3F2"/>
<path d="M128.564 131.524C128.464 130.618 128.357 129.714 128.253 128.809C128.213 128.46 127.578 128.369 127.574 128.772C127.562 129.671 127.548 130.569 127.541 131.469C127.536 132.185 127.334 133.123 127.826 133.699C127.997 133.9 128.318 133.963 128.502 133.74C128.966 133.176 128.638 132.2 128.564 131.524Z" fill="#F4F3F2"/>
<path d="M133.27 131.977C133.204 131.216 132.907 130.454 132.697 129.722C132.482 128.972 132.267 128.222 132.051 127.471C131.936 127.071 131.254 127.04 131.343 127.522C131.623 129.032 131.735 130.743 132.296 132.175C132.504 132.708 133.321 132.569 133.27 131.977Z" fill="#F4F3F2"/>
<path d="M136.299 128.787C136.451 128.133 136.399 127.459 136.398 126.79C136.396 126.08 136.395 125.37 136.394 124.66C136.394 124.178 135.618 123.962 135.564 124.511L135.361 126.605C135.296 127.265 135.173 127.939 135.26 128.6C135.319 129.049 136.17 129.337 136.299 128.787Z" fill="#F4F3F2"/>
<path d="M139.996 124.343C140.178 123.949 140.148 123.555 140.157 123.129C140.165 122.702 140.173 122.276 140.181 121.85C140.19 121.376 139.48 121.193 139.384 121.707C139.306 122.121 139.229 122.535 139.152 122.949C139.072 123.375 138.975 123.746 139.068 124.176C139.161 124.611 139.788 124.794 139.996 124.343Z" fill="#F4F3F2"/>
<path d="M144.029 122.63C144.172 122.205 144.067 121.71 144.038 121.267L143.943 119.86C143.916 119.454 143.228 119.381 143.183 119.818C143.137 120.257 143.092 120.696 143.046 121.136C143.002 121.552 142.877 122.035 142.991 122.442C143.108 122.867 143.837 123.199 144.029 122.63Z" fill="#F4F3F2"/>
<path d="M148.545 116.031C148.69 115.573 148.816 115.018 148.788 114.536C148.775 114.322 148.461 114.235 148.331 114.392C148.184 114.571 148.097 114.792 147.997 114.998C147.889 115.218 147.788 115.428 147.714 115.662C147.556 116.162 148.379 116.557 148.545 116.031Z" fill="#F4F3F2"/>
<path d="M152.267 113.446C152.251 113.209 152.235 112.973 152.219 112.736C152.198 112.426 151.835 112.192 151.547 112.213C151.241 112.237 151.022 112.514 151.077 112.818C151.12 113.053 151.162 113.287 151.205 113.522C151.323 114.169 152.315 114.154 152.267 113.446Z" fill="#F4F3F2"/>
<path d="M125.038 90.582C126.127 83.3674 121.493 77.432 115.723 73.752C114.126 72.7335 112.441 71.9102 110.71 71.1887C111.46 70.331 112.212 69.4748 112.961 68.6163C115.04 66.2346 117.072 63.8111 119.096 61.3823C119.193 61.2668 119.293 61.1502 119.39 61.0332C121.141 62.8585 122.702 64.854 124.08 67.0037C126.218 70.3378 127.613 73.9682 129.61 77.3549C129.828 77.7246 130.539 77.6732 130.598 77.2068C131.391 70.9636 127.246 64.2155 123.349 59.642C122.877 59.0875 122.385 58.5504 121.886 58.021C122.816 56.8272 123.67 55.5814 124.302 54.2345C124.633 53.5306 123.72 52.8549 123.095 53.2253C121.865 53.9563 120.744 54.8682 119.678 55.8475C117.798 54.1298 115.768 52.5815 113.604 51.2444C114.563 50.2703 115.399 49.2296 115.898 48.1042C116.136 47.5688 115.551 47.0043 115.013 47.1659C113.506 47.6184 112.08 48.5749 110.741 49.6352C109.571 49.0416 108.37 48.5052 107.139 48.0346C101.114 45.7311 93.2487 44.0091 87.1372 46.9093C80.2237 50.1905 81.0733 58.438 85.5198 63.4327C86.8018 64.8728 88.2416 66.0549 89.7885 67.0583C88.4182 68.2093 87.0485 69.3614 85.6761 70.5105C80.8424 74.561 75.9897 78.5894 71.2007 82.6916C68.8092 84.74 66.418 86.7882 64.0274 88.8367C64.0187 88.8444 64.0096 88.851 64.0009 88.8587C63.2947 87.587 62.698 86.2475 62.2445 84.8357C59.6818 76.8585 62.7401 67.7896 69.9503 63.4161C72.5427 61.8437 69.5984 58.3632 67.1873 59.6231C60.754 62.9832 56.9785 70.2013 56.6208 77.3089C56.3607 82.4753 57.8642 87.3776 60.5087 91.6583C58.9671 92.8966 57.473 94.202 56.3738 95.6846C55.0166 97.5166 57.2561 99.7302 59.1849 98.6946C60.675 97.8949 62.0504 96.753 63.3754 95.555C63.8644 96.1237 64.3693 96.6804 64.8978 97.2157C67.5512 99.9008 70.6646 102.039 74.0319 103.686C73.0882 104.698 72.1394 105.707 71.1966 106.72C68.7602 109.34 73.4121 113.056 75.7017 110.515C77.0671 109 78.4241 107.477 79.7873 105.96C81.8608 106.602 83.9817 107.092 86.115 107.425C93.9864 108.656 102.814 108.568 110.43 106.013C117.456 103.657 123.88 98.2626 125.038 90.582ZM109.367 55.0125C109.692 54.7202 110.04 54.4217 110.397 54.1164C112.436 55.2541 114.365 56.5732 116.141 58.0273C116.381 58.2231 116.612 58.4276 116.846 58.6291C116.691 58.7852 116.537 58.9416 116.382 59.0958C114.134 61.3341 111.893 63.5782 109.697 65.8663C108.53 67.0821 107.366 68.3005 106.201 69.5176C103.05 68.4533 99.8566 67.4929 96.8332 66.1694C98.6752 64.5456 100.518 62.922 102.359 61.2969C104.711 59.221 107.034 57.1111 109.367 55.0125ZM86.5892 54.5695C87.1939 50.7696 91.601 49.8709 94.8192 49.8445C99.0907 49.8094 103.318 50.8239 107.244 52.5477C105 54.3894 102.748 56.225 100.514 58.0813C98.0422 60.1348 95.5786 62.1985 93.1174 64.2655C92.7608 64.0497 92.4065 63.8285 92.0581 63.5945C89.2316 61.6952 85.9917 58.3201 86.5892 54.5695ZM66.5932 92.6242C68.9685 90.5748 71.3449 88.526 73.7202 86.4766C78.5884 82.2781 83.3997 78.0141 88.2214 73.7626C89.9892 72.2034 91.7573 70.6443 93.5254 69.0861C96.6326 70.5069 99.9813 71.5133 103.269 72.5796C101.133 74.8173 99.0039 77.061 96.8836 79.3129C90.2606 86.3475 83.6495 93.3924 77.0547 100.452C73.0542 98.6341 69.3915 95.9789 66.5932 92.6242ZM104.418 103.13C97.4881 104.408 89.8317 104.289 82.9025 102.488C88.8514 95.8497 94.7887 89.2009 100.716 82.5428C103.166 79.7894 105.6 77.0225 108.03 74.2514C108.259 74.3412 108.487 74.4309 108.713 74.5247C114.747 77.0077 121.75 81.8929 120.786 89.3354C119.727 97.5128 111.76 101.778 104.418 103.13Z" fill="#F4F3F2"/>
</g>
</svg>
