<svg width="144" height="159" viewBox="0 0 144 159" fill="none" xmlns="http://www.w3.org/2000/svg">
<g opacity="0.4">
<path d="M42.5907 30.304C36.127 40.177 27.8988 77.1363 37.7946 112.899C37.7946 112.899 42.5079 126.662 49.7721 134.88C57.0368 143.097 69.1608 155.757 87.413 143.313C105.666 130.87 112.899 102.888 112.997 89.3542C113.093 75.82 113.914 49.9725 93.869 20.9551L78.2553 12.0122C78.2553 12.0122 59.2976 4.78265 42.5907 30.304Z" fill="#6130DF"/>
<path d="M88.8144 138.9C86.3303 138.093 83.8605 137.555 81.4088 136.964C81.3315 136.945 81.3523 137.083 81.4306 137.109C83.9212 137.956 86.4443 138.873 88.9074 139.508C89.2259 139.59 89.1406 139.006 88.8144 138.9Z" fill="white"/>
<path d="M84.9481 133.212C87.7178 133.826 90.4844 134.359 93.2133 134.764C93.5574 134.815 93.4764 134.145 93.1082 134.078C90.3524 133.576 87.6118 133.201 84.9016 132.908C84.7525 132.892 84.7828 133.176 84.9481 133.212Z" fill="white"/>
<path d="M95.9598 117.357C95.8997 117.331 95.887 117.439 95.9525 117.467C98.6072 118.649 101.272 120.067 103.925 121.167C104.148 121.26 104.205 120.872 103.953 120.752C101.282 119.486 98.6262 118.54 95.9598 117.357Z" fill="white"/>
<path d="M99.7119 111.707C102.072 112.54 104.446 113.453 106.797 114.201C107.121 114.305 107.038 113.688 106.702 113.581C104.361 112.836 102.036 112.252 99.7064 111.593C99.6545 111.578 99.6538 111.686 99.7119 111.707Z" fill="white"/>
<path d="M104.664 69.8994C104.514 69.8203 104.487 70.0711 104.646 70.1683C106.694 71.4277 108.823 72.862 110.879 73.8539C111.108 73.9647 111.251 73.5633 110.972 73.3789C108.906 72.0121 106.746 70.9957 104.664 69.8994Z" fill="white"/>
<path d="M105.153 49.0976C104.62 48.9234 104.054 48.6934 103.553 48.6954C103.489 48.6961 103.487 48.8313 103.563 48.8854C104.091 49.2625 104.649 49.4278 105.179 49.634C105.736 49.8514 106.291 50.0659 106.84 50.2077C107.065 50.2658 107.072 49.8282 106.817 49.712C106.257 49.4571 105.707 49.2779 105.153 49.0976Z" fill="white"/>
<path d="M99.3017 28.9357C99.2589 28.9108 99.2126 28.8903 99.1694 28.8647C98.0905 26.9644 96.9504 25.0903 95.7316 23.255C95.7509 23.1258 95.7108 22.9616 95.5729 22.799C95.3616 22.5488 95.1459 22.3051 94.9279 22.0652C94.8122 21.8963 94.7012 21.7232 94.5843 21.555C94.4523 21.3654 94.2932 21.2665 94.1471 21.2375C94.0434 21.1323 93.934 21.0394 93.8293 20.9355C93.7549 20.7641 93.6366 20.594 93.4631 20.4428C76.3309 5.4994 59.8329 9.08169 49.6793 20.102C39.7392 30.8876 34.0373 47.6926 32.8658 66.8924C32.2058 77.7201 33.0559 89.3362 35.4406 101.362C35.4638 101.477 35.6004 101.5 35.5816 101.389C32.1857 81.293 32.6373 62.1925 37.2013 46.5008C37.2253 46.4212 37.2498 46.3405 37.2738 46.2609C36.1001 50.4425 35.2266 54.8917 34.6028 59.384C33.3107 68.6912 33.1081 78.7725 34.2921 89.3682C34.3024 89.4591 34.4094 89.4715 34.4039 89.39C33.9821 82.7478 33.8982 76.2508 34.237 69.9986C34.2105 71.3869 34.2076 72.7868 34.2282 74.2002C34.2289 74.222 34.2568 74.2349 34.2568 74.2145C34.2412 71.383 34.334 68.6092 34.5255 65.8963C34.698 63.8925 34.9162 61.9163 35.1861 59.9731C36.1447 53.099 37.7706 46.9566 39.7602 41.0501C42.5173 33.8064 46.2583 27.5245 50.8766 22.4841C54.2172 18.8375 58.0531 15.5994 62.4514 13.6016C63.6211 13.2104 64.8251 12.8944 66.0688 12.673C71.4755 11.7098 77.5566 12.5946 83.6927 15.5847C87.6144 18.2729 91.3255 22.3031 94.3765 27.7553C95.101 29.0504 95.7671 30.3695 96.3859 31.7035C96.3454 31.6852 96.3048 31.6677 96.2655 31.6486C96.1891 31.612 96.1415 31.7386 96.2349 31.8074C96.3339 31.8801 96.4354 31.9567 96.5363 32.031C97.3661 33.8512 98.0965 35.7021 98.7486 37.5701C98.7238 37.5623 98.6981 37.5517 98.6738 37.5446C98.6108 37.5249 98.619 37.634 98.6795 37.6711C98.7229 37.6991 98.7693 37.7247 98.8131 37.7516C100.751 43.3549 101.938 49.0971 102.648 54.5999C102.325 54.4582 102.001 54.3159 101.681 54.1847C101.621 54.1593 101.608 54.2538 101.673 54.2937C102.009 54.502 102.348 54.7025 102.688 54.9025C102.973 57.1571 103.181 59.3701 103.326 61.5128C104.078 72.6494 103.507 83.2491 101.747 92.9276C98.2206 112.315 89.7701 129.139 76.9374 137.805C69.7213 142.678 59.914 143.679 49.8571 133.87C49.7314 133.747 49.6128 133.613 49.4884 133.487C43.9617 126.892 39.5507 118.537 37.0842 110.172C37.0684 110.118 36.9985 110.117 37.0108 110.169C38.034 114.299 39.5439 118.409 41.4465 122.328C40.6466 120.773 39.9267 119.183 39.3066 117.57C37.9157 114.922 36.9149 112.198 36.2047 109.456C37.1506 114.916 39.2522 120.628 42.4457 125.791C44.2415 128.695 46.2405 131.264 48.3604 133.472C50.1795 135.805 52.1445 137.963 54.2299 139.881C61.5008 146.571 70.4243 150.386 76.9261 148.446C76.3604 148.686 75.7971 148.931 75.2239 149.154C75.1674 149.176 75.2324 149.308 75.2902 149.295C86.6387 146.893 96.0072 139.309 102.628 128.323C104.281 125.772 105.727 122.98 106.871 119.935C113.57 104.015 115.51 83.2506 111.049 61.2384C108.85 50.3893 105.118 39.4934 99.4878 29.4219C99.5519 29.3022 99.4872 29.0475 99.3017 28.9357ZM37.4143 45.7988C37.5186 45.4489 37.624 45.0993 37.7333 44.7512C37.6271 45.1003 37.5161 45.4451 37.4143 45.7988ZM41.9159 34.6837C41.8676 34.642 41.8105 34.6279 41.7841 34.6764C41.0316 36.0801 40.3527 37.5848 39.7163 39.1402C43.2724 30.1588 48.3637 22.2868 55.0855 17.4229C49.7379 21.8443 45.2969 27.6888 41.9159 34.6837ZM92.6161 21.4853C92.3253 21.3006 92.0339 21.1196 91.7442 20.9352C90.9292 20.418 90.1095 19.8522 89.2894 19.4637C89.2466 19.444 89.2223 19.4735 89.2237 19.5145C88.6429 18.8696 88.0451 18.2581 87.4374 17.6729C89.1741 18.7666 90.9047 20.0355 92.6161 21.4853ZM89.4012 19.7181C90.1299 20.3664 90.8944 20.8941 91.6435 21.4476C92.378 21.9899 93.1101 22.5589 93.8567 23.0063C94.1555 23.1853 94.299 22.6713 93.9722 22.4174C93.7717 22.2621 93.5668 22.1305 93.364 21.9909C93.4352 22.0055 93.5021 22.0044 93.563 21.9876C93.7867 22.1821 94.0106 22.3789 94.2364 22.5714C94.705 23.2586 95.1609 23.9514 95.6082 24.6486C94.3038 23.7011 92.9135 22.8641 91.6284 22.2474C91.5486 22.2091 91.5077 22.3297 91.5971 22.4048C93.0391 23.6207 94.6646 24.7382 96.1743 25.554C96.7045 26.4028 97.2209 27.2571 97.7203 28.1184C96.6812 27.6438 95.6209 27.2763 94.6536 27.0366C93.0867 24.3586 91.3241 21.8857 89.4012 19.7181ZM54.6056 138.793C54.4905 138.692 54.3796 138.582 54.2658 138.479C55.0075 138.977 55.7539 139.437 56.5044 139.848C59.1911 141.876 61.9086 143.635 64.6433 145.144C61.3424 143.823 57.9861 141.785 54.6056 138.793ZM78.6706 147.675C78.7218 147.455 78.5313 147.11 78.3031 147.005C79.8147 146.666 81.2835 146.187 82.7081 145.601C81.3921 146.35 80.0446 147.039 78.6706 147.675ZM111.935 80.8513L111.933 80.8483C109.761 79.4488 107.455 78.3935 105.274 77.3632C105.138 77.299 105.113 77.5173 105.257 77.6068C107.427 78.9504 109.718 80.3992 111.895 81.3729C111.913 81.3813 111.928 81.3813 111.945 81.3846C111.985 83.4802 111.968 85.5366 111.896 87.5451C109.816 86.4996 107.728 85.6594 105.658 84.8125C105.612 84.7936 105.6 84.8697 105.652 84.8975C107.722 86.0145 109.809 87.1518 111.878 88.0713C111.848 88.8122 111.813 89.5474 111.768 90.2739C111.651 92.1788 111.471 94.0417 111.256 95.8801C108.987 94.9016 106.688 94.4434 104.454 93.7985C104.35 93.7679 104.348 93.9849 104.465 94.0266C106.683 94.813 109.028 95.845 111.206 96.3153C110.809 99.5958 110.256 102.764 109.558 105.816C106.936 105.022 104.306 104.503 101.758 104.123C101.711 104.116 101.723 104.2 101.772 104.216C104.338 105.071 106.943 105.817 109.453 106.283C107.866 113.052 105.567 119.231 102.625 124.693C102.32 125.195 102.011 125.694 101.697 126.185C101.668 126.157 101.641 126.125 101.6 126.115C98.276 125.176 94.9976 124.518 91.7148 123.824C91.5852 123.797 91.6181 124.039 91.7533 124.076C95.0059 124.956 98.2654 125.871 101.48 126.523C100.469 128.088 99.412 129.593 98.2927 131.025C98.2571 130.982 98.2153 130.944 98.1593 130.926C94.9333 129.85 91.7189 129.415 88.5808 128.876C88.534 128.867 88.5455 128.953 88.595 128.968C91.7311 129.885 94.9827 130.94 98.0347 131.358C96.45 133.354 94.7398 135.202 92.8578 136.865C90.0746 139.322 87.0377 141.164 83.8676 142.746C83.8407 142.725 83.81 142.707 83.7747 142.698C81.2791 142.044 78.8255 141.775 76.3872 141.417C76.334 141.409 76.3453 141.508 76.4036 141.522C78.6723 142.08 80.9849 142.72 83.2189 143.067C81.8367 143.739 80.4321 144.37 79.0118 144.98C78.9975 144.969 78.9837 144.957 78.9657 144.95C76.7833 144.066 74.6058 143.26 72.4283 142.433C72.376 142.413 72.3629 142.506 72.4215 142.531C74.4789 143.417 76.5387 144.318 78.5929 145.157C77.2602 145.725 75.9157 146.281 74.5665 146.846C71.9081 145.419 69.2489 144.245 66.59 142.91C66.5359 142.884 66.5247 142.976 66.5832 143.008C69.0514 144.34 71.517 145.81 73.9859 147.089L73.899 147.126C72.8703 147.089 71.8315 146.989 70.785 146.831C68.3982 145.273 65.9838 143.881 63.596 142.412C63.5619 142.392 63.5446 142.456 63.5827 142.48C65.6768 143.864 67.7794 145.331 69.8852 146.68C69.337 146.578 68.7858 146.451 68.2331 146.313C64.985 144.811 61.7437 142.984 58.5266 140.854C61.5618 142.192 64.5973 142.798 67.4493 142.586C76.4121 141.918 83.1982 135.048 88.56 127.897C93.7522 120.974 97.7571 112.506 100.446 102.898C103.112 93.3746 104.503 82.733 104.482 71.368C104.477 68.5935 104.406 65.7521 104.232 62.8605C105.861 63.776 107.495 64.6924 109.126 65.4827C109.334 65.5836 109.379 65.2268 109.151 65.1034C107.509 64.2169 105.863 63.4533 104.22 62.6935C104.073 60.2909 103.85 57.8535 103.537 55.3915C104.681 56.0372 105.832 56.6345 106.961 57.1592C107.175 57.2596 107.222 56.9009 106.988 56.7689C105.833 56.1176 104.655 55.52 103.486 54.9794C103.007 51.3223 102.319 47.6129 101.354 43.8825C102.629 44.6492 103.965 45.3482 105.23 45.8364C105.471 45.93 105.538 45.5379 105.261 45.3846C103.959 44.6631 102.595 44.1019 101.299 43.6629C100.831 41.8703 100.297 40.0744 99.6916 38.2762C100.563 38.7696 101.462 39.2119 102.297 39.5493C102.547 39.6514 102.612 39.2371 102.33 39.0865C101.431 38.6045 100.464 38.1747 99.5395 37.8381C99.39 37.4021 99.2457 36.9659 99.0872 36.5294C98.6303 35.2716 98.1282 34.0336 97.5928 32.8169C98.5999 33.5548 99.6474 34.2704 100.606 34.6414C100.859 34.74 101.025 34.3696 100.71 34.1102C99.648 33.232 98.4311 32.6433 97.2813 32.1165C96.537 30.4823 95.7256 28.891 94.848 27.3661C95.962 28.0646 97.1559 28.6855 98.2925 29.1228C107.572 45.596 111.542 64.3705 111.935 80.8513Z" fill="white"/>
<path d="M67.6005 13.3674C48.1134 20.5838 36.2818 43.1635 35.4174 71.7122C35.1755 79.6802 35.7898 88.1033 37.2143 96.7369C37.2236 96.7934 37.2912 96.8039 37.2832 96.7509C32.4953 65.8328 38.2881 38.7738 53.2398 23.6327C57.5158 19.3011 62.4654 16.1808 67.8581 13.8059C68.0642 13.7164 67.7942 13.2962 67.6005 13.3674Z" fill="white"/>
<path d="M38.3426 102.416C40.1011 112.319 44.2011 123.436 51.4179 131.146C57.4174 137.556 65.4438 141.09 70.1606 137.415C70.3036 137.303 70.0974 136.96 69.949 137.055C64.8884 140.266 57.1178 137.021 51.0101 130.174C44.3268 122.68 40.0838 111.901 38.3715 102.422C38.3672 102.399 38.3388 102.394 38.3426 102.416Z" fill="white"/>
<path d="M90.522 117.52C86.3588 125.169 81.0614 131.537 74.9107 136.482C74.9047 136.488 74.9143 136.503 74.9209 136.499C86.6996 127.893 94.9766 113.48 99.0922 95.7949C101.154 86.9369 102.168 77.2281 102.035 66.9409C101.889 55.68 100.315 43.1075 94.142 31.1885C91.0836 25.2819 86.9708 19.8881 82.2912 16.4806C77.9254 13.3005 73.2621 11.8563 69.666 13.2825C69.5072 13.346 69.6963 13.7422 69.8579 13.6891C77.4732 11.175 87.4214 19.4662 93.3528 30.3677C99.8444 42.2986 101.453 55.148 101.609 66.5063C101.882 86.2571 97.941 103.89 90.522 117.52Z" fill="white"/>
<path d="M71.7956 44.3068C64.7387 51.1081 68.7369 68.5012 69.4387 80.8304C69.8582 88.2062 69.4107 95.9859 65.7295 100.069C62.6457 103.49 56.4646 103.684 51.5632 98.1515C45.282 91.061 43.5872 79.2965 43.9152 71.6812C44.2454 64.0349 46.6456 58.3181 50.397 53.9507C51.3229 52.8719 49.5082 50.7221 48.5669 51.5848C42.404 57.2419 40.2276 68.9215 42.3569 81.1692C44.4116 92.9851 51.5022 105.436 60.9417 105.302C69.8443 105.176 72.1339 94.1208 71.7401 83.2143C71.4733 75.8147 70.1607 67.9907 70.0564 60.6602C69.9473 53.0332 71.832 42.5899 79.6369 45.9871C86.6887 49.0577 91.3195 59.4348 91.8865 67.4257C92.5599 76.9146 88.9187 82.923 86.2112 89.7334C86.1036 90.0058 86.4821 90.3848 86.6331 90.1847C91.9116 83.1671 96.7617 72.0317 91.7368 58.2167C87.8054 47.4085 77.4766 38.8305 71.7956 44.3068Z" fill="white"/>
<path d="M83.1248 42.5223C78.8488 45.0084 75.0509 48.5531 71.0871 51.5902C67.0919 54.6511 63.114 57.7397 59.1391 60.8353C55.3907 63.7534 51.689 66.7455 47.9815 69.7312C46.0236 71.3077 44.0659 72.8858 42.108 74.4623C40.4641 75.7875 38.3715 76.7594 37.3941 78.9726C37.3574 79.0578 37.4506 79.194 37.529 79.1861C39.7236 78.9761 41.3211 77.162 43.0402 75.9328C45.0753 74.4777 47.1102 73.021 49.1454 71.5658C53.2167 68.6533 57.2854 65.7386 61.3147 62.7523C65.3472 59.7651 69.3716 56.7651 73.3825 53.743C77.1596 50.8979 81.2638 48.3892 84.7221 45.0399C85.5754 44.2139 84.0884 41.9608 83.1248 42.5223Z" fill="white"/>
<path d="M90.1215 54.1829C85.4909 56.89 81.2962 60.5659 76.9352 63.759C72.6933 66.8638 68.4636 69.9853 64.259 73.1527C60.0506 76.3238 55.8641 79.5305 51.7022 82.779C49.9212 84.1686 48.1622 85.5979 46.4154 87.0431C44.503 88.6253 42.2113 89.9667 40.9153 92.402C40.8846 92.4595 40.9587 92.5654 41.0134 92.5578C43.5471 92.1688 45.5735 90.3374 47.6442 88.9807C49.7519 87.5982 51.8463 86.1919 53.9186 84.7474C58.2166 81.751 62.4864 78.7086 66.7411 75.639C71 72.5664 75.2236 69.4361 79.4459 66.3013C83.5864 63.2264 88.0288 60.4923 91.8899 56.9705C92.8578 56.0891 91.1842 53.5621 90.1215 54.1829Z" fill="white"/>
</g>
</svg>
