<svg width="222" height="245" viewBox="0 0 222 245" fill="none" xmlns="http://www.w3.org/2000/svg">
<g opacity="0.4">
<path d="M218.605 9.83545L207.978 3.46045C207.978 3.46045 180.353 14.0854 159.103 33.2104C137.853 52.3354 39.0379 167.089 25.2239 180.902C11.4109 194.715 -0.276148 226.59 2.91085 232.965C6.09885 239.342 18.8489 244.654 18.8489 244.654C18.8489 244.654 100.664 186.214 141.04 136.275C181.416 86.3374 213.293 27.8984 218.605 9.83545Z" fill="#FCC047"/>
<path d="M209.953 2.88444C206.34 -1.01756 198.153 3.22441 192.462 6.39341C172.267 17.6454 155.472 34.0564 139.649 49.9194C107.87 81.7744 78.3127 115.099 51.4377 149.331C37.9167 166.554 25.0717 184.02 12.9647 201.67C8.01473 208.886 1.75072 216.931 0.398719 224.378C0.267719 225.104 0.19472 225.825 0.17472 226.531C0.12272 226.442 -0.0252698 226.507 0.0037302 226.61C0.0567302 226.798 0.119727 226.985 0.175727 227.173C0.233727 229.801 1.11372 232.162 2.91672 233.708C5.55672 238.396 9.50173 242.246 15.0117 243.707C16.2037 244.024 17.2477 242.477 16.0027 241.795C12.6007 239.934 9.32273 237.906 6.52973 235.386C6.90173 235.456 7.28774 235.51 7.69474 235.539C14.4947 236.034 22.5077 230.661 28.5437 225.889C38.3047 218.175 47.5757 209.723 56.5947 201.358C75.9727 183.381 93.9787 164.411 110.58 144.833C111.458 143.796 109.827 143.591 109.027 144.548C95.8967 160.272 81.7767 175.507 66.6877 190.179C59.3657 197.299 51.8367 204.281 44.1207 211.104C37.0307 217.374 29.7087 224.313 21.6177 229.479C17.4587 232.133 12.5717 234.458 8.46973 234.029C3.32073 233.492 1.28174 229.27 1.95274 224.543C3.06274 216.727 10.0827 207.985 15.3097 200.371C25.8417 185.029 36.9267 169.825 48.5327 154.799C72.0987 124.285 97.7997 94.5364 125.424 65.8724C139.676 51.0854 154.257 35.8354 170.645 22.6344C178.898 15.9864 188.196 9.31443 197.731 4.90443C200.856 3.45743 205.493 1.65542 207.65 3.38142C209.655 4.98542 209.818 7.64843 208.844 10.5214C207.445 14.6474 204.274 18.8584 201.667 22.8784C178.138 59.1364 152.747 94.9624 125.104 130.072C124.874 130.365 125.321 130.418 125.531 130.151C153.766 94.2884 180.525 57.7754 204.619 20.7344C208.312 15.0554 213.881 7.12944 209.953 2.88444Z" fill="#F4F3F2"/>
<path d="M221.559 11.5355C217.637 7.27948 212.821 2.6075 207.603 0.0125037C207.489 -0.0434963 207.301 0.0994859 207.362 0.225486C209.635 4.93749 213.662 9.36449 217.515 13.0625C216.637 12.9055 215.657 13.2455 215.204 14.2915C183.686 87.0495 134.267 151.236 73.4126 201.895C56.2736 216.163 37.7675 228.522 20.1695 242.158C20.0595 242.243 20.1315 242.446 20.2775 242.374C37.9495 233.761 54.0035 221.913 69.4155 209.77C84.9965 197.492 99.7845 184.212 113.778 170.154C141.829 141.971 166.501 110.392 187.231 76.4665C199.144 56.9725 209.718 36.7105 218.995 15.8345C219.227 15.3105 219.25 14.8395 219.138 14.4365C220.643 14.9865 222.814 12.8935 221.559 11.5355Z" fill="#F4F3F2"/>
<path d="M208.065 3.14957C188.394 6.70957 172.083 19.3086 157.815 32.6266C141.056 48.2686 125.219 65.0215 109.548 81.7445C93.5009 98.8655 77.8499 116.358 62.6089 134.2C47.7809 151.56 32.7579 169.037 19.4179 187.582C13.0689 196.407 7.26687 205.722 3.47387 215.959C1.38887 221.59 -0.488122 229.023 1.66488 234.863C1.64488 235.144 1.67586 235.432 1.82186 235.715C2.10986 236.271 2.46488 236.788 2.86288 237.28C3.47388 238.236 4.22887 239.128 5.15887 239.928C5.24687 240.003 5.36286 239.894 5.34286 239.8C5.32486 239.71 5.31088 239.62 5.29388 239.529C8.76488 241.991 13.6249 243.166 17.3529 243.075C17.3529 243.075 17.5299 242.883 17.4089 242.831C14.8329 241.747 12.3099 240.508 10.0609 238.829C8.07587 237.349 6.52385 235.381 4.60985 233.875C3.85485 216.439 15.3889 200.28 25.5639 186.82C38.2779 170.001 51.8919 153.786 65.5429 137.727C93.0189 105.405 121.826 74.1956 151.945 44.3186C168.101 28.2926 185.398 12.6296 208.205 7.45557C210.834 6.85857 211.081 2.60357 208.065 3.14957Z" fill="#F4F3F2"/>
<path d="M18.3605 241.189C14.9845 238.61 11.2965 236.137 7.56148 234.1C7.32248 233.969 7.04651 234.351 7.26751 234.53C10.5435 237.193 14.2175 239.634 17.8585 241.762C18.2235 241.976 18.7435 241.48 18.3605 241.189Z" fill="#F4F3F2"/>
<path d="M21.4847 239.009C18.8887 237.056 15.8677 235.555 13.0667 233.913C12.8777 233.802 12.6067 234.07 12.8077 234.209C15.4987 236.049 18.1527 238.137 21.0367 239.665C21.3977 239.857 21.8367 239.271 21.4847 239.009Z" fill="#F4F3F2"/>
<path d="M26.8177 235.826C24.1367 234.343 21.2857 233 18.4487 231.838C18.1907 231.733 17.8507 232.135 18.1287 232.306C20.7597 233.93 23.5377 235.449 26.3387 236.753C26.9037 237.015 27.3947 236.144 26.8177 235.826Z" fill="#F4F3F2"/>
<path d="M32.3516 230.579C29.9306 229.291 27.4796 228.073 25.0166 226.869C24.7116 226.721 24.4475 227.195 24.7555 227.374C27.1305 228.744 29.5136 230.097 31.9336 231.385C32.4046 231.635 32.8606 230.85 32.3516 230.579Z" fill="#F4F3F2"/>
<path d="M41.8346 225.923C39.0036 224.243 35.5906 223.29 32.5296 222.088C32.2566 221.981 32.0096 222.396 32.2996 222.532C35.2356 223.893 38.2706 225.695 41.3866 226.579C41.7316 226.676 42.2516 226.169 41.8346 225.923Z" fill="#F4F3F2"/>
<path d="M47.2036 221.006C46.0146 220.18 44.6596 219.648 43.3486 219.044C41.9036 218.376 40.4615 217.593 38.9505 217.088C38.6055 216.974 38.1345 217.471 38.5145 217.727C39.7005 218.521 41.0325 219.108 42.2995 219.764C43.7175 220.497 45.1135 221.351 46.6395 221.833C47.0865 221.972 47.6946 221.348 47.2036 221.006Z" fill="#F4F3F2"/>
<path d="M54.4855 215.598C51.7035 213.935 48.4585 212.319 45.3845 211.284C45.1175 211.194 44.7685 211.568 45.0525 211.772C47.6565 213.646 50.8605 215.327 53.8075 216.592C54.3535 216.827 55.0725 215.949 54.4855 215.598Z" fill="#F4F3F2"/>
<path d="M63.1399 211.954C59.3439 209.847 55.3489 207.74 51.3209 206.116C51.1039 206.029 50.8219 206.358 51.0509 206.509C54.7049 208.905 58.7259 210.979 62.6489 212.899C63.2199 213.178 63.7269 212.28 63.1399 211.954Z" fill="#F4F3F2"/>
<path d="M69.2396 205.034C66.6606 203.438 63.9756 202.039 61.3036 200.607C61.1316 200.514 60.9046 200.811 61.0856 200.926C63.6426 202.542 66.1776 204.181 68.8296 205.635C69.1536 205.812 69.5826 205.246 69.2396 205.034Z" fill="#F4F3F2"/>
<path d="M78.9178 194.379C75.7558 192.129 72.3938 190.159 69.0988 188.111C68.6868 187.853 68.0997 188.466 68.5357 188.753C71.8057 190.906 75.0327 193.145 78.4287 195.093C78.8137 195.312 79.3048 194.655 78.9178 194.379Z" fill="#F4F3F2"/>
<path d="M90.2396 186.141C86.8126 183.684 83.1156 181.578 79.5326 179.361C79.0506 179.064 78.3696 179.782 78.8786 180.108C82.4626 182.404 85.9946 184.843 89.7266 186.892C90.1346 187.115 90.6466 186.434 90.2396 186.141Z" fill="#F4F3F2"/>
<path d="M100.799 174.898C98.1065 172.521 95.0926 170.508 92.1936 168.393C91.6766 168.017 90.9255 168.817 91.4635 169.227C94.3245 171.401 97.1256 173.707 100.176 175.61C100.63 175.894 101.243 175.29 100.799 174.898Z" fill="#F4F3F2"/>
<path d="M111.58 165.553C107.915 162.801 103.938 160.283 99.9947 157.951C99.3527 157.571 98.4307 158.475 99.1117 158.959C102.896 161.639 106.871 164.259 110.926 166.511C111.447 166.8 112.089 165.935 111.58 165.553Z" fill="#F4F3F2"/>
<path d="M120.001 156.09C116.868 153.954 113.583 152.03 110.359 150.037C109.868 149.732 109.17 150.464 109.69 150.801C112.868 152.862 116.007 155.005 119.271 156.925C119.804 157.238 120.571 156.479 120.001 156.09Z" fill="#F4F3F2"/>
<path d="M130.135 145.576C127.287 143.652 124.26 141.52 121.127 140.093C120.851 139.966 120.54 140.372 120.795 140.581C123.455 142.759 126.711 144.514 129.699 146.214C130.042 146.408 130.489 145.815 130.135 145.576Z" fill="#F4F3F2"/>
<path d="M140.165 137.514C137.648 135.685 135.032 133.999 132.442 132.275C132.145 132.078 131.721 132.521 132.03 132.745C134.548 134.561 137.042 136.413 139.632 138.123C140.018 138.375 140.568 137.805 140.165 137.514Z" fill="#F4F3F2"/>
<path d="M143.248 128.27C140.285 125.836 137.048 123.511 133.824 121.433C133.681 121.34 133.487 121.537 133.626 121.659C136.5 124.183 139.617 126.651 142.762 128.827C143.11 129.067 143.6 128.56 143.248 128.27Z" fill="#F4F3F2"/>
<path d="M150.56 121.389C147.415 118.767 144.217 115.993 140.75 113.805C140.671 113.755 140.576 113.855 140.643 113.925C143.463 116.889 146.812 119.471 149.997 122.032C150.383 122.342 150.96 121.722 150.56 121.389Z" fill="#F4F3F2"/>
<path d="M146.12 112.052C145.894 111.886 145.567 112.237 145.8 112.416C147.753 113.919 149.722 115.387 151.716 116.835C151.908 116.975 152.189 116.678 151.989 116.521C150.051 115.005 148.098 113.516 146.12 112.052Z" fill="#F4F3F2"/>
<path d="M157.926 112.411C154.761 109.716 151.476 107.169 148.194 104.618C148.025 104.487 147.778 104.751 147.949 104.897C151.109 107.594 154.266 110.293 157.544 112.845C157.808 113.049 158.193 112.638 157.926 112.411Z" fill="#F4F3F2"/>
<path d="M161.303 105.747C158.524 103.604 155.542 101.71 152.637 99.7486C152.506 99.6596 152.318 99.8535 152.454 99.9575C155.227 102.084 157.959 104.302 160.861 106.251C161.178 106.463 161.629 105.999 161.303 105.747Z" fill="#F4F3F2"/>
<path d="M168.743 97.3825C164.281 95.1635 160.842 92.6095 157.583 88.8325C157.242 88.4375 156.533 88.9025 156.839 89.3505C159.562 93.3415 163.652 96.7335 168.149 98.5305C168.856 98.8135 169.483 97.7515 168.743 97.3825Z" fill="#F4F3F2"/>
<path d="M174.623 89.0464C171.231 87.3844 168.344 86.0495 165.835 83.0815C165.41 82.5765 164.484 83.2035 164.901 83.7325C167.174 86.6285 170.48 89.4805 174.191 90.2145C174.855 90.3455 175.263 89.3604 174.623 89.0464Z" fill="#F4F3F2"/>
<path d="M182.772 77.3374C178.815 75.3954 175.949 73.6694 173.205 70.1134C172.906 69.7244 172.324 70.1635 172.539 70.5785C174.423 74.2275 178.281 77.6074 182.4 78.3374C182.969 78.4384 183.324 77.6074 182.772 77.3374Z" fill="#F4F3F2"/>
<path d="M189.611 63.9626C185.943 62.4796 182.844 60.4476 180.423 57.2706C180.094 56.8396 179.338 57.3607 179.661 57.8027C182.045 61.0697 185.147 63.7756 188.954 65.2306C189.736 65.5296 190.46 64.3056 189.611 63.9626Z" fill="#F4F3F2"/>
<path d="M196.549 52.9355C195.142 51.6225 193.352 50.6765 191.738 49.6335C190.282 48.6945 188.845 47.7234 187.331 46.8804C186.912 46.6474 186.442 47.3144 186.818 47.6304C189.489 49.8664 192.658 52.5065 195.793 54.0425C196.441 54.3585 197.075 53.4245 196.549 52.9355Z" fill="#F4F3F2"/>
<path d="M203.129 39.4836C202.066 38.3936 200.48 37.7855 199.149 37.0745C197.634 36.2685 196.125 35.3806 194.509 34.7976C194.131 34.6606 193.715 35.1576 194.059 35.4526C195.35 36.5596 196.859 37.4186 198.295 38.3226C199.582 39.1336 200.892 40.1896 202.371 40.5896C203.039 40.7686 203.671 40.0406 203.129 39.4836Z" fill="#F4F3F2"/>
<path d="M203.757 28.9776C202.861 28.3526 201.963 27.7266 201.066 27.1016C200.473 26.6886 199.688 27.5196 200.244 28.0396C201.038 28.7836 201.831 29.5276 202.625 30.2716C203.343 30.9456 204.04 31.8676 205.008 32.1406C205.766 32.3536 206.456 31.6556 206.084 30.9206C205.637 30.0326 204.555 29.5336 203.757 28.9776Z" fill="#F4F3F2"/>
<path d="M211.134 25.9855C208.889 24.1635 206.12 22.8195 203.639 21.3425C203.032 20.9815 202.162 21.8255 202.804 22.2985C205.173 24.0455 207.522 26.0755 210.123 27.4675C210.947 27.9085 211.895 26.6025 211.134 25.9855Z" fill="#F4F3F2"/>
<path d="M210.195 18.8614C209.152 17.9494 208.116 17.0324 207.076 16.1164C206.553 15.6564 205.817 16.4974 206.302 17.0024C207.241 17.9844 208.183 18.9614 209.119 19.9464C209.944 20.8134 210.735 21.8484 211.753 22.4894C212.387 22.8874 213.392 22.1814 212.901 21.4624C212.198 20.4284 211.129 19.6804 210.195 18.8614Z" fill="#F4F3F2"/>
<path d="M212.102 9.3866C211.375 8.8726 210.372 9.92461 211.084 10.5516C213.093 12.3216 215.226 14.6216 217.678 15.7586C218.305 16.0486 219.161 15.2026 218.696 14.6046C217.041 12.4756 214.282 10.9286 212.102 9.3866Z" fill="#F4F3F2"/>
<path d="M216.507 9.37256C216.134 8.86756 215.284 9.45758 215.629 9.98358C216.163 10.7996 216.692 11.6116 217.268 12.3966C217.664 12.9346 218.571 12.3056 218.202 11.7456C217.668 10.9336 217.087 10.1556 216.507 9.37256Z" fill="#F4F3F2"/>
<path d="M196.512 17.7005C196.683 16.9355 196.672 16.2525 196.591 15.5605C180.894 18.3125 168.454 31.2266 157.517 41.8716C142.744 56.2486 128.273 70.9465 114.192 85.9995C86.0196 116.121 59.4196 147.691 34.3506 180.437C23.6706 194.387 10.1477 210.015 9.16765 228.411C9.14065 228.923 9.94966 228.847 10.0347 228.41C10.1307 227.911 10.2526 227.427 10.3596 226.934C12.7196 230.555 17.5026 227.519 20.3006 225.35C27.9436 219.426 35.5457 213.441 42.9747 207.249C43.4307 206.868 42.9797 206.179 42.4837 206.545C37.7197 210.059 33.0106 213.649 28.3466 217.294C25.1316 219.806 15.4397 230.064 10.5047 226.279C14.2437 209.966 23.8976 196.928 33.8676 183.687C45.5096 168.226 57.5416 153.071 69.9516 138.22C94.5506 108.781 120.487 80.3665 147.87 53.4905C161.992 39.6295 176.126 23.5285 195.651 18.0295C188.631 35.9595 177.172 51.5025 165.695 66.8145C153.553 83.0155 140.968 98.8896 128.018 114.454C102.086 145.622 74.1586 174.778 46.4426 204.327C46.3696 204.405 46.4887 204.483 46.5597 204.417C70.1417 182.911 91.8996 159.154 112.826 135.079C133.733 111.022 153.727 86.1555 172.689 60.5385C181.954 48.0215 190.744 35.0855 197.031 20.8065C196.465 19.9125 196.276 18.7595 196.512 17.7005Z" fill="#F4F3F2"/>
<path d="M158.722 52.5927C133.14 66.7937 112.191 88.0657 98.4898 113.929C97.0168 116.708 100.604 118.534 102.749 116.886C105.284 116.264 106.159 117.924 105.375 121.865C104.686 123.357 103.817 124.732 102.768 125.99C101.273 128.008 99.5028 129.862 97.8748 131.775L86.7468 144.845C79.8228 152.976 72.8828 161.095 65.9858 169.251C63.6808 171.98 58.2278 180.893 54.4078 181.251C47.7748 181.872 53.5448 174.445 54.4948 172.987C55.7558 171.054 57.0328 169.132 58.3008 167.203C64.1418 158.331 70.7648 149.279 75.0098 139.506C75.2428 138.968 74.3678 138.649 74.0298 138.992C67.4888 145.591 62.1728 153.667 56.8068 161.227C53.2698 166.209 45.9788 173.174 45.9048 179.732C45.8518 184.401 49.9378 187.087 54.2768 186.281C60.8088 185.069 65.1668 178.083 69.1508 173.438C81.5578 158.971 94.2118 144.642 106.267 129.88C109.482 125.944 113.377 120.263 109.887 115.253C108.741 113.607 107.198 112.533 105.53 112.065C116.785 92.1436 132.434 75.1737 151.347 62.4227C145.954 69.9987 140.612 77.6107 135.06 85.0797C133.598 87.0457 137.141 88.7137 138.476 86.8787C146.165 76.3097 154.241 66.0537 162.02 55.5627C163.513 53.5547 160.486 51.6137 158.722 52.5927Z" fill="#F4F3F2"/>
<path d="M147.338 58.2885C137.62 68.3725 128.804 79.4865 119.632 90.0705C110.428 100.692 101.202 111.297 92.0171 121.936C83.0861 132.281 74.2061 142.669 65.3001 153.035C56.4251 163.367 46.9461 173.553 38.9931 184.616C38.7631 184.936 39.2922 185.233 39.5402 184.996C49.6192 175.316 58.6122 164.234 67.8332 153.74C77.1092 143.183 86.4171 132.653 95.6531 122.06C104.635 111.761 113.603 101.452 122.579 91.1485C131.6 80.7905 141.184 70.7125 149.639 59.8875C150.65 58.5935 148.354 57.2355 147.338 58.2885Z" fill="#F4F3F2"/>
<path d="M157.907 54.7695C152.451 59.5535 147.937 65.7695 143.152 71.2285C138.295 76.7715 133.438 82.3125 128.582 87.8535C118.612 99.2285 108.635 110.598 98.7333 122.033C89.5093 132.682 80.3262 143.367 71.1732 154.079C61.5532 165.338 50.5493 176.421 42.5433 188.905C42.4413 189.065 42.6803 189.19 42.8023 189.083C53.8433 179.583 63.1692 167.508 72.8462 156.645C82.9072 145.352 92.9302 134.028 102.915 122.666C112.645 111.596 122.293 100.455 131.958 89.3265C136.79 83.7625 141.623 78.1996 146.455 72.6356C151.05 67.3456 156.396 62.2485 160.237 56.3865C161.175 54.9565 159 53.8115 157.907 54.7695Z" fill="#F4F3F2"/>
</g>
</svg>
