<svg width="179" height="170" viewBox="0 0 179 170" fill="none" xmlns="http://www.w3.org/2000/svg">
<g opacity="0.4">
<path d="M124.959 35.8764C111.65 29.0866 64.7513 25.5538 42.1906 43.8168C19.6289 62.0801 17.9883 79.6753 18.7592 89.6935C19.5299 99.7113 28.5155 128.665 69.7287 138.412C110.941 148.158 132.844 136.582 144.891 123.665C156.937 110.747 172.247 60.0013 124.959 35.8764Z" fill="#6130DF"/>
<path d="M153.143 113.725C156.94 107.423 160.092 99.9486 160.447 92.52C160.454 92.3738 160.426 92.2427 160.378 92.1256C160.715 90.3323 160.941 88.5162 161.045 86.6851C162.456 61.8538 143.003 41.5566 120.892 33.6408C108.864 29.3348 95.8289 27.7987 83.0987 28.4812C71.3333 29.1113 59.4892 31.8187 49.1192 37.5364C39.4157 42.8866 31.4976 50.7899 26.7167 60.8303C22.3127 70.0783 20.6307 80.9103 23.2342 90.9149C23.8683 93.3508 24.7555 95.6986 25.863 97.9577C26.1549 98.5532 27.1461 98.2809 26.8426 97.6183C18.0088 78.3273 27.9915 55.5661 44.4719 43.9502C63.3723 30.6293 89.2852 28.9067 111.249 34.068C133.369 39.2665 154.508 55.1098 157.554 78.9808C160.566 102.579 142.23 122.951 120.741 129.532C93.6792 137.82 65.5061 127.751 41.9592 114.295C41.156 113.836 40.4591 115.102 41.2321 115.589C52.9107 122.938 64.9533 128.949 78.3537 132.493C90.3428 135.664 102.928 136.529 115.139 134.127C126.724 131.846 137.598 126.654 146.054 118.331C147.618 116.792 149.092 115.148 150.461 113.419C147.508 117.807 143.959 121.798 139.981 125.277C130.103 133.917 117.863 139.148 104.845 140.604C91.847 142.058 78.4969 140.07 66.1911 135.766C52.8388 131.097 39.6104 123.85 30.2826 113.024C20.9702 102.215 16.2611 86.3156 22.072 72.7133C22.1112 72.6208 21.953 72.5166 21.8992 72.6093C15.5674 83.6352 17.0405 97.2885 23.3436 107.996C31.2103 121.36 45.1062 130.23 59.0916 136.163C84.5018 146.942 115.237 147.657 138.014 130.353C144.007 125.8 149.252 120.181 153.143 113.725Z" fill="#F4F3F2"/>
<path d="M53.5476 36.4328C49.8929 37.1769 46.2739 39.1834 43.04 40.9963C39.6406 42.9009 36.5126 45.1786 33.7141 47.8933C31.0009 50.525 28.6411 53.6079 26.7879 56.8983C24.7208 60.5668 23.7272 64.2258 22.6891 68.2579C22.5757 68.6974 23.2308 69.0525 23.4273 68.5858C24.8874 65.1261 27.22 61.7387 29.3797 58.6752C31.473 55.7066 33.75 52.9388 36.2507 50.3074C38.8027 47.6228 41.5559 45.1027 44.564 42.9348C47.6232 40.7297 50.9928 39.4058 54.2881 37.65C55.0605 37.238 54.1659 36.3067 53.5476 36.4328Z" fill="#F4F3F2"/>
<path d="M19.4377 80.2062C20.1118 75.9163 21.2299 71.7383 22.9556 67.7478C24.6351 63.8652 26.8307 60.2541 29.5199 56.9876C32.3955 53.4947 35.964 51.0625 39.2029 48.0006C39.9942 47.2524 39.1839 45.6396 38.0832 46.1607C34.1719 48.0137 30.7958 51.7631 28.1296 55.0892C25.3292 58.5836 22.9885 62.5109 21.1992 66.6141C19.4154 70.7036 18.1029 75.1084 17.5972 79.5499C17.3443 81.7645 17.2769 83.9655 17.4357 86.1882C17.6068 88.5861 18.2715 90.8464 18.6863 93.2016C18.6896 93.221 18.7214 93.2209 18.7184 93.1993C18.1187 89.0646 18.7921 84.3133 19.4377 80.2062Z" fill="#F4F3F2"/>
<path d="M133.811 44.3968C111.415 30.0318 81.403 28.8795 57.3433 39.5245C50.3843 42.6027 43.9385 46.3381 38.2266 51.3956C38.1953 51.4231 38.2364 51.4738 38.2695 51.45C48.8982 43.8163 60.3642 38.0181 73.2138 35.2492C86.1499 32.4611 99.8169 32.7105 112.583 36.2425C119.884 38.2627 126.838 41.3701 133.499 44.9524C133.849 45.1406 134.142 44.6084 133.811 44.3968Z" fill="#F4F3F2"/>
<path d="M152.654 100.81C160.272 84.7835 154.756 65.9697 143.673 53.0239C143.111 52.3689 142.045 53.0483 142.626 53.7594C152.024 65.2678 157.404 80.4462 153.161 95.1632C148.954 109.753 136.559 120.32 122.511 125.128C107.999 130.094 92.1202 128.911 77.483 125.137C61.8917 121.118 44.5605 114.483 35.0522 100.716C25.4384 86.7971 27.6096 68.1655 37.8699 55.2733C37.9027 55.2317 37.8361 55.1634 37.7966 55.2001C27.3811 64.9423 24.7863 81.5856 30.1177 94.5606C36.8354 110.91 54.521 119.28 70.3555 124.313C85.4367 129.107 101.756 131.528 117.372 127.932C132.07 124.545 146.084 114.632 152.654 100.81Z" fill="#F4F3F2"/>
<path d="M19.7611 86.3074C21.3264 80.2686 23.1481 73.8684 23.6822 67.6417C23.6845 67.6169 23.6446 67.6006 23.6346 67.627C21.5009 73.4858 20.4887 80.0654 19.3815 86.1905C19.3458 86.389 19.7063 86.5213 19.7611 86.3074Z" fill="#F4F3F2"/>
<path d="M20.0384 94.7085C20.8466 90.8586 21.2472 86.8953 21.7954 83.0017C21.8093 82.9046 21.6507 82.8691 21.6325 82.9723C20.9707 86.8472 20.147 90.7435 19.7454 94.656C19.7277 94.8329 20.0005 94.892 20.0384 94.7085Z" fill="#F4F3F2"/>
<path d="M21.3261 97.8291C21.96 94.0069 22.3719 90.1506 22.833 86.3049C22.8433 86.2176 22.7014 86.1849 22.6863 86.2785C22.0728 90.1005 21.4091 93.9188 20.968 97.7649C20.9433 97.9787 21.2881 98.0575 21.3261 97.8291Z" fill="#F4F3F2"/>
<path d="M22.5864 102.107C22.7947 98.9717 22.9468 95.8317 23.1218 92.6935C23.1248 92.6455 23.0434 92.6265 23.0402 92.6794C22.8535 95.8159 22.6425 98.9517 22.4891 102.089C22.4857 102.147 22.582 102.17 22.5864 102.107Z" fill="#F4F3F2"/>
<path d="M24.1763 105.878C24.3969 102.575 24.4674 99.2609 24.5912 95.9536C24.5944 95.8674 24.4509 95.8323 24.4449 95.9275C24.2378 99.2239 23.9779 102.521 23.867 105.822C23.8609 106.005 24.1633 106.079 24.1763 105.878Z" fill="#F4F3F2"/>
<path d="M27.5981 109.42C27.6868 107.47 27.3789 105.437 27.2528 103.488C27.2504 103.446 27.1719 103.436 27.1722 103.484C27.1768 105.429 27.0102 107.467 27.2264 109.4C27.2472 109.593 27.5883 109.641 27.5981 109.42Z" fill="#F4F3F2"/>
<path d="M31.0618 111.719C31.0379 110.765 30.9703 109.821 30.8979 108.87C30.8197 107.849 30.8435 106.756 30.603 105.762C30.5885 105.704 30.5012 105.689 30.4898 105.756C30.3203 106.693 30.4129 107.718 30.4037 108.671C30.3946 109.65 30.3867 110.626 30.4277 111.605C30.4429 111.975 31.0725 112.13 31.0618 111.719Z" fill="#F4F3F2"/>
<path d="M36.5724 119.254C36.6223 116.909 36.4678 114.566 36.4244 112.223C36.4234 112.166 36.3279 112.142 36.3265 112.206C36.2674 114.528 36.0986 116.85 36.1328 119.175C36.1363 119.432 36.566 119.542 36.5724 119.254Z" fill="#F4F3F2"/>
<path d="M40.3206 122.5C40.1243 119.779 39.5161 117.087 39.1556 114.384C39.1413 114.276 38.9647 114.279 38.9789 114.397C39.2971 117.1 39.3733 119.853 39.854 122.533C39.905 122.817 40.3431 122.811 40.3206 122.5Z" fill="#F4F3F2"/>
<path d="M43.0663 124.585C42.9271 121.662 42.616 118.688 42.2044 115.792C42.1926 115.711 42.0431 115.687 42.0421 115.784C42.0121 118.685 42.0934 121.653 42.3384 124.545C42.3704 124.925 43.087 125.01 43.0663 124.585Z" fill="#F4F3F2"/>
<path d="M46.5498 125.95C46.5454 124.609 46.2712 123.255 46.0801 121.929C45.8692 120.47 45.6998 118.996 45.4098 117.551C45.3925 117.464 45.2312 117.432 45.2315 117.541C45.2382 118.865 45.3556 120.188 45.4358 121.509C45.5244 122.962 45.5162 124.481 45.8053 125.909C45.8783 126.27 46.5512 126.408 46.5498 125.95Z" fill="#F4F3F2"/>
<path d="M50.7735 128.037C50.6913 126.636 50.2648 125.226 49.9655 123.856C49.6945 122.615 49.5271 121.297 49.0682 120.112C49.0185 119.984 48.7779 119.971 48.7724 120.134C48.7293 121.382 49.0208 122.674 49.1802 123.912C49.3593 125.301 49.4338 126.759 49.8248 128.106C49.9844 128.654 50.8119 128.69 50.7735 128.037Z" fill="#F4F3F2"/>
<path d="M54.9189 129.594C54.9204 127.451 54.4265 125.223 54.1594 123.097C54.1386 122.932 53.8325 122.887 53.8357 123.079C53.8713 125.196 53.6966 127.448 53.9963 129.544C54.0633 130.01 54.9183 130.147 54.9189 129.594Z" fill="#F4F3F2"/>
<path d="M59.7434 132.829C59.5569 130.365 58.8279 127.878 58.3332 125.459C58.247 125.036 57.5638 125.034 57.6256 125.509C57.942 127.948 58.0637 130.523 58.6819 132.906C58.8434 133.528 59.7982 133.554 59.7434 132.829Z" fill="#F4F3F2"/>
<path d="M64.925 135.144C65.1347 134.198 64.8793 133.07 64.8053 132.106C64.7207 131.01 64.6913 129.894 64.5038 128.811C64.478 128.661 64.2338 128.622 64.2125 128.795C64.0794 129.873 64.1114 130.981 64.0858 132.066C64.0622 133.045 63.8788 134.152 64.1325 135.101C64.2416 135.511 64.822 135.61 64.925 135.144Z" fill="#F4F3F2"/>
<path d="M71.236 137.564C71.4014 136.565 71.2902 135.487 71.2844 134.474C71.2785 133.441 71.2727 132.407 71.2664 131.373C71.2663 131.307 71.1614 131.277 71.1526 131.352C70.9219 133.355 70.4156 135.514 70.5236 137.526C70.5451 137.918 71.1704 137.96 71.236 137.564Z" fill="#F4F3F2"/>
<path d="M77.3138 138.623C77.3367 137.685 76.9704 136.72 76.7497 135.814C76.5288 134.905 76.3681 133.95 76.0402 133.073C76.0004 132.966 75.7895 132.952 75.7914 133.091C75.8027 134.013 76.0026 134.946 76.1276 135.859C76.2537 136.781 76.2727 137.807 76.6292 138.672C76.749 138.962 77.3045 139.007 77.3138 138.623Z" fill="#F4F3F2"/>
<path d="M83.4365 140.304C83.2694 139.208 82.764 138.147 82.3814 137.111C81.9578 135.963 81.5336 134.815 81.1096 133.666C81.0023 133.377 80.4592 133.441 80.5528 133.78C80.8751 134.949 81.1982 136.117 81.5202 137.287C81.814 138.351 82.0249 139.501 82.5237 140.49C82.7473 140.933 83.5263 140.894 83.4365 140.304Z" fill="#F4F3F2"/>
<path d="M88.5465 141.214C88.6065 140.144 88.1161 138.996 87.8409 137.965C87.5277 136.796 87.2321 135.62 86.8725 134.463C86.7722 134.141 86.2403 134.101 86.2933 134.505C86.4492 135.687 86.6736 136.86 86.8785 138.035C87.0631 139.094 87.1024 140.323 87.5974 141.283C87.7914 141.658 88.516 141.768 88.5465 141.214Z" fill="#F4F3F2"/>
<path d="M93.0661 141.168C93.162 140.386 92.8289 139.578 92.6322 138.828C92.4142 137.996 92.1959 137.165 91.9778 136.334C91.8561 135.87 91.0776 135.847 91.1738 136.392C91.321 137.228 91.468 138.064 91.6152 138.9C91.7517 139.676 91.7914 140.541 92.1952 141.23C92.3959 141.573 93.004 141.679 93.0661 141.168Z" fill="#F4F3F2"/>
<path d="M97.2978 142.255C97.3333 141.324 97.0238 140.386 96.8241 139.481C96.6061 138.493 96.3878 137.504 96.1697 136.516C96.0627 136.031 95.2707 136.022 95.3496 136.575C95.4906 137.569 95.6312 138.563 95.7725 139.557C95.9035 140.481 95.9483 141.457 96.3023 142.327C96.4768 142.755 97.2769 142.81 97.2978 142.255Z" fill="#F4F3F2"/>
<path d="M103.061 139.983C102.903 138.201 102.269 136.427 101.732 134.729C101.712 134.666 101.621 134.688 101.624 134.751C101.71 136.501 101.743 138.347 102.209 140.044C102.345 140.537 103.114 140.569 103.061 139.983Z" fill="#F4F3F2"/>
<path d="M108.003 140.909C108.086 139.995 107.795 139.025 107.642 138.126C107.473 137.136 107.317 136.143 107.157 135.151C107.089 134.73 106.421 134.738 106.465 135.2C106.561 136.197 106.662 137.193 106.749 138.19C106.829 139.109 106.811 140.098 107.116 140.973C107.26 141.385 107.96 141.378 108.003 140.909Z" fill="#F4F3F2"/>
<path d="M112.812 141.224C112.961 140.12 112.481 138.875 112.239 137.798L111.408 134.096C111.306 133.641 110.56 133.631 110.635 134.152C110.815 135.393 110.994 136.633 111.173 137.874C111.335 138.988 111.337 140.286 111.862 141.292C112.07 141.693 112.738 141.759 112.812 141.224Z" fill="#F4F3F2"/>
<path d="M116.721 139.65C116.737 138.673 116.367 137.671 116.137 136.725C115.881 135.677 115.626 134.629 115.37 133.581C115.299 133.289 114.829 133.278 114.872 133.616C115.006 134.673 115.141 135.73 115.274 136.786C115.397 137.755 115.414 138.805 115.772 139.718C115.932 140.126 116.713 140.179 116.721 139.65Z" fill="#F4F3F2"/>
<path d="M121.826 138.367C121.504 136.641 120.623 134.93 119.999 133.293C119.868 132.948 119.237 133.017 119.335 133.428C119.736 135.119 119.972 137.005 120.667 138.602C120.922 139.188 121.963 139.097 121.826 138.367Z" fill="#F4F3F2"/>
<path d="M125.689 136.751C125.713 135.874 125.49 134.975 125.331 134.116C125.159 133.187 124.987 132.259 124.815 131.33C124.737 130.91 124.091 130.918 124.124 131.38L124.31 134.04C124.37 134.913 124.367 135.849 124.606 136.692C124.743 137.183 125.67 137.446 125.689 136.751Z" fill="#F4F3F2"/>
<path d="M129.47 131.702C129.37 130.797 129.263 129.892 129.159 128.988C129.12 128.638 128.485 128.547 128.481 128.95C128.469 129.849 128.455 130.748 128.448 131.647C128.442 132.364 128.241 133.302 128.733 133.878C128.904 134.078 129.224 134.142 129.408 133.919C129.872 133.354 129.545 132.378 129.47 131.702Z" fill="#F4F3F2"/>
<path d="M134.175 132.156C134.11 131.395 133.813 130.633 133.603 129.9C133.388 129.15 133.173 128.4 132.957 127.65C132.842 127.249 132.16 127.218 132.249 127.701C132.529 129.211 132.641 130.922 133.201 132.354C133.41 132.887 134.227 132.748 134.175 132.156Z" fill="#F4F3F2"/>
<path d="M137.205 128.965C137.358 128.312 137.305 127.637 137.305 126.969C137.303 126.258 137.302 125.548 137.301 124.838C137.3 124.356 136.524 124.141 136.471 124.69L136.267 126.783C136.203 127.444 136.08 128.118 136.166 128.779C136.225 129.228 137.076 129.516 137.205 128.965Z" fill="#F4F3F2"/>
<path d="M140.902 124.522C141.084 124.127 141.054 123.733 141.063 123.307C141.071 122.881 141.079 122.455 141.087 122.028C141.096 121.555 140.386 121.372 140.29 121.886C140.212 122.299 140.135 122.714 140.058 123.127C139.978 123.553 139.881 123.924 139.974 124.354C140.067 124.789 140.694 124.972 140.902 124.522Z" fill="#F4F3F2"/>
<path d="M144.935 122.809C145.078 122.384 144.973 121.888 144.944 121.446L144.849 120.038C144.822 119.632 144.134 119.559 144.089 119.997C144.044 120.436 143.998 120.875 143.952 121.314C143.908 121.73 143.783 122.213 143.897 122.621C144.014 123.045 144.743 123.377 144.935 122.809Z" fill="#F4F3F2"/>
<path d="M149.451 116.209C149.596 115.751 149.722 115.197 149.694 114.714C149.681 114.501 149.367 114.413 149.237 114.571C149.09 114.749 149.003 114.97 148.903 115.176C148.795 115.396 148.695 115.607 148.621 115.841C148.462 116.341 149.285 116.735 149.451 116.209Z" fill="#F4F3F2"/>
<path d="M153.174 113.624C153.157 113.388 153.141 113.151 153.125 112.914C153.104 112.605 152.741 112.371 152.453 112.392C152.148 112.415 151.928 112.693 151.983 112.997C152.026 113.231 152.069 113.466 152.112 113.7C152.23 114.347 153.221 114.333 153.174 113.624Z" fill="#F4F3F2"/>
<path d="M125.945 90.7605C127.034 83.5458 122.4 77.6105 116.63 73.9305C115.033 72.912 113.348 72.0887 111.617 71.3671C112.367 70.5095 113.119 69.6533 113.868 68.7948C115.947 66.4131 117.978 63.9896 120.003 61.5607C120.1 61.4452 120.199 61.3287 120.297 61.2117C122.048 63.037 123.609 65.0325 124.987 67.1821C127.125 70.5163 128.52 74.1466 130.517 77.5334C130.735 77.9031 131.446 77.8517 131.505 77.3852C132.298 71.1421 128.153 64.394 124.256 59.8205C123.784 59.2659 123.292 58.7289 122.792 58.1995C123.723 57.0057 124.577 55.7599 125.209 54.413C125.539 53.7091 124.626 53.0334 124.002 53.4038C122.772 54.1347 121.651 55.0467 120.585 56.026C118.705 54.3083 116.674 52.76 114.511 51.4229C115.47 50.4488 116.306 49.408 116.805 48.2826C117.043 47.7473 116.458 47.1828 115.919 47.3444C114.413 47.7969 112.987 48.7534 111.648 49.8136C110.477 49.2201 109.276 48.6836 108.046 48.2131C102.021 45.9096 94.1555 44.1876 88.044 47.0878C81.1304 50.3689 81.9801 58.6165 86.4266 63.6111C87.7085 65.0513 89.1483 66.2333 90.6953 67.2368C89.325 68.3877 87.9553 69.5398 86.5829 70.689C81.7491 74.7395 76.8965 78.7679 72.1075 82.87C69.716 84.9185 67.3248 86.9667 64.9342 89.0152C64.9255 89.0228 64.9164 89.0295 64.9077 89.0372C64.2015 87.7654 63.6048 86.4259 63.1513 85.0142C60.5886 77.0369 63.6469 67.9681 70.8571 63.5945C73.4495 62.0222 70.5052 58.5417 68.0941 59.8015C61.6608 63.1617 57.8852 70.3798 57.5276 77.4874C57.2675 82.6538 58.771 87.5561 61.4155 91.8368C59.8739 93.0751 58.3798 94.3804 57.2806 95.863C55.9234 97.6951 58.1629 99.9086 60.0917 98.8731C61.5818 98.0734 62.9572 96.9315 64.2822 95.7335C64.7712 96.3022 65.2761 96.8588 65.8046 97.3941C68.458 100.079 71.5714 102.218 74.9387 103.864C73.995 104.877 73.0462 105.885 72.1034 106.899C69.667 109.518 74.3189 113.235 76.6085 110.694C77.9739 109.179 79.3309 107.656 80.6941 106.138C82.7676 106.78 84.8885 107.27 87.0218 107.604C94.8932 108.835 103.721 108.746 111.337 106.192C118.363 103.836 124.786 98.4411 125.945 90.7605ZM110.274 55.191C110.598 54.8987 110.946 54.6001 111.304 54.2949C113.342 55.4326 115.272 56.7517 117.048 58.2058C117.288 58.4016 117.519 58.6061 117.753 58.8076C117.598 58.9637 117.443 59.1201 117.289 59.2742C115.041 61.5126 112.799 63.7567 110.604 66.0448C109.436 67.2606 108.273 68.479 107.107 69.6961C103.957 68.6317 100.763 67.6714 97.74 66.3478C99.582 64.7241 101.424 63.1005 103.265 61.4754C105.618 59.3995 107.94 57.2896 110.274 55.191ZM87.496 54.748C88.1007 50.9481 92.5078 50.0494 95.726 50.023C99.9975 49.9879 104.225 51.0023 108.151 52.7261C105.906 54.5679 103.655 56.4034 101.421 58.2597C98.949 60.3132 96.4854 62.3769 94.0242 64.4439C93.6676 64.2282 93.3133 64.007 92.9649 63.773C90.1384 61.8737 86.8985 58.4986 87.496 54.748ZM67.5 92.8027C69.8753 90.7533 72.2517 88.7044 74.627 86.6551C79.4952 82.4566 84.3065 78.1926 89.1282 73.9411C90.896 72.3819 92.6641 70.8228 94.4322 69.2646C97.5393 70.6853 100.888 71.6918 104.176 72.758C102.04 74.9958 99.9107 77.2395 97.7904 79.4913C91.1674 86.5259 84.5563 93.5709 77.9615 100.63C73.961 98.8125 70.2983 96.1574 67.5 92.8027ZM105.325 103.309C98.3949 104.586 90.7385 104.467 83.8093 102.666C89.7582 96.0282 95.6955 89.3793 101.622 82.7213C104.073 79.9679 106.507 77.201 108.937 74.4299C109.165 74.5197 109.394 74.6094 109.62 74.7032C115.653 77.1862 122.657 82.0713 121.693 89.5138C120.634 97.6913 112.666 101.957 105.325 103.309Z" fill="#F4F3F2"/>
</g>
</svg>
