<svg width="17" height="23" viewBox="0 0 17 23" fill="none" xmlns="http://www.w3.org/2000/svg">
<path d="M1.22428 -0.0272802C1.18687 -0.0205246 1.14994 -0.0113646 1.11371 0.000142861C0.967203 0.0348291 0.831977 0.106332 0.72083 0.207881C0.609682 0.309431 0.526291 0.437668 0.478552 0.580451L0.422821 0.553027V0.719335C0.417654 0.774355 0.417654 0.829738 0.422821 0.884758V22.1155C0.422821 22.3501 0.516021 22.5751 0.681919 22.741C0.847816 22.9069 1.07282 23.0001 1.30744 23.0001C1.54205 23.0001 1.76706 22.9069 1.93295 22.741C2.09885 22.5751 2.19205 22.3501 2.19205 22.1155V14.5689L16.6776 7.96168L2.19205 1.35449V0.884758C2.19652 0.758964 2.17409 0.633665 2.12626 0.517232C2.07843 0.4008 2.0063 0.295915 1.9147 0.209586C1.82309 0.123257 1.71412 0.0574708 1.59506 0.0166236C1.476 -0.0242237 1.34959 -0.0391916 1.22428 -0.0272802Z" fill="#6828E8"/>
</svg>
