<svg width="17" height="21" viewBox="0 0 17 21" fill="none" xmlns="http://www.w3.org/2000/svg">
<path d="M0.5 2.99966C0.500019 2.86668 0.526561 2.73503 0.578073 2.61244C0.629585 2.48984 0.705033 2.37874 0.8 2.28566C1.88984 1.21729 3.34585 0.604388 4.87166 0.571691C6.39746 0.538994 7.87839 1.08896 9.013 2.10966L9.364 2.43766C10.0934 3.07675 11.0302 3.42908 12 3.42908C12.9698 3.42908 13.9066 3.07675 14.636 2.43766L14.885 2.21066C15.495 1.72766 16.412 2.11366 16.495 2.88666L16.5 2.99966V11.9997C16.5 12.1326 16.4734 12.2643 16.4219 12.3869C16.3704 12.5095 16.295 12.6206 16.2 12.7137C15.1102 13.782 13.6542 14.3949 12.1283 14.4276C10.6025 14.4603 9.12161 13.9103 7.987 12.8897L7.636 12.5617C6.92953 11.9427 6.02777 11.592 5.08872 11.5712C4.14967 11.5503 3.23323 11.8606 2.5 12.4477V29.9997C2.49972 30.2545 2.40212 30.4997 2.22715 30.685C2.05218 30.8704 1.81305 30.9819 1.55861 30.9968C1.30416 31.0118 1.05362 30.929 0.858168 30.7654C0.662715 30.6018 0.537104 30.3698 0.507 30.1167L0.5 29.9997V2.99966Z" fill="#FF4B00"/>
</svg>
