<svg width="77" height="112" viewBox="0 0 77 112" fill="none" xmlns="http://www.w3.org/2000/svg">
<g opacity="0.4">
<path d="M27.079 0.767645C16.6076 2.99826 3.12638 14.0749 0.846174 29.6614C-1.43571 45.2497 10.3503 82.1288 16.8143 90.1133C23.2784 98.0978 35.4442 113.685 59.3969 110.643C59.3969 110.643 76.8855 109.884 75.745 79.4678C74.6036 49.052 69.2809 36.5062 65.0995 26.2407C60.9182 15.9752 50.2711 -4.17518 27.079 0.767645Z" fill="#0F0935"/>
<path d="M48.1807 111.521C49.0262 111.711 49.8767 111.87 50.7332 112C50.9819 111.971 51.2299 111.94 51.4787 111.912C51.4787 111.912 51.4173 111.905 51.3862 111.9C51.4308 111.904 51.477 111.904 51.5232 111.908C54.4598 111.585 57.4158 111.4 60.37 111.197C63.0797 110.402 65.7138 109.325 68.2713 108.035C72.7544 103.155 75.2767 96.5252 76.1087 89.9519C76.6391 85.7638 76.5878 81.5371 76.2726 77.3331C76.2718 77.2322 76.2701 77.128 76.2684 77.028C76.0272 62.6466 73.5655 47.8568 68.7437 34.2849C64.6531 22.7721 58.8286 10.4003 47.6596 4.23628C39.8314 -0.0854287 30.1231 -0.928416 21.6049 1.80816C21.4562 1.85523 21.3074 1.90397 21.1603 1.95524C19.0154 2.67888 16.9504 3.62862 15.0139 4.81368C14.4844 5.13811 13.9709 5.4827 13.4649 5.8357C11.3486 7.27291 9.45754 9.00429 7.81442 10.9693C7.73625 11.0601 7.65811 11.15 7.58162 11.2408C7.58162 11.2408 7.56735 11.2576 7.56146 11.2668C2.58754 17.2132 -0.144014 24.9413 0.0484541 32.7182C-0.212933 38.6721 0.607356 44.7025 1.9269 50.5169C2.44547 52.8081 3.02204 55.0975 3.64483 57.3794C6.44277 70.9278 10.7284 84.0375 19.9366 94.904C27.189 103.463 37.2999 109.767 48.1807 111.521ZM45.413 4.88513C49.7599 6.98379 53.3193 10.0549 56.2896 13.6756C53.3899 10.5709 50.0331 7.85368 46.1358 5.66004C43.8909 4.39681 41.4888 3.38573 39.0018 2.64779C41.214 3.15712 43.3689 3.9001 45.413 4.88513ZM19.7643 91.8657C19.2146 91.1614 18.6893 90.4394 18.1707 89.7149C17.2101 88.3315 16.2965 86.9119 15.435 85.4629C10.5191 77.1834 7.17481 68.0652 4.50967 58.8443C4.36511 58.3434 4.22308 57.8383 4.0802 57.334C2.95313 52.8291 2.03951 48.2897 1.28813 43.799C1.28309 43.762 1.21669 43.762 1.22257 43.8015C1.59322 46.1086 1.97313 48.4199 2.37991 50.7287C1.31672 46.1011 0.551875 41.3911 0.403952 36.6727C0.493883 37.2492 0.594759 37.8241 0.718309 38.3973C0.771258 38.6385 1.19485 38.6494 1.15619 38.3805C-0.270091 28.5302 2.98592 18.1755 9.8467 10.9878C4.87279 18.4613 4.22979 28.1335 4.94083 36.8399C6.49739 55.8817 13.5818 74.3771 25.1072 89.5981C25.3316 89.8939 25.8737 89.625 25.6341 89.2896C15.5754 75.1386 8.81459 58.7561 6.45455 41.5272C5.16526 32.1165 4.70974 21.6938 9.30797 13.0512C10.1459 11.4778 11.157 10.0087 12.3126 8.67819C12.4421 8.56892 12.569 8.45881 12.6993 8.35292C18.4657 3.68409 25.9653 1.52407 33.3371 1.87371C35.9703 2.19813 38.5631 2.82429 41.0257 3.73284C49.0329 6.68626 55.1919 12.1157 59.9044 18.7756C62.551 23.0688 64.6245 27.7737 66.3517 32.3837C70.8499 44.3924 73.7856 56.7936 74.6631 69.6007C75.533 82.2767 76.7819 101.494 64.1765 108.823C61.7316 109.263 59.2993 109.619 56.7417 109.539C52.8612 109.42 49.0035 108.615 45.4248 107.105C39.1162 104.44 33.6001 99.6316 29.9256 93.8652C29.9113 93.8425 29.8642 93.8584 29.8785 93.8845C33.4262 100.447 38.8178 105.482 45.7862 108.279C48.2319 109.262 50.9879 110.004 53.827 110.402C40.5265 110.159 28.0295 102.478 19.7643 91.8657Z" fill="#F4F3F2"/>
<path d="M51.4186 107.022C43.5711 104.833 36.3532 99.7409 32.7433 92.2598C32.7265 92.2253 32.6627 92.2396 32.6803 92.2775C36.3137 100.012 42.724 105.911 51.3203 107.493C51.6582 107.555 51.7431 107.113 51.4186 107.022Z" fill="#F4F3F2"/>
<path d="M72.8031 64.4452C71.6399 53.5627 69.3723 41.9482 64.516 32.0534C64.3547 31.7239 63.7688 31.834 63.9025 32.2299C67.4745 42.8828 70.9263 53.2249 72.1946 64.4687C73.4427 75.5226 73.1376 86.811 71.4029 97.7968C71.3987 97.8212 71.439 97.8288 71.4424 97.8061C73.5242 86.7732 73.9974 75.6226 72.8031 64.4452Z" fill="#F4F3F2"/>
<path d="M46.3263 7.20989C46.0649 7.06365 45.7404 7.43767 46.0136 7.62761C53.1131 12.5662 58.6955 18.8715 62.007 26.9585C62.0162 26.9803 62.0515 26.9711 62.0439 26.9484C59.4007 18.7689 53.9199 11.4593 46.3263 7.20989Z" fill="#F4F3F2"/>
<path d="M44.6486 6.08113C31.2599 -3.49437 11.3919 6.5333 9.80597 22.3897C9.80428 22.4124 9.84042 22.4216 9.84546 22.3972C11.4852 15.1381 15.8531 8.79081 22.6089 5.43901C29.8453 1.85019 37.3491 3.06131 44.3359 6.49884C44.5982 6.62828 44.9243 6.27781 44.6486 6.08113Z" fill="#F4F3F2"/>
<path d="M32.1196 91.6714C18.8822 71.5647 11.0255 49.3536 9.22686 25.2967C9.22434 25.274 9.18567 25.274 9.18567 25.2975C9.77232 48.8308 17.6534 72.9305 31.528 92.0168C31.7742 92.3564 32.3751 92.0572 32.1196 91.6714Z" fill="#F4F3F2"/>
<path d="M7.59929 15.1037C6.56131 15.587 5.3737 15.9912 4.43741 16.6535C4.32983 16.7291 4.42311 16.893 4.54498 16.8493C5.62751 16.4585 6.642 15.7281 7.63628 15.1541C7.67494 15.1331 7.63375 15.0877 7.59929 15.1037Z" fill="#F4F3F2"/>
<path d="M5.57002 20.7734C4.4026 21.629 3.00149 22.2485 1.93409 23.236C1.75759 23.3991 2.03243 23.6227 2.20556 23.5226C3.45367 22.8049 4.4513 21.6711 5.60695 20.8247C5.64141 20.7995 5.60112 20.7507 5.57002 20.7734Z" fill="#F4F3F2"/>
<path d="M4.92199 27.2393C4.28912 27.6099 3.71001 28.0411 3.11916 28.4731C2.59387 28.8572 1.97866 29.2303 1.55338 29.7245C1.32645 29.9884 1.69038 30.328 1.9669 30.1591C2.52665 29.8195 2.99476 29.2892 3.46122 28.8345C3.97979 28.3285 4.49504 27.8352 4.95646 27.2762C4.97579 27.2527 4.94637 27.225 4.92199 27.2393Z" fill="#F4F3F2"/>
<path d="M4.60443 34.4345C3.9539 34.8791 3.30253 35.3237 2.65032 35.7683C2.06619 36.1667 1.37954 36.5273 0.902994 37.0534C0.681109 37.2997 1.02986 37.588 1.28117 37.4518C1.9048 37.1173 2.41916 36.5475 2.94698 36.0785C3.52859 35.5624 4.11188 35.0447 4.69348 34.5278C4.74895 34.4782 4.6599 34.3967 4.60443 34.4345Z" fill="#F4F3F2"/>
<path d="M5.60281 41.3978C4.84554 41.6424 4.19333 42.2644 3.56549 42.7392C2.92505 43.2234 2.12914 43.6781 1.6299 44.3135C1.40466 44.5992 1.75932 44.9051 2.05096 44.7581C2.77965 44.3899 3.38309 43.7243 3.99748 43.1923C4.57404 42.6922 5.33638 42.1837 5.70115 41.5012C5.73309 41.4416 5.66164 41.3794 5.60281 41.3978Z" fill="#F4F3F2"/>
<path d="M6.67029 51.3835C6.05758 51.6592 5.50961 51.9996 4.94481 52.361C4.43381 52.6879 3.88663 52.9872 3.42941 53.3897C3.17811 53.6116 3.5681 53.9218 3.80763 53.7881C4.33713 53.4948 4.7994 53.0779 5.27595 52.709C5.792 52.3106 6.28454 51.924 6.73251 51.4482C6.77033 51.4079 6.71063 51.3659 6.67029 51.3835Z" fill="#F4F3F2"/>
<path d="M9.08084 58.3317C7.54446 59.4436 5.83323 60.7262 4.59269 62.1634C4.40022 62.3878 4.72044 62.7131 4.95409 62.5441C6.48795 61.4255 7.91929 59.8462 9.15143 58.4056C9.18841 58.3619 9.12707 58.2981 9.08084 58.3317Z" fill="#F4F3F2"/>
<path d="M13.8265 68.1734C13.1197 68.4617 12.4339 68.7811 11.7472 69.1122C11.0706 69.4392 10.3033 69.7376 9.71998 70.2158C9.48549 70.4082 9.8099 70.731 10.0402 70.6511C10.7126 70.4217 11.3354 69.967 11.9355 69.5905C12.602 69.1744 13.2567 68.7542 13.8921 68.2928C13.956 68.2465 13.9005 68.1432 13.8265 68.1734Z" fill="#F4F3F2"/>
<path d="M16.5073 77.0516C14.5675 77.0348 12.4915 77.7214 10.6072 78.1358C10.5467 78.1484 10.5727 78.2358 10.629 78.2291C12.552 78.0383 14.7574 78.0551 16.5981 77.4298C16.8351 77.3491 16.7326 77.0541 16.5073 77.0516Z" fill="#F4F3F2"/>
<path d="M21.1205 85.4193C19.2143 85.5655 17.2014 86.0127 15.3869 86.5918C15.291 86.6229 15.3305 86.7498 15.423 86.7456C17.3292 86.6657 19.39 86.4077 21.2323 85.8908C21.5265 85.8084 21.4038 85.3974 21.1205 85.4193Z" fill="#F4F3F2"/>
<path d="M28.4853 92.6952C27.4818 92.7608 26.4917 93.0306 25.5193 93.2735C24.5964 93.5038 23.5728 93.6719 22.7432 94.1459C22.7239 94.156 22.7314 94.1879 22.7314 94.1879C23.7139 94.2787 24.715 94.0383 25.663 93.8795C26.6497 93.713 27.6717 93.5786 28.6147 93.2373C28.9383 93.1205 28.8223 92.6717 28.4853 92.6952Z" fill="#F4F3F2"/>
<path d="M65.2959 61.3448C63.383 55.7102 60.2623 50.4186 55.1859 47.1114C49.3437 43.3074 44.2135 44.2008 37.7923 45.5473C32.0014 46.7634 28.1117 44.7328 26.3635 39.1092C25.091 35.017 25.5499 30.0741 27.5149 26.2794C32.5796 16.4946 46.4953 16.3232 49.5715 27.6553C49.737 28.2663 50.8389 28.1705 50.812 27.5057C50.3498 16.066 36.1231 13.3697 28.4269 19.775C20.6399 26.2567 19.1211 42.1988 28.5807 48.0838C34.501 51.7659 40.0582 47.4459 46.2239 47.7543C56.0019 48.2452 60.7775 58.5905 62.7325 66.8045C63.8385 71.4498 64.5571 76.6868 62.6097 81.227C60.3253 86.5506 55.0068 89.1619 49.5194 86.7346C41.2954 83.0962 39.4413 73.424 37.4401 65.6127C36.951 63.6989 33.8925 64.4596 34.2034 66.4145C35.9289 77.2717 41.6946 93.1264 55.7406 91.0832C69.8521 89.0291 68.6729 71.2977 65.2959 61.3448Z" fill="#F4F3F2"/>
<path d="M54.3984 93.4181C53.5512 87.0271 50.7112 80.679 48.7151 74.5587L42.1107 54.3167C39.9095 47.5661 37.7032 40.8188 35.4137 34.0975C33.3806 28.1293 31.7586 21.0954 27.9252 15.9979C27.7814 15.8054 27.4167 15.8508 27.4091 16.1231C27.236 22.4124 30.1062 29.0177 31.9535 34.9556C34.0623 41.7307 36.2534 48.478 38.4504 55.2245C40.6465 61.9726 42.8435 68.7225 45.0397 75.4706C47.0358 81.6027 48.4898 88.4299 51.5584 94.1106C52.1644 95.2335 54.5875 94.8502 54.3984 93.4181Z" fill="#F4F3F2"/>
<path d="M64.1742 92.3237C59.9013 78.8442 55.1635 65.5025 50.6048 52.118C46.2688 39.3907 42.3396 26.0423 36.1537 14.0648C36.0537 13.8714 35.7537 14.0042 35.7873 14.2034C38.0725 27.6998 43.1237 40.9414 47.3975 53.9049C51.7226 67.0246 55.8872 80.2133 60.4913 93.2381C61.22 95.2948 64.8752 94.535 64.1742 92.3237Z" fill="#F4F3F2"/>
</g>
</svg>
