<svg width="222" height="99" viewBox="0 0 222 99" fill="none" xmlns="http://www.w3.org/2000/svg">
<g opacity="0.4">
<path d="M218.605 9.83545L207.978 3.46045C207.978 3.46045 180.353 14.0854 159.103 33.2104C137.853 52.3354 39.0379 167.089 25.2239 180.902C11.4109 194.715 -0.276148 226.59 2.91085 232.965C6.09885 239.342 18.8489 244.654 18.8489 244.654C18.8489 244.654 100.664 186.214 141.04 136.275C181.416 86.3374 213.293 27.8984 218.605 9.83545Z" fill="#FCC047"/>
<path d="M209.953 2.88444C206.34 -1.01756 198.153 3.22441 192.462 6.39341C172.267 17.6454 155.472 34.0564 139.649 49.9194C107.87 81.7744 78.3127 115.099 51.4377 149.331C37.9167 166.554 25.0717 184.02 12.9647 201.67C8.01473 208.886 1.75072 216.931 0.398719 224.378C0.267719 225.104 0.19472 225.825 0.17472 226.531C0.12272 226.442 -0.0252698 226.507 0.0037302 226.61C0.0567302 226.798 0.119727 226.985 0.175727 227.173C0.233727 229.801 1.11372 232.162 2.91672 233.708C5.55672 238.396 9.50173 242.246 15.0117 243.707C16.2037 244.024 17.2477 242.477 16.0027 241.795C12.6007 239.934 9.32273 237.906 6.52973 235.386C6.90173 235.456 7.28774 235.51 7.69474 235.539C14.4947 236.034 22.5077 230.661 28.5437 225.889C38.3047 218.175 47.5757 209.723 56.5947 201.358C75.9727 183.381 93.9787 164.411 110.58 144.833C111.458 143.796 109.827 143.591 109.027 144.548C95.8967 160.272 81.7767 175.507 66.6877 190.179C59.3657 197.299 51.8367 204.281 44.1207 211.104C37.0307 217.374 29.7087 224.313 21.6177 229.479C17.4587 232.133 12.5717 234.458 8.46973 234.029C3.32073 233.492 1.28174 229.27 1.95274 224.543C3.06274 216.727 10.0827 207.985 15.3097 200.371C25.8417 185.029 36.9267 169.825 48.5327 154.799C72.0987 124.285 97.7997 94.5364 125.424 65.8724C139.676 51.0854 154.257 35.8354 170.645 22.6344C178.898 15.9864 188.196 9.31443 197.731 4.90443C200.856 3.45743 205.493 1.65542 207.65 3.38142C209.655 4.98542 209.818 7.64843 208.844 10.5214C207.445 14.6474 204.274 18.8584 201.667 22.8784C178.138 59.1364 152.747 94.9624 125.104 130.072C124.874 130.365 125.321 130.418 125.531 130.151C153.766 94.2884 180.525 57.7754 204.619 20.7344C208.312 15.0554 213.881 7.12944 209.953 2.88444Z" fill="#F4F3F2"/>
<path d="M221.559 11.5355C217.637 7.27948 212.821 2.6075 207.603 0.0125037C207.489 -0.0434963 207.301 0.0994859 207.362 0.225486C209.635 4.93749 213.662 9.36449 217.515 13.0625C216.637 12.9055 215.657 13.2455 215.204 14.2915C183.686 87.0495 134.267 151.236 73.4128 201.895C56.2738 216.163 37.7678 228.522 20.1698 242.158C20.0598 242.243 20.1318 242.446 20.2778 242.374C37.9498 233.761 54.0038 221.913 69.4158 209.77C84.9968 197.492 99.7848 184.212 113.778 170.154C141.829 141.971 166.501 110.392 187.231 76.4665C199.144 56.9725 209.718 36.7105 218.995 15.8345C219.227 15.3105 219.25 14.8395 219.138 14.4365C220.643 14.9865 222.814 12.8935 221.559 11.5355Z" fill="#F4F3F2"/>
<path d="M208.065 3.14933C188.394 6.70933 172.083 19.3083 157.815 32.6263C141.056 48.2683 125.219 65.0213 109.548 81.7443C93.5006 98.8653 77.8496 116.357 62.6086 134.199C47.7806 151.559 32.7576 169.036 19.4176 187.581C13.0686 196.406 7.26662 205.721 3.47362 215.958C1.38862 221.589 -0.488366 229.022 1.66463 234.862C1.64463 235.143 1.67562 235.431 1.82162 235.714C2.10962 236.27 2.46463 236.787 2.86263 237.279C3.47363 238.235 4.22862 239.127 5.15862 239.927C5.24662 240.002 5.36261 239.893 5.34261 239.799C5.32461 239.709 5.31063 239.619 5.29363 239.528C8.76463 241.99 13.6246 243.165 17.3526 243.074C17.3526 243.074 17.5296 242.882 17.4086 242.83C14.8326 241.746 12.3096 240.507 10.0606 238.828C8.07563 237.348 6.52361 235.38 4.60961 233.874C3.85461 216.438 15.3886 200.279 25.5636 186.819C38.2776 170 51.8916 153.785 65.5426 137.726C93.0186 105.404 121.826 74.1953 151.945 44.3183C168.101 28.2923 185.398 12.6293 208.205 7.45533C210.834 6.85833 211.081 2.60333 208.065 3.14933Z" fill="#F4F3F2"/>
<path d="M168.743 97.3823C164.281 95.1633 160.842 92.6093 157.583 88.8323C157.242 88.4373 156.533 88.9023 156.839 89.3503C159.562 93.3413 163.652 96.7333 168.149 98.5303C168.856 98.8133 169.483 97.7513 168.743 97.3823Z" fill="#F4F3F2"/>
<path d="M174.623 89.0464C171.231 87.3844 168.344 86.0495 165.835 83.0815C165.41 82.5765 164.484 83.2035 164.901 83.7325C167.174 86.6285 170.48 89.4805 174.191 90.2145C174.855 90.3455 175.263 89.3604 174.623 89.0464Z" fill="#F4F3F2"/>
<path d="M182.772 77.3377C178.815 75.3957 175.949 73.6697 173.205 70.1137C172.906 69.7247 172.324 70.1637 172.539 70.5787C174.423 74.2277 178.281 77.6077 182.4 78.3377C182.969 78.4387 183.324 77.6077 182.772 77.3377Z" fill="#F4F3F2"/>
<path d="M189.611 63.9626C185.943 62.4796 182.844 60.4476 180.423 57.2706C180.094 56.8396 179.338 57.3607 179.661 57.8027C182.045 61.0697 185.147 63.7756 188.954 65.2306C189.736 65.5296 190.46 64.3056 189.611 63.9626Z" fill="#F4F3F2"/>
<path d="M196.55 52.9355C195.143 51.6225 193.353 50.6765 191.739 49.6335C190.283 48.6945 188.846 47.7234 187.332 46.8804C186.913 46.6474 186.442 47.3144 186.818 47.6304C189.489 49.8664 192.659 52.5065 195.794 54.0425C196.442 54.3585 197.076 53.4245 196.55 52.9355Z" fill="#F4F3F2"/>
<path d="M203.129 39.4833C202.066 38.3933 200.48 37.7853 199.149 37.0743C197.634 36.2683 196.125 35.3803 194.509 34.7973C194.131 34.6603 193.715 35.1573 194.059 35.4523C195.35 36.5593 196.859 37.4183 198.295 38.3223C199.582 39.1333 200.892 40.1893 202.371 40.5893C203.039 40.7683 203.671 40.0403 203.129 39.4833Z" fill="#F4F3F2"/>
<path d="M203.757 28.9776C202.861 28.3526 201.963 27.7266 201.066 27.1016C200.473 26.6886 199.688 27.5196 200.244 28.0396C201.038 28.7836 201.831 29.5276 202.625 30.2716C203.343 30.9456 204.04 31.8676 205.008 32.1406C205.766 32.3536 206.456 31.6556 206.084 30.9206C205.637 30.0326 204.555 29.5336 203.757 28.9776Z" fill="#F4F3F2"/>
<path d="M211.134 25.9853C208.889 24.1633 206.12 22.8193 203.639 21.3423C203.032 20.9813 202.162 21.8253 202.804 22.2983C205.173 24.0453 207.522 26.0753 210.123 27.4673C210.947 27.9083 211.895 26.6023 211.134 25.9853Z" fill="#F4F3F2"/>
<path d="M210.195 18.8614C209.152 17.9494 208.116 17.0324 207.076 16.1164C206.553 15.6564 205.817 16.4974 206.302 17.0024C207.241 17.9844 208.183 18.9614 209.119 19.9464C209.944 20.8134 210.735 21.8484 211.753 22.4894C212.387 22.8874 213.392 22.1814 212.901 21.4624C212.198 20.4284 211.129 19.6804 210.195 18.8614Z" fill="#F4F3F2"/>
<path d="M212.102 9.3866C211.375 8.8726 210.372 9.92461 211.084 10.5516C213.093 12.3216 215.226 14.6216 217.678 15.7586C218.305 16.0486 219.161 15.2026 218.696 14.6046C217.041 12.4756 214.282 10.9286 212.102 9.3866Z" fill="#F4F3F2"/>
<path d="M216.507 9.37256C216.134 8.86756 215.284 9.45758 215.629 9.98358C216.163 10.7996 216.692 11.6116 217.268 12.3966C217.664 12.9346 218.571 12.3056 218.202 11.7456C217.668 10.9336 217.087 10.1556 216.507 9.37256Z" fill="#F4F3F2"/>
<path d="M196.512 17.7005C196.683 16.9355 196.672 16.2525 196.591 15.5605C180.894 18.3125 168.454 31.2266 157.517 41.8716C142.744 56.2486 128.273 70.9465 114.192 85.9995C86.0196 116.121 59.4196 147.691 34.3506 180.437C23.6706 194.387 10.1477 210.015 9.16765 228.411C9.14065 228.923 9.94966 228.847 10.0347 228.41C10.1307 227.911 10.2526 227.427 10.3596 226.934C12.7196 230.555 17.5026 227.519 20.3006 225.35C27.9436 219.426 35.5457 213.441 42.9747 207.249C43.4307 206.868 42.9797 206.179 42.4837 206.545C37.7197 210.059 33.0106 213.649 28.3466 217.294C25.1316 219.806 15.4397 230.064 10.5047 226.279C14.2437 209.966 23.8976 196.928 33.8676 183.687C45.5096 168.226 57.5416 153.071 69.9516 138.22C94.5507 108.781 120.487 80.3665 147.87 53.4905C161.992 39.6295 176.126 23.5285 195.651 18.0295C188.631 35.9595 177.172 51.5025 165.695 66.8145C153.553 83.0155 140.968 98.8895 128.018 114.454C102.086 145.622 74.1586 174.778 46.4426 204.327C46.3696 204.405 46.4887 204.483 46.5597 204.417C70.1417 182.911 91.8996 159.154 112.826 135.079C133.733 111.022 153.727 86.1555 172.689 60.5385C181.954 48.0215 190.744 35.0855 197.031 20.8065C196.465 19.9125 196.276 18.7595 196.512 17.7005Z" fill="#F4F3F2"/>
<path d="M158.722 52.5927C133.14 66.7937 112.191 88.0657 98.4898 113.929C97.0168 116.708 100.604 118.534 102.749 116.886C105.284 116.264 106.159 117.924 105.375 121.865C104.686 123.357 103.817 124.732 102.768 125.99C101.273 128.008 99.5028 129.862 97.8748 131.775L86.7468 144.845C79.8228 152.976 72.8828 161.095 65.9858 169.251C63.6808 171.98 58.2278 180.893 54.4078 181.251C47.7748 181.872 53.5448 174.445 54.4948 172.987C55.7558 171.054 57.0328 169.132 58.3008 167.203C64.1418 158.331 70.7648 149.279 75.0098 139.506C75.2428 138.968 74.3678 138.649 74.0298 138.992C67.4888 145.591 62.1728 153.667 56.8068 161.227C53.2698 166.209 45.9788 173.174 45.9048 179.732C45.8518 184.401 49.9378 187.087 54.2768 186.281C60.8088 185.069 65.1668 178.083 69.1508 173.438C81.5578 158.971 94.2118 144.642 106.267 129.88C109.482 125.944 113.377 120.263 109.887 115.253C108.741 113.607 107.198 112.533 105.53 112.065C116.785 92.1436 132.434 75.1737 151.347 62.4227C145.954 69.9987 140.612 77.6107 135.06 85.0797C133.598 87.0457 137.141 88.7137 138.476 86.8787C146.165 76.3097 154.241 66.0537 162.02 55.5627C163.513 53.5547 160.486 51.6137 158.722 52.5927Z" fill="#F4F3F2"/>
<path d="M147.338 58.2885C137.62 68.3725 128.804 79.4865 119.632 90.0705C110.428 100.692 101.202 111.297 92.0171 121.936C83.0861 132.281 74.2061 142.669 65.3001 153.035C56.4251 163.367 46.9461 173.553 38.9931 184.616C38.7631 184.936 39.2922 185.233 39.5402 184.996C49.6192 175.316 58.6122 164.234 67.8332 153.74C77.1092 143.183 86.4171 132.653 95.6531 122.06C104.635 111.761 113.603 101.452 122.579 91.1485C131.6 80.7905 141.184 70.7125 149.639 59.8875C150.65 58.5935 148.354 57.2355 147.338 58.2885Z" fill="#F4F3F2"/>
<path d="M157.907 54.7698C152.451 59.5538 147.937 65.7698 143.152 71.2288C138.295 76.7718 133.438 82.3128 128.582 87.8538C118.612 99.2288 108.635 110.598 98.7333 122.033C89.5093 132.682 80.3262 143.367 71.1732 154.079C61.5532 165.338 50.5493 176.421 42.5433 188.905C42.4413 189.065 42.6803 189.19 42.8023 189.083C53.8433 179.583 63.1692 167.508 72.8462 156.645C82.9072 145.352 92.9302 134.028 102.915 122.666C112.645 111.596 122.293 100.455 131.958 89.3268C136.79 83.7628 141.623 78.1998 146.455 72.6358C151.05 67.3458 156.396 62.2488 160.237 56.3868C161.175 54.9568 159 53.8118 157.907 54.7698Z" fill="#F4F3F2"/>
</g>
</svg>
