<svg width="144" height="127" viewBox="0 0 144 127" fill="none" xmlns="http://www.w3.org/2000/svg">
<g opacity="0.4">
<path d="M42.5902 30.3041C36.1265 40.1772 27.8984 77.1365 37.7941 112.899C37.7941 112.899 42.5074 126.663 49.7716 134.88C57.0363 143.097 69.1603 155.757 87.4125 143.314C105.666 130.87 112.898 102.888 112.996 89.3543C113.093 75.8202 113.913 49.9727 93.8685 20.9553L78.2548 12.0123C78.2548 12.0123 59.2971 4.78283 42.5902 30.3041Z" fill="#6130DF"/>
<path d="M95.9593 117.358C95.8992 117.331 95.8866 117.439 95.952 117.468C98.6067 118.649 101.272 120.067 103.924 121.168C104.148 121.261 104.204 120.872 103.952 120.753C101.281 119.487 98.6257 118.541 95.9593 117.358Z" fill="white"/>
<path d="M99.7115 111.707C102.071 112.54 104.446 113.453 106.796 114.201C107.121 114.304 107.038 113.688 106.702 113.581C104.361 112.835 102.035 112.252 99.706 111.593C99.6542 111.578 99.6534 111.686 99.7115 111.707Z" fill="white"/>
<path d="M104.663 69.8998C104.514 69.8207 104.487 70.0715 104.646 70.1687C106.694 71.4281 108.822 72.8624 110.879 73.8543C111.108 73.9651 111.251 73.5638 110.971 73.3793C108.905 72.0126 106.745 70.9962 104.663 69.8998Z" fill="white"/>
<path d="M105.153 49.0975C104.619 48.9233 104.053 48.6933 103.552 48.6953C103.488 48.696 103.487 48.8312 103.562 48.8853C104.091 49.2624 104.648 49.4278 105.178 49.634C105.736 49.8514 106.29 50.0658 106.839 50.2076C107.065 50.2657 107.071 49.8281 106.816 49.712C106.257 49.4571 105.706 49.2778 105.153 49.0975Z" fill="white"/>
<path d="M99.3014 28.9359C99.2585 28.911 99.2122 28.8905 99.169 28.8649C98.0902 26.9646 96.95 25.0905 95.7312 23.2551C95.7506 23.126 95.7104 22.9618 95.5725 22.7991C95.3612 22.549 95.1455 22.3053 94.9276 22.0653C94.8119 21.8964 94.7008 21.7234 94.5839 21.5551C94.452 21.3656 94.2928 21.2667 94.1467 21.2377C94.043 21.1325 93.9336 21.0396 93.829 20.9357C93.7546 20.7643 93.6362 20.5942 93.4627 20.443C76.3305 5.49958 59.8326 9.08187 49.6789 20.1022C39.7388 30.8878 34.0369 47.6928 32.8655 66.8925C32.2054 77.7203 33.0555 89.3364 35.4402 101.362C35.4634 101.477 35.6001 101.5 35.5813 101.389C32.1853 81.2932 32.6369 62.1927 37.2009 46.501C37.2249 46.4214 37.2494 46.3407 37.2734 46.2611C36.0998 50.4427 35.2262 54.8919 34.6025 59.3842C33.3104 68.6913 33.1077 78.7727 34.2917 89.3683C34.3021 89.4593 34.4091 89.4717 34.4036 89.3902C33.9817 82.748 33.8978 76.251 34.2367 69.9988C34.2101 71.387 34.2072 72.787 34.2278 74.2004C34.2286 74.2222 34.2565 74.2351 34.2564 74.2147C34.2408 71.3832 34.3337 68.6094 34.5252 65.8965C34.6976 63.8927 34.9158 61.9164 35.1857 59.9733C36.1444 53.0992 37.7703 46.9568 39.7599 41.0503C42.5169 33.8065 46.2579 27.5247 50.8763 22.4843C54.2168 18.8377 58.0527 15.5996 62.4511 13.6018C63.6207 13.2106 64.8247 12.8946 66.0685 12.6731C71.4751 11.71 77.5563 12.5948 83.6923 15.5849C87.614 18.2731 91.3252 22.3033 94.3761 27.7554C95.1006 29.0506 95.7667 30.3697 96.3856 31.7037C96.345 31.6853 96.3044 31.6678 96.2651 31.6488C96.1888 31.6122 96.1412 31.7388 96.2345 31.8076C96.3335 31.8803 96.435 31.9569 96.5359 32.0312C97.3657 33.8514 98.0961 35.7022 98.7482 37.5702C98.7235 37.5625 98.6978 37.5518 98.6734 37.5448C98.6104 37.5251 98.6186 37.6341 98.6791 37.6712C98.7225 37.6992 98.7689 37.7249 98.8128 37.7518C100.75 43.355 101.937 49.0973 102.648 54.6001C102.325 54.4584 102.001 54.316 101.681 54.1848C101.62 54.1595 101.607 54.254 101.672 54.2939C102.008 54.5022 102.348 54.7027 102.687 54.9026C102.972 57.1573 103.181 59.3703 103.326 61.513C104.078 72.6496 103.507 83.2493 101.747 92.9278C98.2202 112.315 89.7698 129.139 76.937 137.806C69.7209 142.678 59.9136 143.679 49.8567 133.871C49.731 133.747 49.6124 133.613 49.488 133.487C43.9613 126.892 39.5503 118.538 37.0838 110.172C37.068 110.118 36.9981 110.117 37.0105 110.169C38.0336 114.299 39.5436 118.409 41.4461 122.328C40.6462 120.773 39.9264 119.183 39.3062 117.57C37.9153 114.922 36.9145 112.198 36.2043 109.456C37.1502 114.916 39.2518 120.628 42.4453 125.791C44.2412 128.695 46.2401 131.265 48.36 133.472C50.1791 135.805 52.1441 137.963 54.2295 139.882C61.5005 146.571 70.424 150.387 76.9258 148.446C76.3601 148.686 75.7967 148.932 75.2236 149.154C75.167 149.176 75.232 149.308 75.2899 149.295C86.6383 146.894 96.0069 139.31 102.628 128.323C104.281 125.773 105.726 122.98 106.871 119.935C113.57 104.015 115.51 83.2508 111.049 61.2386C108.85 50.3895 105.118 39.4936 99.4875 29.4221C99.5516 29.3023 99.4868 29.0477 99.3014 28.9359ZM37.414 45.799C37.5182 45.4491 37.6237 45.0995 37.733 44.7513C37.6268 45.1005 37.5158 45.4453 37.414 45.799ZM41.9156 34.6839C41.8672 34.6422 41.8102 34.628 41.7837 34.6765C41.0312 36.0802 40.3523 37.585 39.7159 39.1404C43.2721 30.159 48.3633 22.287 55.0852 17.4231C49.7375 21.8445 45.2966 27.689 41.9156 34.6839ZM92.6157 21.4855C92.3249 21.3008 92.0335 21.1198 91.7439 20.9354C90.9289 20.4182 90.1091 19.8524 89.2891 19.4639C89.2462 19.4442 89.2219 19.4736 89.2233 19.5147C88.6425 18.8697 88.0447 18.2583 87.437 17.6731C89.1737 18.7668 90.9043 20.0356 92.6157 21.4855ZM89.4008 19.7183C90.1296 20.3666 90.894 20.8943 91.6431 21.4478C92.3776 21.99 93.1098 22.559 93.8564 23.0065C94.1551 23.1855 94.2986 22.6715 93.9718 22.4175C93.7713 22.2623 93.5664 22.1307 93.3636 21.9911C93.4349 22.0056 93.5017 22.0046 93.5626 21.9878C93.7863 22.1822 94.0102 22.3791 94.236 22.5716C94.7046 23.2588 95.1605 23.9516 95.6078 24.6488C94.3035 23.7013 92.9131 22.8643 91.628 22.2476C91.5482 22.2093 91.5074 22.3299 91.5967 22.405C93.0388 23.6209 94.6642 24.7384 96.1739 25.5542C96.7042 26.403 97.2206 27.2573 97.7199 28.1186C96.6809 27.6439 95.6206 27.2765 94.6533 27.0367C93.0863 24.3588 91.3237 21.8858 89.4008 19.7183ZM54.6052 138.793C54.4901 138.692 54.3792 138.582 54.2654 138.479C55.0071 138.977 55.7536 139.437 56.504 139.849C59.1908 141.876 61.9083 143.636 64.6429 145.144C61.342 143.823 57.9857 141.785 54.6052 138.793ZM78.6702 147.675C78.7214 147.455 78.5309 147.11 78.3027 147.005C79.8143 146.666 81.2832 146.187 82.7077 145.602C81.3918 146.351 80.0443 147.039 78.6702 147.675ZM111.935 80.8515L111.932 80.8485C109.761 79.449 107.455 78.3936 105.274 77.3634C105.138 77.2992 105.113 77.5175 105.257 77.607C107.426 78.9506 109.718 80.3994 111.894 81.373C111.913 81.3815 111.928 81.3815 111.944 81.3848C111.985 83.4804 111.968 85.5368 111.896 87.5453C109.816 86.4998 107.728 85.6596 105.658 84.8127C105.612 84.7937 105.599 84.8699 105.652 84.8976C107.721 86.0147 109.808 87.1519 111.878 88.0715C111.848 88.8124 111.813 89.5476 111.768 90.2741C111.65 92.179 111.471 94.0419 111.255 95.8803C108.987 94.9018 106.687 94.4435 104.454 93.7987C104.349 93.7681 104.348 93.9851 104.464 94.0268C106.682 94.8131 109.027 95.8452 111.206 96.3154C110.809 99.596 110.256 102.764 109.558 105.816C106.935 105.022 104.306 104.504 101.758 104.123C101.71 104.116 101.723 104.2 101.772 104.216C104.338 105.071 106.942 105.817 109.452 106.283C107.866 113.052 105.567 119.231 102.625 124.694C102.32 125.195 102.011 125.694 101.697 126.185C101.667 126.157 101.64 126.125 101.6 126.115C98.2756 125.176 94.9972 124.519 91.7145 123.824C91.5849 123.797 91.6177 124.039 91.7529 124.076C95.0055 124.956 98.265 125.871 101.48 126.523C100.469 128.088 99.4117 129.593 98.2923 131.025C98.2567 130.982 98.2149 130.944 98.1589 130.926C94.9329 129.85 91.7185 129.415 88.5805 128.876C88.5337 128.868 88.5452 128.954 88.5947 128.968C91.7307 129.885 94.9823 130.94 98.0344 131.358C96.4497 133.354 94.7394 135.202 92.8574 136.865C90.0742 139.322 87.0373 141.164 83.8672 142.747C83.8403 142.725 83.8097 142.707 83.7744 142.698C81.2787 142.044 78.8251 141.775 76.3868 141.417C76.3337 141.409 76.345 141.508 76.4032 141.523C78.672 142.08 80.9845 142.72 83.2185 143.067C81.8363 143.739 80.4317 144.371 79.0114 144.98C78.9971 144.969 78.9834 144.958 78.9654 144.95C76.7829 144.066 74.6055 143.26 72.4279 142.433C72.3756 142.413 72.3625 142.506 72.4211 142.531C74.4786 143.417 76.5384 144.318 78.5925 145.157C77.2598 145.725 75.9153 146.281 74.5662 146.846C71.9077 145.419 69.2485 144.245 66.5897 142.911C66.5355 142.884 66.5244 142.977 66.5829 143.009C69.0511 144.34 71.5166 145.811 73.9856 147.089L73.8987 147.126C72.8699 147.089 71.8311 146.989 70.7847 146.832C68.3979 145.273 65.9834 143.882 63.5957 142.412C63.5615 142.392 63.5443 142.456 63.5824 142.481C65.6764 143.864 67.7791 145.331 69.8848 146.68C69.3366 146.578 68.7855 146.451 68.2327 146.314C64.9846 144.811 61.7433 142.984 58.5262 140.854C61.5614 142.192 64.5969 142.798 67.4489 142.586C76.4118 141.919 83.1979 135.048 88.5597 127.897C93.7518 120.974 97.7568 112.507 100.445 102.898C103.112 93.3748 104.503 82.7332 104.482 71.3682C104.476 68.5937 104.406 65.7523 104.232 62.8607C105.861 63.7761 107.495 64.6926 109.126 65.4828C109.334 65.5838 109.379 65.227 109.151 65.1036C107.508 64.2171 105.862 63.4534 104.22 62.6937C104.072 60.2911 103.85 57.8537 103.537 55.3917C104.681 56.0374 105.831 56.6347 106.96 57.1594C107.175 57.2598 107.221 56.9011 106.987 56.7691C105.833 56.1178 104.655 55.5202 103.485 54.9795C103.007 51.3225 102.319 47.6131 101.354 43.8827C102.629 44.6494 103.965 45.3483 105.229 45.8366C105.47 45.9302 105.537 45.5381 105.26 45.3848C103.959 44.6632 102.595 44.1021 101.299 43.6631C100.83 41.8705 100.297 40.0746 99.6913 38.2764C100.563 38.7698 101.462 39.212 102.297 39.5495C102.546 39.6515 102.612 39.2372 102.329 39.0867C101.431 38.6047 100.464 38.1748 99.5391 37.8383C99.3897 37.4022 99.2454 36.9661 99.0868 36.5296C98.63 35.2717 98.1278 34.0338 97.5925 32.817C98.5996 33.555 99.647 34.2706 100.606 34.6416C100.859 34.7401 101.025 34.3698 100.71 34.1104C99.6476 33.2321 98.4308 32.6435 97.2809 32.1166C96.5367 30.4824 95.7252 28.8912 94.8477 27.3663C95.9616 28.0648 97.1555 28.6857 98.2921 29.123C107.571 45.5962 111.541 64.3706 111.935 80.8515Z" fill="white"/>
<path d="M67.6004 13.3676C48.1133 20.584 36.2817 43.1637 35.4173 71.7123C35.1753 79.6804 35.7897 88.1035 37.2142 96.737C37.2235 96.7936 37.2911 96.8041 37.2831 96.7511C32.4952 65.8329 38.2879 38.774 53.2396 23.6329C57.5156 19.3013 62.4653 16.181 67.8579 13.8061C68.0641 13.7166 67.7941 13.2963 67.6004 13.3676Z" fill="white"/>
<path d="M38.3425 102.416C40.1009 112.319 44.2009 123.437 51.4178 131.146C57.4172 137.556 65.4437 141.09 70.1605 137.415C70.3035 137.303 70.0973 136.96 69.9489 137.055C64.8882 140.267 57.1177 137.021 51.0099 130.174C44.3266 122.681 40.0837 111.901 38.3713 102.422C38.3671 102.399 38.3386 102.394 38.3425 102.416Z" fill="white"/>
<path d="M90.5217 117.521C86.3585 125.17 81.0612 131.538 74.9104 136.483C74.9045 136.488 74.914 136.504 74.9207 136.5C86.6993 127.893 94.9763 113.481 99.0919 95.7953C101.154 86.9373 102.168 77.2285 102.035 66.9413C101.888 55.6804 100.314 43.1079 94.1418 31.1889C91.0834 25.2824 86.9705 19.8885 82.291 16.481C77.9251 13.3009 73.2619 11.8567 69.6657 13.2829C69.507 13.3465 69.6961 13.7426 69.8577 13.6895C77.4729 11.1754 87.4211 19.4666 93.3526 30.3681C99.8441 42.299 101.453 55.1485 101.608 66.5067C101.881 86.2576 97.9407 103.891 90.5217 117.521Z" fill="white"/>
<path d="M71.7955 44.307C64.7386 51.1083 68.7368 68.5014 69.4386 80.8306C69.8581 88.2064 69.4105 95.986 65.7294 100.069C62.6456 103.49 56.4645 103.684 51.5631 98.1517C45.2819 91.0612 43.5871 79.2966 43.9151 71.6814C44.2453 64.0351 46.6455 58.3183 50.3969 53.9508C51.3228 52.8721 49.5081 50.7223 48.5668 51.585C42.4038 57.2421 40.2275 68.9217 42.3568 81.1694C44.4114 92.9852 51.502 105.436 60.9415 105.303C69.8442 105.176 72.1338 94.1209 71.74 83.2145C71.4732 75.8148 70.1605 67.9909 70.0563 60.6604C69.9472 53.0333 71.8319 42.5901 79.6368 45.9873C86.6886 49.0579 91.3194 59.435 91.8864 67.4259C92.5598 76.9148 88.9186 82.9231 86.2111 89.7336C86.1034 90.006 86.482 90.385 86.633 90.1849C91.9115 83.1673 96.7615 72.0319 91.7366 58.2169C87.8053 47.4087 77.4765 38.8306 71.7955 44.307Z" fill="white"/>
<path d="M83.1245 42.5222C78.8485 45.0083 75.0506 48.5531 71.0867 51.5902C67.0915 54.6511 63.1136 57.7397 59.1388 60.8352C55.3903 63.7534 51.6886 66.7454 47.9811 69.7311C46.0232 71.3077 44.0656 72.8857 42.1077 74.4622C40.4638 75.7874 38.3711 76.7593 37.3937 78.9725C37.3571 79.0577 37.4502 79.1939 37.5287 79.186C39.7233 78.976 41.3207 77.1619 43.0398 75.9328C45.075 74.4776 47.1099 73.0209 49.145 71.5657C53.2164 68.6532 57.2851 65.7386 61.3143 62.7522C65.3469 59.765 69.3712 56.765 73.3822 53.7429C77.1593 50.8979 81.2634 48.3892 84.7218 45.0399C85.575 44.2139 84.088 41.9608 83.1245 42.5222Z" fill="white"/>
<path d="M90.1215 54.1831C85.4909 56.8902 81.2962 60.5661 76.9352 63.7592C72.6933 66.864 68.4636 69.9855 64.259 73.1529C60.0506 76.324 55.8641 79.5306 51.7022 82.7792C49.9212 84.1687 48.1622 85.5981 46.4154 87.0433C44.503 88.6255 42.2113 89.9669 40.9153 92.4022C40.8846 92.4597 40.9587 92.5656 41.0134 92.558C43.5471 92.1689 45.5735 90.3376 47.6442 88.9809C49.7519 87.5984 51.8463 86.192 53.9186 84.7476C58.2166 81.7512 62.4864 78.7088 66.7411 75.6392C71 72.5666 75.2236 69.4362 79.4459 66.3015C83.5864 63.2265 88.0288 60.4925 91.8899 56.9707C92.8578 56.0893 91.1842 53.5622 90.1215 54.1831Z" fill="white"/>
</g>
</svg>
