<svg width="76" height="91" viewBox="0 0 76 91" fill="none" xmlns="http://www.w3.org/2000/svg">
<g opacity="0.4">
<path d="M35.0506 85.0001C42.8738 85.6063 54.5259 80.852 59.1379 70.7973C63.7513 60.7418 62.5324 33.488 59.5061 26.7987C56.4797 20.1095 50.8918 7.14203 33.3936 4.36523C33.3936 4.36523 20.899 1.3522 15.8462 22.1C10.7941 42.848 12.136 52.3841 13.1113 60.1519C14.0865 67.9198 17.7233 83.6591 35.0506 85.0001Z" fill="#FF4B00"/>
<path d="M41.4807 6.03458C40.9203 5.736 40.3503 5.45738 39.7707 5.19684C39.5894 5.16654 39.4083 5.13754 39.2273 5.10609C39.2273 5.10609 39.2694 5.12298 39.2903 5.13265C39.2597 5.12084 39.2271 5.11154 39.1951 5.09996C37.0594 4.72567 34.9367 4.2545 32.8116 3.79615C30.7454 3.78568 28.678 3.98153 26.6237 4.33624C22.5185 6.72429 19.4607 10.6881 17.6072 14.9545C16.4261 17.6728 15.6483 20.5344 15.0611 23.4339C15.0423 23.5021 15.0234 23.5728 15.0053 23.6406C12.4058 33.3905 11.2955 43.8637 12.0861 53.9911C12.757 62.582 14.4868 72.1019 21.1858 78.5116C25.8807 83.005 32.5732 85.5308 39.1147 85.4019C39.2288 85.4002 39.3433 85.3973 39.457 85.3923C41.1108 85.3366 42.7518 85.1122 44.3473 84.7031C44.7837 84.591 45.2126 84.4621 45.6379 84.326C47.409 83.7831 49.0777 82.9964 50.6163 82.002C50.689 81.9566 50.7615 81.9117 50.833 81.8658C50.833 81.8658 50.8463 81.8574 50.8522 81.8523C55.5094 78.8438 58.9266 74.1812 60.2885 68.8962C61.6197 64.9326 62.202 60.6992 62.3901 56.511C62.4653 54.8609 62.4991 53.2002 62.4989 51.5354C63.1327 41.8319 62.6316 32.1244 58.2228 22.9378C54.7504 15.7024 48.8255 9.41131 41.4807 6.03458ZM22.8971 78.5268C20.232 76.2347 18.3102 73.4455 16.9104 70.4043C18.3598 73.0832 20.2066 75.5929 22.5359 77.8583C23.8777 79.163 25.379 80.3293 26.9929 81.3285C25.529 80.5389 24.1506 79.6033 22.8971 78.5268ZM57.7593 25.0221C58.0117 25.608 58.2436 26.201 58.4702 26.7942C58.8821 27.9211 59.2537 29.0629 59.5829 30.214C61.4593 36.7902 62.0645 43.6154 62.1704 50.3728C62.176 50.7398 62.1789 51.1092 62.1827 51.4782C62.1109 54.7444 61.8817 57.9907 61.5473 61.1715C61.5437 61.1974 61.5906 61.2108 61.5941 61.183C61.7767 59.552 61.9536 57.9162 62.1111 56.2768C61.9705 59.6128 61.6034 62.9443 60.7991 66.157C60.8466 65.7499 60.8861 65.3418 60.9093 64.9302C60.9184 64.7568 60.6214 64.6641 60.5969 64.8533C59.7068 71.7857 55.4135 78.1143 49.1849 81.5799C54.1363 77.5411 56.4531 71.1461 57.6279 65.1296C60.1963 51.9706 58.7564 38.0659 53.5501 25.4747C53.4486 25.2299 53.014 25.302 53.1186 25.5766C57.4954 37.1503 59.1138 49.5645 57.4619 61.6625C56.5597 68.2707 54.874 75.3934 49.9627 80.2966C49.068 81.189 48.0712 81.9763 46.999 82.6408C46.8865 82.6884 46.7757 82.7371 46.6633 82.7823C41.6925 84.7693 35.9813 84.7145 30.8436 82.9926C29.0468 82.2429 27.3366 81.2978 25.7729 80.1885C20.688 76.582 17.385 71.6778 15.3403 66.2352C14.2984 62.8056 13.7405 59.2137 13.4089 55.7557C12.5457 46.7481 12.8612 37.7908 14.7083 28.9745C16.5355 20.2481 19.3549 7.0327 29.6668 4.62991C31.4779 4.8257 33.2638 5.07621 35.0543 5.64566C37.7712 6.50843 40.3401 7.82871 42.5761 9.56899C46.5172 12.6386 49.4858 16.9942 50.9697 21.6249C50.9755 21.6431 51.0117 21.6418 51.0067 21.6213C49.7657 16.4793 46.9286 11.9957 42.5471 8.70407C41.0094 7.54825 39.2064 6.49205 37.2785 5.65096C46.6229 8.49608 53.9674 16.1969 57.7593 25.0221Z" fill="#F4F3F2"/>
<path d="M38.3284 8.41654C43.4478 11.4749 47.5635 16.3652 48.6715 22.1395C48.6767 22.1661 48.7245 22.1694 48.7194 22.1403C47.6437 16.1901 44.2535 10.9188 38.4886 8.11829C38.2619 8.00879 38.1168 8.28991 38.3284 8.41654Z" fill="#F4F3F2"/>
<path d="M15.0286 32.8273C13.754 40.4029 13.1182 48.6949 14.6413 56.3488C14.6918 56.6035 15.1267 56.6474 15.1086 56.3534C14.6382 48.447 14.1928 40.7746 15.4628 32.9341C16.7105 25.2258 19.1001 17.6724 22.4408 10.6113C22.4485 10.5957 22.4214 10.5825 22.4147 10.5971C18.8198 17.62 16.3381 25.0465 15.0286 32.8273Z" fill="#F4F3F2"/>
<path d="M22.6998 76.7744C22.8562 76.9257 23.1573 76.7388 23.001 76.5556C18.9394 71.7929 16.2122 66.4142 15.4316 60.2913C15.4293 60.2747 15.4025 60.2738 15.4035 60.2906C15.6945 66.3412 18.1565 72.377 22.6998 76.7744Z" fill="#F4F3F2"/>
<path d="M23.6673 77.8742C31.2765 87.0327 47.2361 84.2734 51.4099 73.8968C51.4154 73.8818 51.3917 73.8683 51.3834 73.8837C48.8275 78.45 44.521 81.8512 39.1054 82.7504C33.3047 83.7125 28.2397 81.3828 23.9685 77.6554C23.8083 77.5153 23.5105 77.6859 23.6673 77.8742Z" fill="#F4F3F2"/>
<path d="M48.9978 22.6622C54.472 38.8942 55.7416 55.4612 52.3782 72.0521C52.3756 72.0679 52.4029 72.0757 52.4075 72.0598C56.5257 56.0665 55.6026 38.2206 49.4821 22.5484C49.3736 22.2697 48.8917 22.3504 48.9978 22.6622Z" fill="#F4F3F2"/>
<path d="M51.5655 79.2563C52.3915 79.1396 53.3079 79.1063 54.0966 78.8483C54.1871 78.8189 54.1528 78.6896 54.0583 78.6945C53.2187 78.7399 52.3617 79.0281 51.5491 79.2149C51.5178 79.2212 51.5381 79.2602 51.5655 79.2563Z" fill="#F4F3F2"/>
<path d="M54.0905 75.841C55.0796 75.4991 56.1882 75.3637 57.132 74.9127C57.2881 74.8383 57.1371 74.6321 56.9955 74.6647C55.9761 74.8972 55.0533 75.461 54.0743 75.7989C54.0451 75.809 54.0642 75.85 54.0905 75.841Z" fill="#F4F3F2"/>
<path d="M55.7927 71.6098C56.3109 71.4874 56.8029 71.3133 57.3033 71.141C57.7481 70.9878 58.2544 70.86 58.6498 70.6124C58.8609 70.4801 58.6693 70.1777 58.4416 70.2359C57.9809 70.3521 57.5483 70.6155 57.1313 70.8282C56.6677 71.065 56.2089 71.2939 55.7755 71.5779C55.7573 71.5899 55.7727 71.6146 55.7927 71.6098Z" fill="#F4F3F2"/>
<path d="M57.4031 66.8199C57.9481 66.6511 58.4936 66.4825 59.0398 66.3141C59.5289 66.1631 60.0832 66.0583 60.521 65.7994C60.7251 65.6781 60.5344 65.4133 60.3307 65.4545C59.826 65.5544 59.3531 65.8351 58.89 66.0451C58.38 66.276 57.8684 66.5076 57.3582 66.7391C57.3095 66.7613 57.3567 66.8343 57.4031 66.8199Z" fill="#F4F3F2"/>
<path d="M58.0389 61.9215C58.6207 61.9092 59.201 61.6211 59.7358 61.4273C60.2812 61.2299 60.9308 61.0836 61.4056 60.7556C61.6197 60.6082 61.4282 60.3304 61.194 60.3708C60.6085 60.4722 60.0543 60.7996 59.518 61.0346C59.0146 61.2558 58.3784 61.4451 57.9894 61.8319C57.9553 61.8658 57.9938 61.9221 58.0389 61.9215Z" fill="#F4F3F2"/>
<path d="M59.2078 54.9703C59.6936 54.9079 60.146 54.7887 60.6144 54.6588C61.0382 54.5412 61.4822 54.4497 61.8825 54.2703C62.1027 54.1713 61.8871 53.8835 61.6922 53.9253C61.2619 54.0164 60.8552 54.2045 60.4476 54.3573C60.0065 54.522 59.5843 54.6835 59.1764 54.9141C59.1419 54.9337 59.176 54.9741 59.2078 54.9703Z" fill="#F4F3F2"/>
<path d="M58.8439 49.797C60.1429 49.3566 61.5982 48.8364 62.7509 48.1169C62.93 48.0044 62.7665 47.7204 62.569 47.7872C61.2705 48.2327 59.9557 49.0094 58.8083 49.7328C58.7738 49.7549 58.8048 49.8103 58.8439 49.797Z" fill="#F4F3F2"/>
<path d="M57.3898 42.2014C57.9444 42.1494 58.4902 42.0722 59.0388 41.9873C59.5795 41.9031 60.1787 41.8565 60.6827 41.6515C60.8853 41.569 60.7184 41.2858 60.5405 41.2933C60.0215 41.3125 59.4942 41.4937 58.998 41.6267C58.4472 41.773 57.904 41.9245 57.3665 42.1077C57.3125 42.126 57.3318 42.2069 57.3898 42.2014Z" fill="#F4F3F2"/>
<path d="M57.2059 35.672C58.5723 36.0744 60.1703 36.0297 61.5806 36.1301C61.6258 36.1338 61.6242 36.0696 61.5832 36.0627C60.1886 35.8038 58.6347 35.3479 57.2146 35.3986C57.0318 35.4053 57.0473 35.6249 57.2059 35.672Z" fill="#F4F3F2"/>
<path d="M55.5614 29.0976C56.9355 29.3832 58.4428 29.4873 59.8356 29.4625C59.9092 29.4608 59.9058 29.3673 59.8397 29.3515C58.4784 29.0211 56.9736 28.7797 55.5733 28.757C55.3497 28.7532 55.3572 29.0552 55.5614 29.0976Z" fill="#F4F3F2"/>
<path d="M51.7617 22.7047C52.4829 22.8627 53.2339 22.8803 53.9673 22.9125C54.6632 22.9432 55.4184 23.0362 56.0954 22.8836C56.111 22.8807 56.1118 22.8577 56.1118 22.8577C55.4356 22.5984 54.6825 22.5587 53.9825 22.4747C53.2537 22.3881 52.5062 22.2728 51.7747 22.3129C51.5237 22.3265 51.5192 22.6526 51.7617 22.7047Z" fill="#F4F3F2"/>
<path d="M19.7308 36.4322C19.9963 40.6187 21.1806 44.8174 24.128 48.0718C27.5203 51.8156 31.3147 52.2471 36.1079 52.6333C40.4309 52.9803 42.7863 55.1342 42.9375 59.2802C43.0479 62.2973 41.7719 65.5391 39.6535 67.7028C34.1929 73.2824 24.3344 70.5928 24.3449 62.3283C24.3457 61.8827 23.5493 61.7252 23.4402 62.1791C21.5633 69.9893 31.0892 74.6761 37.7569 71.9067C44.5035 69.1041 48.6463 58.6561 43.1005 52.7792C39.6295 49.1019 34.8737 50.8958 30.5796 49.4447C23.7701 47.1425 22.3907 39.201 22.5923 33.2659C22.706 29.9093 23.2073 26.2317 25.4568 23.5615C28.095 20.4309 32.3532 19.7415 35.7603 22.4851C40.8663 26.5974 40.3126 33.4958 40.2211 39.1686C40.1979 40.5582 42.504 40.6616 42.6609 39.2802C43.5337 31.6083 42.5163 19.7508 32.2052 18.2975C21.8458 16.8384 19.2633 29.0374 19.7308 36.4322Z" fill="#F4F3F2"/>
<path d="M33.6033 16.9931C32.9706 21.4751 33.7532 26.3299 33.9839 30.861L34.7485 45.8472C35.0026 50.8448 35.2608 55.8411 35.5829 60.8367C35.8689 65.2725 35.6595 70.3445 37.3844 74.5559C37.4488 74.7147 37.7151 74.7576 37.7729 74.5754C39.1065 70.3677 38.3521 65.3334 38.1913 60.9553C38.0072 55.9599 37.7597 50.9666 37.5078 45.9727C37.2568 40.9778 37.0056 35.9816 36.7546 30.9867C36.5262 26.4478 36.8145 21.5492 35.7419 17.0985C35.5303 16.2189 33.7456 15.9889 33.6033 16.9931Z" fill="#F4F3F2"/>
<path d="M26.4898 15.7604C26.9108 25.7147 27.6864 35.6698 28.3273 45.6177C28.9376 55.0774 29.1411 64.874 31.2019 74.2009C31.2353 74.3514 31.4727 74.3223 31.4874 74.1812C32.4732 64.6162 31.4569 54.6654 30.9361 45.0589C30.4091 35.3367 30.0087 25.6004 29.2664 15.886C29.148 14.3517 26.4208 14.1274 26.4898 15.7604Z" fill="#F4F3F2"/>
</g>
</svg>
