<svg width="42" height="42" viewBox="0 0 42 42" fill="none" xmlns="http://www.w3.org/2000/svg">
<rect width="42" height="42" rx="21" fill="#ECFDF5"/>
<path d="M28.8749 21.0004C29.3579 21.0004 29.7543 20.6075 29.7061 20.1271C29.5044 18.1183 28.6142 16.241 27.1864 14.8135C25.7587 13.3861 23.8812 12.4963 21.8723 12.295C21.391 12.2469 20.999 12.6432 20.999 13.1262V20.1262C20.999 20.3583 21.0912 20.5809 21.2553 20.745C21.4194 20.909 21.642 21.0012 21.874 21.0012L28.8749 21.0004Z" stroke="#064345" stroke-width="1.75" stroke-linecap="round" stroke-linejoin="round"/>
<path d="M29.0586 24.4041C28.502 25.7205 27.6313 26.8805 26.5228 27.7827C25.4142 28.6849 24.1015 29.3018 22.6995 29.5795C21.2975 29.8572 19.8487 29.7872 18.48 29.3756C17.1113 28.9641 15.8642 28.2235 14.8478 27.2186C13.8314 26.2138 13.0766 24.9752 12.6494 23.6113C12.2223 22.2473 12.1357 20.7995 12.3974 19.3944C12.659 17.9892 13.2609 16.6696 14.1504 15.5508C15.0399 14.4321 16.1899 13.5482 17.4999 12.9766" stroke="#064345" stroke-width="1.75" stroke-linecap="round" stroke-linejoin="round"/>
</svg>
