<svg width="42" height="42" viewBox="0 0 42 42" fill="none" xmlns="http://www.w3.org/2000/svg">
<rect width="42" height="42" rx="21" fill="#ECFDF5"/>
<path d="M12.8844 28.875C12.724 28.875 12.5782 28.835 12.4469 28.7551C12.3157 28.6752 12.2136 28.5693 12.1407 28.4375C12.0678 28.3057 12.0278 28.1633 12.0208 28.0105C12.0138 27.8577 12.0538 27.7083 12.1407 27.5625L20.2344 13.5625C20.3219 13.4167 20.4351 13.3073 20.5739 13.2344C20.7128 13.1615 20.8548 13.125 21.0001 13.125C21.1453 13.125 21.2876 13.1615 21.4271 13.2344C21.5665 13.3073 21.6793 13.4167 21.7657 13.5625L29.8594 27.5625C29.9469 27.7083 29.9872 27.858 29.9802 28.0114C29.9732 28.1648 29.9329 28.3068 29.8594 28.4375C29.7859 28.5682 29.6838 28.674 29.5532 28.7551C29.4225 28.8362 29.2767 28.8762 29.1157 28.875H12.8844ZM14.3938 27.125H27.6063L21.0001 15.75L14.3938 27.125ZM21.0001 26.25C21.248 26.25 21.4559 26.166 21.6239 25.998C21.7919 25.83 21.8756 25.6223 21.8751 25.375C21.8745 25.1277 21.7905 24.92 21.6231 24.752C21.4556 24.584 21.248 24.5 21.0001 24.5C20.7521 24.5 20.5445 24.584 20.3771 24.752C20.2096 24.92 20.1256 25.1277 20.1251 25.375C20.1245 25.6223 20.2085 25.8303 20.3771 25.9989C20.5456 26.1675 20.7533 26.2512 21.0001 26.25ZM21.0001 23.625C21.248 23.625 21.4559 23.541 21.6239 23.373C21.7919 23.205 21.8756 22.9973 21.8751 22.75V20.125C21.8751 19.8771 21.7911 19.6694 21.6231 19.502C21.4551 19.3346 21.2474 19.2506 21.0001 19.25C20.7527 19.2494 20.5451 19.3334 20.3771 19.502C20.2091 19.6706 20.1251 19.8783 20.1251 20.125V22.75C20.1251 22.9979 20.2091 23.2059 20.3771 23.3739C20.5451 23.5419 20.7527 23.6256 21.0001 23.625Z" fill="#064345"/>
</svg>
