<svg width="42" height="42" viewBox="0 0 42 42" fill="none" xmlns="http://www.w3.org/2000/svg">
<rect width="42" height="42" rx="21" fill="#F0EAFD"/>
<path d="M26.25 12.25H15.75C14.7835 12.25 14 13.0335 14 14V28C14 28.9665 14.7835 29.75 15.75 29.75H26.25C27.2165 29.75 28 28.9665 28 28V14C28 13.0335 27.2165 12.25 26.25 12.25Z" stroke="#6828E8" stroke-width="1.75" stroke-linecap="round" stroke-linejoin="round"/>
<path d="M17.5 15.75H24.5" stroke="#6828E8" stroke-width="1.75" stroke-linecap="round" stroke-linejoin="round"/>
<path d="M24.5 22.75V26.25" stroke="#6828E8" stroke-width="1.75" stroke-linecap="round" stroke-linejoin="round"/>
<path d="M24.5 19.25H24.5088" stroke="#6828E8" stroke-width="1.75" stroke-linecap="round" stroke-linejoin="round"/>
<path d="M21 19.25H21.0088" stroke="#6828E8" stroke-width="1.75" stroke-linecap="round" stroke-linejoin="round"/>
<path d="M17.5 19.25H17.5088" stroke="#6828E8" stroke-width="1.75" stroke-linecap="round" stroke-linejoin="round"/>
<path d="M21 22.75H21.0088" stroke="#6828E8" stroke-width="1.75" stroke-linecap="round" stroke-linejoin="round"/>
<path d="M17.5 22.75H17.5088" stroke="#6828E8" stroke-width="1.75" stroke-linecap="round" stroke-linejoin="round"/>
<path d="M21 26.25H21.0088" stroke="#6828E8" stroke-width="1.75" stroke-linecap="round" stroke-linejoin="round"/>
<path d="M17.5 26.25H17.5088" stroke="#6828E8" stroke-width="1.75" stroke-linecap="round" stroke-linejoin="round"/>
</svg>
