<svg width="22" height="22" viewBox="0 0 22 22" fill="none" xmlns="http://www.w3.org/2000/svg">
<rect width="22" height="22" rx="11" fill="#D1FAE5"/>
<path d="M18.3337 10.9933L16.707 9.13333L16.9337 6.67333L14.527 6.12667L13.267 4L11.0003 4.97333L8.73366 4L7.47366 6.12667L5.06699 6.66667L5.29366 9.13333L3.66699 10.9933L5.29366 12.8533L5.06699 15.32L7.47366 15.8667L8.73366 18L11.0003 17.02L13.267 17.9933L14.527 15.8667L16.9337 15.32L16.707 12.86L18.3337 10.9933ZM15.7003 11.98L15.327 12.4133L15.3803 12.98L15.5003 14.28L13.6737 14.6933L13.3803 15.1867L12.7203 16.3067L11.5337 15.7933L11.0003 15.5667L10.4737 15.7933L9.28699 16.3067L8.62699 15.1933L8.33366 14.7L6.50699 14.2867L6.62699 12.98L6.68033 12.4133L6.30699 11.98L5.44699 11L6.30699 10.0133L6.68033 9.58L6.62033 9.00667L6.50033 7.71333L8.32699 7.3L8.62033 6.80667L9.28033 5.68667L10.467 6.2L11.0003 6.42667L11.527 6.2L12.7137 5.68667L13.3737 6.80667L13.667 7.3L15.4937 7.71333L15.3737 9.01333L15.3203 9.58L15.6937 10.0133L16.5537 10.9933L15.7003 11.98Z" fill="#079467"/>
<path d="M9.72699 12.1667L8.18033 10.6133L7.19366 11.6067L9.72699 14.1467L14.6203 9.24L13.6337 8.24667L9.72699 12.1667Z" fill="#079467"/>
</svg>
