<svg width="22" height="22" viewBox="0 0 22 22" fill="none" xmlns="http://www.w3.org/2000/svg">
<rect width="22" height="22" rx="11" fill="#FDE3E3"/>
<path d="M10.9997 4.33301C7.33301 4.33301 4.33301 7.33301 4.33301 10.9997C4.33301 14.6663 7.33301 17.6663 10.9997 17.6663C14.6663 17.6663 17.6663 14.6663 17.6663 10.9997C17.6663 7.33301 14.6663 4.33301 10.9997 4.33301ZM10.9997 16.333C8.05967 16.333 5.66634 13.9397 5.66634 10.9997C5.66634 8.05967 8.05967 5.66634 10.9997 5.66634C13.9397 5.66634 16.333 8.05967 16.333 10.9997C16.333 13.9397 13.9397 16.333 10.9997 16.333ZM11.333 7.66634H10.333V11.6663L13.7997 13.7997L14.333 12.933L11.333 11.133V7.66634Z" fill="#EB4848"/>
</svg>
