<svg width="38" height="38" viewBox="0 0 38 38" fill="none" xmlns="http://www.w3.org/2000/svg">
<rect width="38" height="38" rx="9.5" fill="#F0EAFD"/>
<path d="M15.7498 29.8327C15.0998 29.8327 14.6665 29.3993 14.6665 28.7493V25.4993H10.3332C9.1415 25.4993 8.1665 24.5243 8.1665 23.3327V10.3327C8.1665 9.14102 9.1415 8.16602 10.3332 8.16602H27.6665C28.8582 8.16602 29.8332 9.14102 29.8332 10.3327V23.3327C29.8332 24.5243 28.8582 25.4993 27.6665 25.4993H21.0582L17.0498 29.5077C16.8332 29.7243 16.6165 29.8327 16.2915 29.8327H15.7498ZM16.8332 23.3327V26.691L20.1915 23.3327H27.6665V10.3327H10.3332V23.3327H16.8332ZM23.6582 12.4993L22.1415 15.7493H24.4165V20.0827H20.0832V15.5327L21.4915 12.4993H23.6582ZM17.1582 12.4993L15.6415 15.7493H17.9165V20.0827H13.5832V15.5327L14.9915 12.4993H17.1582Z" fill="#6828E8"/>
</svg>
