<svg width="42" height="42" viewBox="0 0 42 42" fill="none" xmlns="http://www.w3.org/2000/svg">
<rect width="42" height="42" rx="21" fill="#ECFDF5"/>
<path d="M21 29.75C25.8325 29.75 29.75 25.8325 29.75 21C29.75 16.1675 25.8325 12.25 21 12.25C16.1675 12.25 12.25 16.1675 12.25 21C12.25 25.8325 16.1675 29.75 21 29.75Z" stroke="#064345" stroke-width="1.75" stroke-linecap="round" stroke-linejoin="round"/>
<path d="M21 26.25C23.8995 26.25 26.25 23.8995 26.25 21C26.25 18.1005 23.8995 15.75 21 15.75C18.1005 15.75 15.75 18.1005 15.75 21C15.75 23.8995 18.1005 26.25 21 26.25Z" stroke="#064345" stroke-width="1.75" stroke-linecap="round" stroke-linejoin="round"/>
<path d="M21 22.75C21.9665 22.75 22.75 21.9665 22.75 21C22.75 20.0335 21.9665 19.25 21 19.25C20.0335 19.25 19.25 20.0335 19.25 21C19.25 21.9665 20.0335 22.75 21 22.75Z" stroke="#064345" stroke-width="1.75" stroke-linecap="round" stroke-linejoin="round"/>
</svg>
