<svg width="42" height="42" viewBox="0 0 42 42" fill="none" xmlns="http://www.w3.org/2000/svg">
<rect width="42" height="42" rx="21" fill="#F0EAFD"/>
<path d="M20.5845 12.508C20.6228 12.4306 20.6821 12.3653 20.7555 12.3198C20.8289 12.2742 20.9137 12.25 21.0001 12.25C21.0866 12.25 21.1713 12.2742 21.2447 12.3198C21.3182 12.3653 21.3774 12.4306 21.4157 12.508L23.437 16.6022C23.5701 16.8716 23.7667 17.1048 24.0098 17.2816C24.2529 17.4583 24.5352 17.5735 24.8326 17.6172L29.3529 18.2787C29.4385 18.2911 29.519 18.3272 29.5852 18.383C29.6513 18.4387 29.7006 18.5119 29.7274 18.5942C29.7541 18.6765 29.7573 18.7646 29.7366 18.8487C29.7159 18.9327 29.6721 19.0092 29.6101 19.0697L26.3411 22.2529C26.1255 22.463 25.9642 22.7223 25.8711 23.0086C25.778 23.2948 25.7558 23.5994 25.8065 23.8962L26.5782 28.3937C26.5934 28.4793 26.5841 28.5674 26.5515 28.648C26.519 28.7286 26.4644 28.7984 26.3941 28.8495C26.3237 28.9006 26.2405 28.9309 26.1537 28.9369C26.067 28.943 25.9803 28.9245 25.9036 28.8837L21.8629 26.7592C21.5966 26.6194 21.3004 26.5463 20.9997 26.5463C20.699 26.5463 20.4027 26.6194 20.1365 26.7592L16.0966 28.8837C16.0199 28.9243 15.9333 28.9425 15.8468 28.9364C15.7602 28.9302 15.6771 28.8999 15.6069 28.8488C15.5367 28.7978 15.4822 28.7281 15.4497 28.6476C15.4172 28.5671 15.4079 28.4791 15.4229 28.3937L16.1937 23.897C16.2447 23.6002 16.2226 23.2954 16.1295 23.0089C16.0363 22.7225 15.8749 22.463 15.6591 22.2529L12.3901 19.0705C12.3276 19.0102 12.2834 18.9335 12.2623 18.8492C12.2413 18.7649 12.2444 18.6764 12.2712 18.5938C12.298 18.5112 12.3475 18.4378 12.414 18.3819C12.4805 18.326 12.5614 18.2899 12.6474 18.2778L17.1667 17.6172C17.4645 17.5738 17.7472 17.4588 17.9906 17.282C18.234 17.1052 18.4309 16.8719 18.5641 16.6022L20.5845 12.508Z" stroke="#6828E8" stroke-width="1.75" stroke-linecap="round" stroke-linejoin="round"/>
</svg>
