<svg width="42" height="42" viewBox="0 0 42 42" fill="none" xmlns="http://www.w3.org/2000/svg">
<rect width="42" height="42" rx="21" fill="#ECFDF5"/>
<path d="M21.0875 26.7312L21 26.8187L20.9038 26.7312C16.7475 22.96 14 20.4662 14 17.9375C14 16.1875 15.3125 14.875 17.0625 14.875C18.41 14.875 19.7225 15.75 20.1862 16.94H21.8138C22.2775 15.75 23.59 14.875 24.9375 14.875C26.6875 14.875 28 16.1875 28 17.9375C28 20.4662 25.2525 22.96 21.0875 26.7312ZM24.9375 13.125C23.415 13.125 21.9537 13.8337 21 14.945C20.0462 13.8337 18.585 13.125 17.0625 13.125C14.3675 13.125 12.25 15.2337 12.25 17.9375C12.25 21.2362 15.225 23.94 19.7313 28.0262L21 29.1812L22.2688 28.0262C26.775 23.94 29.75 21.2362 29.75 17.9375C29.75 15.2337 27.6325 13.125 24.9375 13.125Z" fill="#064345"/>
</svg>
