<svg width="42" height="42" viewBox="0 0 42 42" fill="none" xmlns="http://www.w3.org/2000/svg">
<rect width="42" height="42" rx="21" fill="#FFEDE6"/>
<path d="M28 21.8754C28 26.2504 24.9375 28.4379 21.2975 29.7066C21.1069 29.7712 20.8998 29.7681 20.7113 29.6979C17.0625 28.4379 14 26.2504 14 21.8754V15.7504C14 15.5183 14.0922 15.2958 14.2563 15.1317C14.4204 14.9676 14.6429 14.8754 14.875 14.8754C16.625 14.8754 18.8125 13.8254 20.335 12.4954C20.5204 12.337 20.7562 12.25 21 12.25C21.2438 12.25 21.4796 12.337 21.665 12.4954C23.1963 13.8341 25.375 14.8754 27.125 14.8754C27.3571 14.8754 27.5796 14.9676 27.7437 15.1317C27.9078 15.2958 28 15.5183 28 15.7504V21.8754Z" stroke="#FF4B00" stroke-width="1.75" stroke-linecap="round" stroke-linejoin="round"/>
</svg>
