<svg width="22" height="22" viewBox="0 0 22 22" fill="none" xmlns="http://www.w3.org/2000/svg">
<g clip-path="url(#clip0_1668_3950)">
<path d="M2.75 0C1.2375 0 0 1.2375 0 2.75C0 3.7125 0.55 4.675 1.375 5.0875V22H4.125V5.0875C4.95 4.675 5.5 3.7125 5.5 2.75C5.5 1.2375 4.2625 0 2.75 0ZM16.5 2.75C13.6125 2.75 14.025 1.375 10.45 1.375C6.875 1.375 5.5 5.5 5.5 5.5V16.5C5.5 16.5 6.4625 13.75 9.625 13.75C13.3375 13.75 13.475 15.125 16.5 15.125C21.0375 15.125 22 12.375 22 12.375V1.375C22 1.375 19.8 2.75 16.5 2.75ZM20.625 6.1875C20.35 6.4625 19.525 6.7375 17.875 7.0125V3.9875C18.975 3.85 19.9375 3.7125 20.625 3.4375V6.1875ZM6.875 10.8625V7.2875C7.425 6.4625 8.3875 5.775 9.625 5.775V2.8875C9.9 2.75 10.175 2.75 10.45 2.75C12.1 2.75 12.65 3.025 13.3375 3.3C13.475 3.4375 13.6125 3.575 13.75 3.575V6.6C14.4375 6.875 15.2625 7.15 16.5 7.15C17.05 7.15 17.4625 7.15 17.875 7.0125V10.5875C17.4625 10.5875 17.05 10.725 16.5 10.725C14.9875 10.725 14.4375 10.45 13.75 10.0375V13.2C12.7875 12.7875 11.6875 12.375 9.625 12.375V9.35C8.3875 9.625 7.5625 10.175 6.875 10.8625ZM17.875 13.6125V10.5875C19.3875 10.3125 20.2125 9.7625 20.625 9.4875V11.9625C20.35 12.375 19.6625 13.3375 17.875 13.6125Z" fill="black"/>
<path d="M13.75 9.8999V6.5999C13.75 6.5999 12.1 5.7749 9.625 5.7749V9.3499C11.9625 8.7999 13.75 9.8999 13.75 9.8999Z" fill="black"/>
</g>
<defs>
<clipPath id="clip0_1668_3950">
<rect width="22" height="22" fill="white"/>
</clipPath>
</defs>
</svg>
