<svg width="42" height="42" viewBox="0 0 42 42" fill="none" xmlns="http://www.w3.org/2000/svg">
<rect width="42" height="42" rx="21" fill="#FFEDE6"/>
<path d="M20.584 12.508C20.6223 12.4306 20.6816 12.3653 20.755 12.3198C20.8285 12.2742 20.9132 12.25 20.9996 12.25C21.0861 12.25 21.1708 12.2742 21.2442 12.3198C21.3177 12.3653 21.3769 12.4306 21.4152 12.508L23.4365 16.6022C23.5697 16.8716 23.7662 17.1048 24.0093 17.2816C24.2524 17.4583 24.5347 17.5735 24.8321 17.6172L29.3524 18.2787C29.438 18.2911 29.5185 18.3272 29.5847 18.383C29.6509 18.4387 29.7001 18.5119 29.7269 18.5942C29.7537 18.6765 29.7569 18.7646 29.7361 18.8487C29.7154 18.9327 29.6716 19.0092 29.6096 19.0697L26.3406 22.2529C26.125 22.463 25.9637 22.7223 25.8706 23.0086C25.7775 23.2948 25.7553 23.5994 25.806 23.8962L26.5777 28.3937C26.5929 28.4793 26.5836 28.5674 26.5511 28.648C26.5185 28.7286 26.4639 28.7984 26.3936 28.8495C26.3233 28.9006 26.24 28.9309 26.1533 28.9369C26.0665 28.943 25.9799 28.9245 25.9031 28.8837L21.8624 26.7592C21.5961 26.6194 21.2999 26.5463 20.9992 26.5463C20.6985 26.5463 20.4022 26.6194 20.136 26.7592L16.0961 28.8837C16.0194 28.9243 15.9328 28.9425 15.8463 28.9364C15.7597 28.9302 15.6766 28.8999 15.6064 28.8488C15.5362 28.7978 15.4817 28.7281 15.4492 28.6476C15.4167 28.5671 15.4074 28.4791 15.4224 28.3937L16.1932 23.897C16.2442 23.6002 16.2221 23.2954 16.129 23.0089C16.0358 22.7225 15.8744 22.463 15.6586 22.2529L12.3896 19.0705C12.3271 19.0102 12.2829 18.9335 12.2618 18.8492C12.2408 18.7649 12.2439 18.6764 12.2707 18.5938C12.2975 18.5112 12.347 18.4378 12.4135 18.3819C12.48 18.326 12.5609 18.2899 12.6469 18.2778L17.1662 17.6172C17.464 17.5738 17.7467 17.4588 17.9901 17.282C18.2336 17.1052 18.4304 16.8719 18.5636 16.6022L20.584 12.508Z" stroke="#FF4B00" stroke-width="1.75" stroke-linecap="round" stroke-linejoin="round"/>
</svg>
