<svg width="268" height="199" viewBox="0 0 268 199" fill="none" xmlns="http://www.w3.org/2000/svg">
<mask id="mask0_7024_21411" style="mask-type:luminance" maskUnits="userSpaceOnUse" x="96" y="7" width="61" height="26">
<path d="M96.3057 7.47266H156.222V32.3615H96.3057V7.47266Z" fill="white"/>
</mask>
<g mask="url(#mask0_7024_21411)">
<path d="M96.7743 20.9063C100.288 19.3682 106.792 16.5209 108.184 15.9133C108.347 15.8404 108.535 15.8716 108.667 15.9897L116.587 23.1911C116.75 23.3369 116.993 23.3473 117.167 23.2084L132.962 10.6529C133.135 10.514 133.385 10.5244 133.545 10.6772L140.08 16.757C140.257 16.9202 140.531 16.9168 140.701 16.7501L149.26 8.35426C149.441 8.17718 149.736 8.18413 149.906 8.37163L156.076 15.0661C156.25 15.2536 156.229 15.5522 156.031 15.7154L141.92 27.3195C141.757 27.455 141.521 27.4584 141.354 27.3265L133.514 21.0695C133.361 20.948 133.146 20.9411 132.983 21.0522L116.441 32.2848C116.25 32.4133 115.993 32.3786 115.844 32.205L106.674 21.4202C106.583 21.3126 106.448 21.2536 106.309 21.264L96.9792 21.7675C96.4826 21.7918 96.316 21.1077 96.7743 20.9063Z" fill="#6828E8"/>
</g>
<path d="M148.351 4.72576C150.59 7.00354 159.636 16.7674 162.59 19.9619C163.004 20.4063 163.74 20.2258 163.9 19.639C164.92 15.9063 167.698 5.46535 168.486 2.50354C168.587 2.1216 168.275 1.76049 167.886 1.8091C164.518 2.21882 151.674 3.78826 148.549 4.16326C148.275 4.19451 148.16 4.52785 148.351 4.72576Z" fill="#6828E8"/>
<path d="M163.056 106.938L99.3716 106.802C99.691 101.288 100.045 95.6391 102.24 90.5661C105.708 82.5522 114.563 78.1668 123.056 76.7016C123.663 76.5974 124.163 76.3266 124.545 76.6807C124.837 76.9585 125.024 77.3925 125.247 77.6356C126.601 79.146 128.649 80.0384 130.684 79.9411C132.663 79.8474 134.715 78.8266 136.08 76.8474C136.632 76.0488 136.899 76.212 137.882 76.2988C141.629 76.6391 145.365 77.3474 148.917 78.6078C153.326 80.1738 157.476 82.955 159.754 87.0418C163.056 92.9585 161.889 100.264 163.056 106.938Z" fill="#6828E8"/>
<path d="M143.761 46.7503C144.511 46.3475 144.913 45.5836 145.122 44.7572C145.615 42.8544 144.781 40.6357 143.84 39.1947C140.972 34.7607 135.517 33.3371 130.986 35.3753C127.722 36.8371 125.49 39.9725 124.872 40.6322C124.74 40.7954 123.795 42.0072 123.795 42.219C122.962 42.4759 120.59 41.0558 116.899 43.6218C112.622 46.5975 110.167 52.1461 111.243 57.6843C111.528 59.2016 112.083 60.6496 112.243 62.1947C112.368 63.4447 112.233 65.1218 110.899 66.035C107.226 68.5593 107.021 74.4204 110.351 77.8475C109.514 78.9933 109.302 80.5211 109.702 81.8648C113.632 79.1878 118.441 77.5003 123.056 76.7016C123.702 76.594 124.184 76.3093 124.58 76.719C124.583 76.8475 124.642 78.9829 124.656 79.5211C124.656 79.9343 125.285 79.9343 125.285 79.5211V64.2746C125.285 64.0871 125.024 63.7503 124.764 63.7815C120.445 64.3753 118.163 62.2121 118.122 60.0003C118.059 56.9829 122.215 55.7676 124.5 59.4412C125.08 60.3753 125.122 60.8926 125.382 61.1009C125.733 61.3926 125.872 61.6634 126.274 61.9655C126.278 61.969 126.281 61.969 126.281 61.9759C126.611 62.219 126.993 61.7225 126.66 61.4725C126.656 61.4725 126.656 61.4655 126.653 61.4655C126.313 61.2016 123.545 54.4586 123.302 53.8162C129.399 49.4794 132.483 49.2815 133.702 48.8718C133.726 48.8614 133.75 48.8509 133.778 48.8371C134.108 48.6114 133.945 48.0003 133.945 46.153C134.445 46.8301 135.083 47.2607 135.476 47.91C135.649 48.2641 136.132 48.3232 138.653 47.785C138.695 47.7746 141.941 47.1183 142.913 47.0141C143 47.0037 143.083 46.9829 143.17 46.9655C144.82 52.9482 145.146 60.4759 144.445 65.0766C144.17 66.8891 143.552 68.3718 142.604 69.4829C141.101 71.2468 138.594 72.2016 135.906 72.0419C133.691 71.91 131.386 71.0871 128.858 69.5211C128.712 69.4273 128.517 69.4759 128.427 69.6218C128.333 69.7711 128.379 69.9621 128.528 70.0558C130.84 71.4864 133.368 72.5662 136.073 72.6739V78.0975C136.073 78.5141 136.702 78.5141 136.702 78.0975V72.6843C139.267 72.6287 141.611 71.6183 143.08 69.8926C144.104 68.6878 144.774 67.1009 145.066 65.1704C145.774 60.5211 145.458 52.8822 143.761 46.7503Z" fill="black"/>
<path d="M130.41 56.0629C130.733 56.9136 131.545 57.6983 132.344 57.3927C133.469 56.9587 133.222 54.8545 132.101 54.0108C130.92 53.1254 129.757 54.3649 130.41 56.0629Z" fill="black"/>
<path d="M141.486 52.0313C140.305 51.1459 139.142 52.3855 139.795 54.0834C140.455 55.8056 142.142 55.9167 142.424 54.4792C142.594 53.6285 142.18 52.5521 141.486 52.0313Z" fill="black"/>
<path d="M138.4 50.545C138.108 50.8402 138.556 51.2777 138.844 50.986C139.65 50.1735 140.99 50.1249 141.851 50.9513C142.15 51.2395 142.584 50.7881 142.285 50.4999C141.222 49.4791 139.486 49.4513 138.4 50.545Z" fill="black"/>
<path d="M128.524 53.396C128.993 52.2988 130.153 51.6772 131.316 51.8821C131.726 51.955 131.833 51.3335 131.423 51.2641C129.976 51.0106 128.531 51.7849 127.948 53.146C127.781 53.5314 128.361 53.7745 128.524 53.396Z" fill="black"/>
<path d="M136.979 51.7777C137.01 53.6492 137.972 55.493 139.486 56.5972C140.51 57.3437 141.774 57.9444 140.868 59.4513C140.601 59.8958 140.191 60.2673 139.799 60.6284C139.493 60.9097 139.92 61.368 140.222 61.0902C140.649 60.7013 141.09 60.2951 141.403 59.7742C142.562 57.8506 140.99 56.9131 139.854 56.0902C138.496 55.1006 137.635 53.4444 137.604 51.7673C137.597 51.3506 136.969 51.3611 136.979 51.7777Z" fill="black"/>
<path d="M133.521 61.5138C133.205 62.4791 133.49 63.5971 134.229 64.2916C134.969 64.986 136.097 65.2083 137.049 64.8298C137.434 64.6805 137.202 64.0937 136.816 64.2464C136.104 64.5312 135.219 64.361 134.66 63.8367C134.101 63.3124 133.879 62.4374 134.115 61.7083C134.247 61.3159 133.649 61.118 133.521 61.5138Z" fill="black"/>
<mask id="mask1_7024_21411" style="mask-type:luminance" maskUnits="userSpaceOnUse" x="144" y="0" width="22" height="20">
<path d="M144.667 0H166V19.9167H144.667V0Z" fill="white"/>
</mask>
<g mask="url(#mask1_7024_21411)">
<path d="M152.042 11.2256C152.056 13.368 151.924 19.1735 151.924 19.2187L151.899 19.243C151.906 19.236 151.913 19.2291 151.924 19.2221C151.92 19.236 151.92 19.2534 151.92 19.2673C152.563 18.7534 150.715 20.1978 155.903 16.0103C156.056 15.8888 156.188 15.7534 156.135 15.5659C157.941 17.5103 159.347 19.0312 159.747 19.4652C160.09 19.8367 160.708 19.6874 160.844 19.2013C161.688 16.17 165.389 2.24644 165.806 0.666575C165.885 0.374909 165.642 0.0971305 165.34 0.131853C162.104 0.527686 148.629 2.17352 145.361 2.56588C144.83 2.62838 144.604 3.27769 144.979 3.65963C145.385 4.07282 152.528 11.5728 152.042 11.2256ZM145.438 3.18741C148.684 2.79852 162.427 1.11796 165.125 0.791575C164.455 3.30894 161.042 16.1423 160.208 19.0381C158.958 17.6874 147.927 5.7638 145.427 3.21866L145.438 3.18741Z" fill="black"/>
</g>
<mask id="mask2_7024_21411" style="mask-type:luminance" maskUnits="userSpaceOnUse" x="110" y="97" width="7" height="11">
<path d="M110.889 97.25H116.222V107.281H110.889V97.25Z" fill="white"/>
</mask>
<g mask="url(#mask2_7024_21411)">
<path d="M114.243 97.7746L110.941 106.719C110.864 106.924 111.017 107.143 111.236 107.143C111.368 107.143 115.913 107.153 115.871 107.153C116.059 107.153 116.208 106.983 116.18 106.792L114.847 97.8371C114.798 97.5142 114.354 97.4725 114.243 97.7746Z" fill="black"/>
</g>
<path d="M121.135 59.2086C121.069 59.0454 120.889 58.969 120.726 59.0315C120.566 59.0975 120.49 59.2815 120.552 59.4412C120.837 60.1495 121.434 60.7259 122.153 60.9864C122.542 61.1287 122.757 60.5384 122.365 60.3961C121.816 60.1982 121.354 59.7502 121.135 59.2086Z" fill="black"/>
<mask id="mask3_7024_21411" style="mask-type:luminance" maskUnits="userSpaceOnUse" x="146" y="35" width="55" height="73">
<path d="M146.444 35.0278H200.253V107.281H146.444V35.0278Z" fill="white"/>
</mask>
<g mask="url(#mask3_7024_21411)">
<path d="M199.892 74.066C199.889 74.0312 199.882 74 199.871 73.9687C199.917 71.2708 185.378 70.8542 182.663 70.8125C183.552 68.6285 183.899 66.2326 183.649 63.8854C184.476 64.0625 187.069 63.4305 188.844 61.4965C191.573 58.5312 191.805 54.3611 191.962 50.4826C191.969 50.2361 191.708 50.0729 191.489 50.1979C189.333 51.4305 187.104 52.7049 185.33 54.5486C184.024 55.9097 182.792 57.8472 182.566 59.7951C181.434 57.125 179.736 54.8542 178.378 52.3472C185.014 52.0521 189.809 45.493 187.611 38.7465C187.174 37.3993 186.493 36.3715 185.41 35.4062C185.295 35.3055 185.125 35.2986 185.007 35.3924C184.885 35.4861 184.851 35.6528 184.924 35.7847C185.052 36.0347 185.208 36.2917 185.368 36.559C185.733 37.1667 186.108 37.7951 186.243 38.3924C188.108 46.6007 179.958 52.9514 172.736 49.4618C171.614 48.9201 170.614 47.9861 169.764 46.684C169.559 46.368 169.066 46.625 169.212 46.9757C170.51 50.118 173.892 52.2604 177.663 52.3507C180.003 56.8194 183.17 60.0174 183.104 65.5521C182.208 62.3507 179.604 60.6667 176.75 58.9514C176.524 58.8125 176.243 59 176.278 59.2604C176.535 61.1979 176.826 63.3924 177.826 65.2674C179.219 67.875 181.68 68.8785 182.705 68.6736C182.528 69.4028 182.285 70.1146 181.989 70.8055C181.628 70.8021 181.274 70.7986 180.927 70.7986C177.587 70.7986 160.778 71.1979 162.045 74.2569C162.003 74.3194 161.972 74.3889 161.979 74.4653C162.201 77.1111 162.722 77.9583 165.858 78.9479C166.864 79.2674 167.885 79.4792 168.868 79.6562C167.483 81.2118 167.108 83.0903 166.736 85.1389C165.451 92.1597 164.059 99.6042 162.76 106.722H157.767L156.739 96.809C156.705 96.4826 156.253 96.4201 156.135 96.7292C152.437 106.41 152.222 106.681 152.205 106.722H146.757C146.583 106.722 146.444 106.861 146.444 107.035C146.444 107.208 146.583 107.347 146.757 107.347H187.767C187.941 107.347 188.083 107.208 188.083 107.035C188.083 106.861 187.941 106.722 187.767 106.722H181.309C181.351 103.562 180.583 100.118 180.58 97.0625C180.576 94.5208 181.08 91.0278 183.5 88.8125C186.114 86.4236 190.114 86.2708 193.375 84.5903C194.698 83.9132 195.517 83.1146 195.885 82.1493C196.219 81.2674 195.972 79.9201 195.243 79.2743C198.382 78.5312 198.5 78.1632 199.694 77.1806C200.031 76.7465 199.965 76.3854 199.892 74.066ZM178.382 64.9722C177.538 63.3924 177.229 61.5972 176.986 59.8264C178.805 60.9305 180.743 62.2153 181.847 64.1319C182.774 65.7535 182.906 67.8264 182.687 68.0208C182.403 68.2708 179.864 67.75 178.382 64.9722ZM185.781 54.9826C187.361 53.3403 189.347 52.1493 191.309 51.0243C191.163 54.5382 190.861 58.3785 188.382 61.0694C186.708 62.8924 184.042 63.4549 183.739 63.2639C183.559 63.0764 183.385 61.8229 183.295 61.493C182.677 59.2465 184.174 56.6562 185.781 54.9826ZM180.927 71.4271C181.187 71.4271 181.444 71.4271 181.701 71.4305C181.302 72.2431 180.819 73.0208 180.257 73.7396H178.465C178.049 73.7396 178.049 74.3646 178.465 74.3646H182.976C183.389 74.3646 183.389 73.7396 182.976 73.7396H181.042C181.566 73.0139 182.021 72.2431 182.396 71.434C192.871 71.5556 199.243 72.941 199.243 73.9479C199.243 73.9549 199.239 73.9653 199.239 73.9722C198.809 74.3854 198.43 74.6111 197.809 74.8229C196.146 75.3819 193.549 75.7535 191.795 75.9444C191.812 74.8021 190.868 74.0799 189.854 73.9618C188.014 73.7396 185.003 75.4479 183.455 76.4549C178.701 76.5417 173.292 76.4097 168.542 75.7569C165.215 75.2951 164.378 74.9444 163.104 74.4236C162.795 74.2535 162.611 74.0764 162.611 73.9479C162.611 72.8958 169.58 71.4271 180.927 71.4271ZM195.299 81.9271C194.989 82.7396 194.267 83.4306 193.087 84.0347C189.899 85.6771 185.823 85.8437 183.08 88.3472C180.489 90.7187 179.948 94.3958 179.951 97.0625C179.958 100.059 180.694 103.538 180.687 106.524H163.434C164.653 99.8507 166.101 92.0799 167.354 85.25C167.896 82.2604 168.451 80.1215 171.257 78.5556C173.521 77.2951 176.191 77.1701 178.757 77.2743C181.25 77.368 181.403 78.0556 181.597 78.1424C182.212 78.8125 182.271 79.6875 181.503 80.2396C180.691 80.8368 179.687 80.8542 174.052 81.9236C173.882 81.9583 173.767 82.1215 173.799 82.2917C173.833 82.4618 173.996 82.5729 174.167 82.5417C180.003 81.4271 180.927 81.441 181.871 80.7465C182.823 80.059 182.934 78.9306 182.281 77.9965C184.114 76.7326 185.951 75.5382 187.969 74.8715C188.521 74.6875 189.167 74.5104 189.778 74.5868C190.864 74.7083 191.503 75.5486 190.993 76.6493C190.729 77.2222 190.205 77.6528 189.708 78.0486C187.531 79.7639 185.035 81.3194 182.347 82.5521C181.965 82.7257 182.236 83.2917 182.608 83.1215C185.267 81.9028 187.812 80.3403 190.097 78.5382C190.562 78.1701 191.042 77.7639 191.382 77.2431C193.41 75.6805 195.003 77.5694 193.434 79.1701C192.677 79.9861 191.625 80.5451 190.698 81.0382L184.597 84.2951C184.233 84.4896 184.528 85.0451 184.892 84.8472L190.993 81.5903C192.094 81.0069 193.073 80.4757 193.917 79.5729C194.316 79.441 194.67 79.5243 194.958 79.875C195.371 80.3819 195.528 81.3194 195.299 81.9271Z" fill="black"/>
</g>
<path d="M186.503 29.4654L188.149 24.6286C188.208 24.4654 188.118 24.2849 187.955 24.2293C187.788 24.1738 187.611 24.264 187.555 24.4272L185.91 29.2606C185.778 29.6529 186.371 29.8578 186.503 29.4654Z" fill="black"/>
<path d="M187.983 31.0036L195.715 25.5765C196.056 25.3369 195.695 24.823 195.354 25.0626L187.622 30.4897C187.281 30.7293 187.642 31.2432 187.983 31.0036Z" fill="black"/>
<path d="M189.497 32.5523C189.337 32.5488 189.177 32.6808 189.17 32.8544C189.163 33.028 189.295 33.1738 189.469 33.1808C195.868 33.4516 193.948 33.3856 194.319 33.3856C194.726 33.3856 194.74 32.778 194.333 32.7572L189.497 32.5523Z" fill="black"/>
<path d="M186.733 40.5351C186.76 45.8059 182.663 50.1358 177.469 50.4691C172.069 50.9309 166.944 46.5212 166.913 40.6358C166.885 35.1635 171.302 30.7052 176.771 30.674C182.247 30.6462 186.705 35.0628 186.733 40.5351Z" fill="#A37AF9"/>
<path d="M176.566 45.2572L176.576 46.9308C176.576 47.3475 177.205 47.344 177.201 46.9273L177.195 45.2607C179.653 45.0593 180.913 42.8405 180.167 41.2398C178.941 38.6218 174.847 40.4968 174.076 38.1947C173.677 37.0037 174.854 35.535 176.625 35.5697C176.625 35.5697 176.622 35.5697 176.632 35.5732C176.636 35.5732 176.636 35.5697 176.639 35.5697C177.972 35.6044 178.962 36.5419 179.267 37.6113C179.379 38.0107 179.983 37.8405 179.872 37.4412C179.514 36.1808 178.413 35.1218 176.941 34.9551L176.934 33.285C176.931 32.9794 176.576 32.9551 176.618 32.9725C176.445 32.9759 176.306 33.1148 176.306 33.2884L176.316 34.9412C174.25 35.0836 172.979 36.8995 173.483 38.3961C173.945 39.778 175.431 40.0905 176.677 40.2051C177.865 40.3162 179.097 40.4343 179.597 41.5037C180.094 42.5662 179.406 44.1704 177.58 44.5766C176.014 44.9204 174.17 44.0732 173.472 42.5002C173.403 42.3405 173.215 42.2711 173.059 42.3405C172.899 42.41 172.83 42.5975 172.899 42.7537C173.535 44.1877 175.021 45.1461 176.566 45.2572Z" fill="black"/>
<path d="M33.4533 126.536H49.6144V167.766H38.9769V135.46L29.8637 167.766H19.2016L10.1458 135.444V167.766H0V126.536H16.7758L25.094 156.26L33.4533 126.536Z" fill="#6828E8"/>
<path d="M53.0621 147.916C53.0621 145.933 53.4227 144.155 54.1439 142.581C54.8651 141.008 55.9018 139.668 57.2581 138.557C58.6185 137.443 60.2658 136.59 62.1999 136C64.1381 135.41 66.3221 135.115 68.7479 135.115C71.2168 135.115 73.4131 135.425 75.3369 136.041C77.2649 136.654 78.9019 137.553 80.2459 138.738C81.5941 139.924 82.6164 141.372 83.311 143.081C84.0096 144.786 84.36 146.728 84.36 148.908V167.765H74.3207V159.84C73.9868 161.197 73.4643 162.418 72.7554 163.504C72.0506 164.586 71.1901 165.51 70.1739 166.274C69.1618 167.04 68.0144 167.624 66.7319 168.028C65.4473 168.431 64.0622 168.634 62.5768 168.634C61.0074 168.634 59.5815 168.413 58.2989 167.97C57.0143 167.528 55.91 166.901 54.988 166.085C54.0701 165.266 53.3612 164.288 52.8654 163.151C52.3675 162.01 52.1196 160.742 52.1196 159.349C52.1196 157.3 52.6564 155.554 53.7341 154.112C54.8097 152.665 56.3607 151.559 58.389 150.793C60.4215 150.029 62.8678 149.646 65.732 149.646H74.3207V148.908C74.3207 146.931 73.8167 145.398 72.8128 144.31C71.813 143.218 70.3747 142.671 68.5021 142.671C66.6171 142.671 65.2362 143.136 64.3634 144.065C63.4886 144.989 63.0522 146.273 63.0522 147.916H53.0621ZM74.3207 155.063H67.0843C65.4882 155.063 64.2753 155.333 63.4455 155.874C62.6137 156.411 62.1999 157.198 62.1999 158.234C62.1999 159.283 62.6096 160.099 63.4292 160.676C64.2528 161.25 65.4083 161.537 66.8958 161.537C67.955 161.537 68.9323 161.398 69.8297 161.119C70.7312 160.84 71.5179 160.453 72.1899 159.955C72.862 159.453 73.3824 158.869 73.7553 158.201C74.1322 157.536 74.3207 156.812 74.3207 156.03V155.063Z" fill="#6828E8"/>
<path d="M121.018 135.976L111.56 151.646L121.968 167.766H110.405L103.799 156.464L97.415 167.766H86.4497L96.2677 151.777L86.335 135.976H97.9067L104.037 147.163L110.06 135.976H121.018Z" fill="#6828E8"/>
<path d="M133.929 125.093V132.821H123.784V125.093H133.929ZM133.872 135.976V167.766H123.841V135.976H133.872Z" fill="#6828E8"/>
<path d="M147.135 151.342V167.765H137.104V135.976H147.135V145.581C147.751 142.139 148.94 139.537 150.7 137.771C152.464 136 154.764 135.115 157.6 135.115C163.357 135.115 166.545 138.834 167.164 146.269C167.699 142.62 168.869 139.85 170.672 137.959C172.474 136.064 174.835 135.115 177.752 135.115C180.975 135.115 183.395 136.277 185.013 138.598C186.63 140.915 187.439 144.368 187.439 148.957V167.765H177.408V151.112C177.408 148.644 177.009 146.8 176.212 145.581C175.413 144.364 174.198 143.753 172.565 143.753C170.864 143.753 169.559 144.398 168.647 145.687C167.74 146.972 167.287 148.857 167.287 151.342V167.765H157.256V151.112C157.256 148.644 156.856 146.8 156.059 145.581C155.26 144.364 154.045 143.753 152.412 143.753C150.712 143.753 149.407 144.398 148.495 145.687C147.587 146.972 147.135 148.857 147.135 151.342Z" fill="#6828E8"/>
<path d="M200.616 125.093V132.821H190.47V125.093H200.616ZM200.559 135.976V167.766H190.528V135.976H200.559Z" fill="#6828E8"/>
<path d="M218.033 135.115C220.453 135.115 222.61 135.375 224.507 135.894C226.409 136.414 228.017 137.164 229.334 138.147C230.65 139.127 231.65 140.317 232.334 141.721C233.022 143.12 233.366 144.704 233.366 146.474H223.442C223.442 145.07 223.003 143.987 222.131 143.22C221.262 142.45 219.983 142.065 218.295 142.065C217.332 142.065 216.484 142.188 215.747 142.434C215.013 142.675 214.439 143.013 214.026 143.45C213.61 143.882 213.403 144.39 213.403 144.974C213.403 145.531 213.56 145.995 213.878 146.359C214.194 146.726 214.632 147.023 215.189 147.252C215.747 147.482 216.396 147.675 217.14 147.826C217.888 147.98 218.693 148.136 219.557 148.293L221.696 148.662C222.532 148.81 223.417 148.982 224.352 149.178C225.29 149.375 226.23 149.625 227.171 149.924C228.109 150.219 229 150.596 229.842 151.055C230.682 151.51 231.434 152.069 232.096 152.735C232.762 153.403 233.284 154.202 233.661 155.136C234.043 156.071 234.235 157.167 234.235 158.423C234.235 160.586 233.633 162.428 232.432 163.946C231.23 165.467 229.482 166.626 227.187 167.429C224.897 168.232 222.114 168.634 218.836 168.634C215.388 168.634 212.477 168.185 210.1 167.29C207.727 166.389 205.931 165.075 204.707 163.348C203.488 161.623 202.88 159.517 202.88 157.029H212.813C212.813 158.505 213.304 159.636 214.288 160.422C215.275 161.205 216.765 161.594 218.754 161.594C219.895 161.594 220.879 161.471 221.705 161.225C222.534 160.98 223.174 160.633 223.622 160.185C224.075 159.732 224.302 159.193 224.302 158.57C224.302 157.98 224.151 157.501 223.852 157.128C223.557 156.751 223.124 156.446 222.557 156.21C221.987 155.976 221.303 155.774 220.5 155.604C219.701 155.429 218.791 155.249 217.771 155.063L215.64 154.677C214.87 154.542 214.036 154.38 213.14 154.194C212.249 154.01 211.35 153.772 210.444 153.481C209.537 153.192 208.666 152.823 207.83 152.375C206.998 151.928 206.256 151.379 205.601 150.727C204.949 150.072 204.433 149.289 204.052 148.375C203.675 147.464 203.486 146.392 203.486 145.163C203.486 143.595 203.814 142.192 204.47 140.95C205.129 139.711 206.086 138.656 207.338 137.787C208.594 136.918 210.12 136.258 211.919 135.804C213.716 135.345 215.755 135.115 218.033 135.115Z" fill="#6828E8"/>
<path d="M258.608 156.882H267.853C267.41 158.707 266.718 160.345 265.779 161.791C264.845 163.239 263.7 164.475 262.345 165.495C260.989 166.511 259.461 167.288 257.756 167.823C256.056 168.364 254.228 168.634 252.273 168.634C250.327 168.634 248.522 168.374 246.856 167.856C245.189 167.337 243.687 166.589 242.349 165.61C241.015 164.633 239.874 163.455 238.923 162.078C237.977 160.701 237.253 159.152 236.752 157.431C236.248 155.71 235.998 153.85 235.998 151.85C235.998 149.85 236.245 147.994 236.743 146.277C237.245 144.562 237.964 143.02 238.899 141.647C239.837 140.27 240.966 139.098 242.283 138.131C243.605 137.16 245.09 136.414 246.742 135.894C248.391 135.375 250.175 135.115 252.093 135.115C254.005 135.115 255.777 135.373 257.412 135.886C259.051 136.4 260.52 137.139 261.821 138.107C263.12 139.074 264.232 140.241 265.156 141.606C266.078 142.966 266.783 144.507 267.271 146.228C267.756 147.949 268 149.816 268 151.825C268 152.625 267.955 153.422 267.869 154.219H245.521C245.684 155.618 246.07 156.816 246.676 157.816C247.283 158.816 248.082 159.582 249.077 160.111C250.071 160.642 251.233 160.906 252.56 160.906C255.472 160.906 257.488 159.566 258.608 156.882ZM245.611 148.736H258.567C257.883 144.694 255.75 142.671 252.167 142.671C250.341 142.671 248.868 143.194 247.75 144.237C246.629 145.275 245.916 146.775 245.611 148.736Z" fill="#6828E8"/>
<path d="M128.919 180.737H133.246L128.395 194.177C128.001 195.279 127.505 196.185 126.911 196.89C126.321 197.595 125.61 198.115 124.781 198.455C123.955 198.793 122.99 198.963 121.888 198.963C121.183 198.963 120.415 198.889 119.585 198.742V195.431C120.185 195.517 120.71 195.562 121.158 195.562C121.791 195.562 122.326 195.472 122.765 195.292C123.207 195.111 123.584 194.825 123.895 194.431L119.036 180.737H123.469L126.174 190.891L128.919 180.737Z" fill="#6828E8"/>
<path d="M133.704 187.383C133.704 186.531 133.81 185.744 134.023 185.023C134.24 184.298 134.552 183.646 134.957 183.073C135.367 182.499 135.853 182.013 136.416 181.614C136.984 181.21 137.617 180.905 138.318 180.696C139.016 180.483 139.764 180.376 140.563 180.376C141.366 180.376 142.116 180.483 142.817 180.696C143.515 180.905 144.146 181.21 144.71 181.614C145.277 182.013 145.763 182.499 146.169 183.073C146.572 183.646 146.882 184.298 147.095 185.023C147.312 185.744 147.423 186.531 147.423 187.383C147.423 188.236 147.312 189.023 147.095 189.744C146.882 190.465 146.572 191.112 146.169 191.686C145.763 192.26 145.277 192.749 144.71 193.153C144.146 193.552 143.515 193.858 142.817 194.071C142.116 194.284 141.366 194.39 140.563 194.39C139.764 194.39 139.016 194.284 138.318 194.071C137.617 193.858 136.984 193.552 136.416 193.153C135.853 192.749 135.367 192.26 134.957 191.686C134.552 191.112 134.24 190.465 134.023 189.744C133.81 189.023 133.704 188.236 133.704 187.383ZM137.932 187.383C137.932 188.482 138.162 189.324 138.621 189.908C139.08 190.494 139.729 190.785 140.571 190.785C141.407 190.785 142.051 190.494 142.505 189.908C142.964 189.324 143.194 188.482 143.194 187.383C143.194 186.275 142.964 185.433 142.505 184.859C142.051 184.282 141.407 183.991 140.571 183.991C139.729 183.991 139.08 184.282 138.621 184.859C138.162 185.433 137.932 186.275 137.932 187.383Z" fill="#6828E8"/>
<path d="M157.193 187.604V180.737H161.381V194.03H157.193V189.965C156.931 191.419 156.415 192.52 155.644 193.267C154.878 194.017 153.882 194.39 152.653 194.39C151.26 194.39 150.211 193.907 149.506 192.94C148.801 191.968 148.449 190.522 148.449 188.604V180.737H152.645V187.703C152.645 188.735 152.821 189.51 153.177 190.022C153.538 190.53 154.083 190.784 154.816 190.784C155.581 190.784 156.169 190.514 156.578 189.973C156.988 189.432 157.193 188.643 157.193 187.604Z" fill="#6828E8"/>
<path d="M166.928 188.211V194.03H162.732V180.737H166.928V185.539C167.031 184.808 167.185 184.146 167.387 183.556C167.594 182.966 167.863 182.462 168.191 182.04C168.518 181.62 168.914 181.298 169.379 181.073C169.848 180.85 170.397 180.737 171.026 180.737H171.911V184.671H170.116C169.494 184.671 168.973 184.742 168.559 184.884C168.15 185.021 167.824 185.234 167.584 185.523C167.348 185.814 167.178 186.183 167.076 186.629C166.978 187.072 166.928 187.6 166.928 188.211Z" fill="#6828E8"/>
<path d="M178.674 185.728C178.674 184.904 178.823 184.161 179.124 183.499C179.424 182.839 179.858 182.278 180.427 181.819C181.001 181.356 181.692 180.999 182.501 180.753C183.308 180.503 184.218 180.376 185.23 180.376C186.263 180.376 187.18 180.506 187.984 180.762C188.791 181.02 189.477 181.397 190.041 181.893C190.602 182.39 191.028 182.997 191.319 183.712C191.614 184.423 191.762 185.234 191.762 186.146V194.03H187.566V190.711C187.422 191.28 187.205 191.79 186.91 192.243C186.615 192.698 186.254 193.085 185.828 193.407C185.406 193.725 184.927 193.968 184.386 194.136C183.849 194.304 183.271 194.39 182.648 194.39C181.997 194.39 181.403 194.296 180.862 194.112C180.325 193.927 179.864 193.665 179.477 193.325C179.094 192.981 178.799 192.571 178.592 192.096C178.383 191.62 178.28 191.092 178.28 190.506C178.28 189.654 178.504 188.924 178.952 188.318C179.405 187.711 180.055 187.25 180.903 186.933C181.749 186.611 182.773 186.449 183.976 186.449H187.566V186.146C187.566 185.316 187.355 184.675 186.935 184.22C186.512 183.761 185.912 183.532 185.132 183.532C184.345 183.532 183.767 183.726 183.402 184.114C183.036 184.503 182.853 185.04 182.853 185.728H178.674ZM187.566 188.719H184.541C183.874 188.719 183.365 188.832 183.017 189.055C182.667 189.281 182.493 189.611 182.493 190.047C182.493 190.485 182.665 190.823 183.009 191.063C183.353 191.305 183.837 191.424 184.46 191.424C184.902 191.424 185.312 191.366 185.689 191.252C186.066 191.137 186.394 190.977 186.672 190.768C186.955 190.555 187.174 190.309 187.328 190.031C187.486 189.752 187.566 189.449 187.566 189.121V188.719Z" fill="#6828E8"/>
<path d="M199.006 180.376C200.016 180.376 200.918 180.487 201.711 180.704C202.508 180.924 203.18 181.237 203.727 181.647C204.278 182.057 204.698 182.554 204.989 183.138C205.278 183.724 205.423 184.388 205.423 185.13H201.268C201.268 184.54 201.084 184.087 200.719 183.769C200.359 183.448 199.822 183.286 199.113 183.286C198.713 183.286 198.359 183.339 198.048 183.442C197.74 183.54 197.5 183.679 197.326 183.859C197.156 184.04 197.072 184.253 197.072 184.499C197.072 184.734 197.138 184.929 197.269 185.081C197.404 185.234 197.589 185.359 197.818 185.458C198.052 185.552 198.326 185.63 198.638 185.695C198.949 185.761 199.285 185.824 199.646 185.884L200.539 186.039C200.887 186.101 201.256 186.175 201.645 186.261C202.039 186.343 202.432 186.447 202.825 186.572C203.219 186.693 203.59 186.849 203.94 187.039C204.294 187.232 204.612 187.465 204.891 187.744C205.169 188.023 205.386 188.359 205.546 188.752C205.704 189.141 205.784 189.596 205.784 190.121C205.784 191.028 205.532 191.799 205.03 192.432C204.526 193.067 203.794 193.552 202.834 193.891C201.877 194.222 200.713 194.39 199.342 194.39C197.9 194.39 196.681 194.204 195.687 193.833C194.698 193.456 193.946 192.907 193.434 192.186C192.925 191.465 192.671 190.584 192.671 189.539H196.826C196.826 190.158 197.031 190.629 197.441 190.957C197.855 191.284 198.478 191.448 199.31 191.448C199.785 191.448 200.195 191.399 200.539 191.301C200.887 191.198 201.156 191.053 201.342 190.866C201.533 190.676 201.629 190.449 201.629 190.186C201.629 189.94 201.565 189.742 201.44 189.588C201.313 189.43 201.133 189.301 200.899 189.203C200.664 189.1 200.377 189.012 200.039 188.941C199.705 188.871 199.326 188.797 198.9 188.719L198.007 188.555C197.683 188.502 197.335 188.437 196.958 188.359C196.585 188.277 196.208 188.176 195.827 188.055C195.45 187.937 195.085 187.783 194.737 187.597C194.392 187.412 194.083 187.183 193.811 186.908C193.536 186.636 193.321 186.308 193.163 185.925C193.003 185.544 192.925 185.095 192.925 184.581C192.925 183.925 193.061 183.339 193.335 182.819C193.614 182.3 194.015 181.86 194.54 181.499C195.064 181.135 195.7 180.856 196.449 180.663C197.203 180.473 198.056 180.376 199.006 180.376Z" fill="#6828E8"/>
<path d="M212.739 180.376C213.749 180.376 214.65 180.487 215.443 180.704C216.24 180.924 216.912 181.237 217.459 181.647C218.01 182.057 218.43 182.554 218.721 183.138C219.01 183.724 219.156 184.388 219.156 185.13H215.001C215.001 184.54 214.816 184.087 214.452 183.769C214.091 183.448 213.554 183.286 212.845 183.286C212.446 183.286 212.091 183.339 211.78 183.442C211.473 183.54 211.233 183.679 211.059 183.859C210.889 184.04 210.805 184.253 210.805 184.499C210.805 184.734 210.87 184.929 211.001 185.081C211.137 185.234 211.321 185.359 211.55 185.458C211.784 185.552 212.059 185.63 212.37 185.695C212.681 185.761 213.017 185.824 213.378 185.884L214.271 186.039C214.62 186.101 214.988 186.175 215.378 186.261C215.771 186.343 216.164 186.447 216.558 186.572C216.951 186.693 217.322 186.849 217.672 187.039C218.027 187.232 218.344 187.465 218.623 187.744C218.902 188.023 219.119 188.359 219.279 188.752C219.436 189.141 219.516 189.596 219.516 190.121C219.516 191.028 219.264 191.799 218.762 192.432C218.258 193.067 217.527 193.552 216.566 193.891C215.609 194.222 214.445 194.39 213.075 194.39C211.632 194.39 210.413 194.204 209.42 193.833C208.43 193.456 207.678 192.907 207.166 192.186C206.658 191.465 206.404 190.584 206.404 189.539H210.559C210.559 190.158 210.764 190.629 211.173 190.957C211.587 191.284 212.21 191.448 213.042 191.448C213.517 191.448 213.927 191.399 214.271 191.301C214.62 191.198 214.888 191.053 215.074 190.866C215.265 190.676 215.361 190.449 215.361 190.186C215.361 189.94 215.298 189.742 215.173 189.588C215.046 189.43 214.865 189.301 214.632 189.203C214.396 189.1 214.109 189.012 213.771 188.941C213.437 188.871 213.058 188.797 212.632 188.719L211.739 188.555C211.415 188.502 211.067 188.437 210.69 188.359C210.317 188.277 209.94 188.176 209.559 188.055C209.182 187.937 208.817 187.783 208.469 187.597C208.125 187.412 207.815 187.183 207.543 186.908C207.268 186.636 207.053 186.308 206.896 185.925C206.736 185.544 206.658 185.095 206.658 184.581C206.658 183.925 206.793 183.339 207.068 182.819C207.346 182.3 207.748 181.86 208.272 181.499C208.797 181.135 209.432 180.856 210.182 180.663C210.936 180.473 211.788 180.376 212.739 180.376Z" fill="#6828E8"/>
<path d="M229.708 189.481H233.568C233.388 190.242 233.101 190.924 232.708 191.53C232.314 192.137 231.833 192.653 231.265 193.079C230.702 193.505 230.063 193.831 229.348 194.054C228.637 194.278 227.873 194.39 227.053 194.39C226.244 194.39 225.49 194.28 224.791 194.063C224.097 193.85 223.468 193.538 222.906 193.128C222.349 192.719 221.87 192.227 221.472 191.653C221.079 191.075 220.775 190.428 220.562 189.711C220.353 188.99 220.251 188.211 220.251 187.375C220.251 186.539 220.353 185.765 220.562 185.048C220.775 184.327 221.075 183.679 221.464 183.106C221.857 182.532 222.328 182.044 222.882 181.639C223.433 181.235 224.054 180.924 224.742 180.704C225.43 180.487 226.178 180.376 226.988 180.376C227.785 180.376 228.524 180.487 229.208 180.704C229.891 180.917 230.503 181.227 231.044 181.63C231.589 182.036 232.056 182.524 232.446 183.097C232.833 183.667 233.128 184.31 233.331 185.031C233.531 185.748 233.634 186.527 233.634 187.367C233.634 187.701 233.613 188.035 233.577 188.367H224.234C224.304 188.953 224.465 189.455 224.717 189.875C224.967 190.291 225.301 190.61 225.717 190.834C226.137 191.053 226.623 191.161 227.176 191.161C228.393 191.161 229.237 190.602 229.708 189.481ZM224.275 186.072H229.692C229.407 184.38 228.514 183.532 227.012 183.532C226.252 183.532 225.637 183.751 225.168 184.187C224.697 184.626 224.4 185.253 224.275 186.072Z" fill="#6828E8"/>
<path d="M243.559 193.923C242.969 194.074 242.416 194.189 241.903 194.267C241.389 194.349 240.908 194.39 240.461 194.39C238.93 194.39 237.775 193.947 236.994 193.062C236.218 192.173 235.831 190.85 235.831 189.096V184.015H234.241V180.737H235.831V177.68H240.027V180.737H243.559V184.015H240.027V189.096C240.027 189.801 240.152 190.315 240.404 190.636C240.66 190.96 241.072 191.12 241.641 191.12C241.871 191.12 242.141 191.095 242.452 191.046C242.764 190.993 243.133 190.913 243.559 190.809V193.923Z" fill="#6828E8"/>
<path d="M250.65 180.376C251.66 180.376 252.562 180.487 253.355 180.704C254.152 180.924 254.824 181.237 255.371 181.647C255.922 182.057 256.342 182.554 256.633 183.138C256.922 183.724 257.067 184.388 257.067 185.13H252.912C252.912 184.54 252.728 184.087 252.363 183.769C252.003 183.448 251.466 183.286 250.757 183.286C250.357 183.286 250.003 183.339 249.692 183.442C249.384 183.54 249.145 183.679 248.97 183.859C248.8 184.04 248.716 184.253 248.716 184.499C248.716 184.734 248.782 184.929 248.913 185.081C249.048 185.234 249.233 185.359 249.462 185.458C249.696 185.552 249.97 185.63 250.282 185.695C250.593 185.761 250.929 185.824 251.29 185.884L252.183 186.039C252.531 186.101 252.9 186.175 253.289 186.261C253.683 186.343 254.076 186.447 254.469 186.572C254.863 186.693 255.234 186.849 255.584 187.039C255.938 187.232 256.256 187.465 256.535 187.744C256.813 188.023 257.03 188.359 257.19 188.752C257.348 189.141 257.428 189.596 257.428 190.121C257.428 191.028 257.176 191.799 256.674 192.432C256.17 193.067 255.439 193.552 254.478 193.891C253.521 194.222 252.357 194.39 250.986 194.39C249.544 194.39 248.325 194.204 247.331 193.833C246.342 193.456 245.59 192.907 245.078 192.186C244.569 191.465 244.315 190.584 244.315 189.539H248.47C248.47 190.158 248.675 190.629 249.085 190.957C249.499 191.284 250.122 191.448 250.954 191.448C251.429 191.448 251.839 191.399 252.183 191.301C252.531 191.198 252.8 191.053 252.986 190.866C253.177 190.676 253.273 190.449 253.273 190.186C253.273 189.94 253.209 189.742 253.084 189.588C252.957 189.43 252.777 189.301 252.544 189.203C252.308 189.1 252.021 189.012 251.683 188.941C251.349 188.871 250.97 188.797 250.544 188.719L249.651 188.555C249.327 188.502 248.979 188.437 248.602 188.359C248.229 188.277 247.852 188.176 247.471 188.055C247.094 187.937 246.729 187.783 246.381 187.597C246.036 187.412 245.727 187.183 245.455 186.908C245.18 186.636 244.965 186.308 244.807 185.925C244.647 185.544 244.569 185.095 244.569 184.581C244.569 183.925 244.705 183.339 244.979 182.819C245.258 182.3 245.659 181.86 246.184 181.499C246.708 181.135 247.344 180.856 248.093 180.663C248.847 180.473 249.7 180.376 250.65 180.376Z" fill="#6828E8"/>
<path d="M262.539 189.833V194.029H258.491V189.833H262.539Z" fill="#6828E8"/>
<mask id="mask4_7024_21411" style="mask-type:luminance" maskUnits="userSpaceOnUse" x="44" y="30" width="53" height="53">
<path d="M44.0312 30H96.0729V82.0417H44.0312V30Z" fill="white"/>
</mask>
<g mask="url(#mask4_7024_21411)">
<mask id="mask5_7024_21411" style="mask-type:luminance" maskUnits="userSpaceOnUse" x="44" y="30" width="53" height="53">
<path d="M70.0521 30C55.6806 30 44.0312 41.6493 44.0312 56.0208C44.0312 70.3924 55.6806 82.0417 70.0521 82.0417C84.4236 82.0417 96.0729 70.3924 96.0729 56.0208C96.0729 41.6493 84.4236 30 70.0521 30Z" fill="white"/>
</mask>
<g mask="url(#mask5_7024_21411)">
<mask id="mask6_7024_21411" style="mask-type:luminance" maskUnits="userSpaceOnUse" x="43" y="29" width="54" height="54">
<path d="M96.2154 29.6665H43.771V82.111H96.2154V29.6665Z" fill="white"/>
</mask>
<g mask="url(#mask6_7024_21411)">
<mask id="mask7_7024_21411" style="mask-type:luminance" maskUnits="userSpaceOnUse" x="44" y="30" width="53" height="53">
<path d="M44.0312 30H96.0729V82.0417H44.0312V30Z" fill="white"/>
</mask>
<g mask="url(#mask7_7024_21411)">
<mask id="mask8_7024_21411" style="mask-type:luminance" maskUnits="userSpaceOnUse" x="44" y="30" width="53" height="53">
<path d="M70.0521 30C55.6806 30 44.0312 41.6493 44.0312 56.0208C44.0312 70.3924 55.6806 82.0417 70.0521 82.0417C84.4236 82.0417 96.0729 70.3924 96.0729 56.0208C96.0729 41.6493 84.4236 30 70.0521 30Z" fill="white"/>
</mask>
<g mask="url(#mask8_7024_21411)">
<path d="M44.0312 30H96.0729V82.0417H44.0312V30Z" fill="#6828E8"/>
</g>
</g>
</g>
</g>
</g>
<path d="M79.5573 67.9306H61.0156V64.4028C61.0156 63.6076 61.099 62.8958 61.2656 62.2639C61.4323 61.6354 61.6615 61.0764 61.9601 60.5833C62.2656 60.0833 62.6163 59.6458 63.0156 59.2639C63.4115 58.8854 63.842 58.5521 64.3073 58.2639C64.7691 57.9792 65.2517 57.7292 65.7517 57.5139C66.2517 57.2917 66.7448 57.0972 67.2378 56.9306C67.7378 56.7639 68.217 56.6076 68.6823 56.4583L69.4323 56.2361C69.9392 56.0799 70.4219 55.9236 70.8767 55.7639C71.3385 55.6076 71.7656 55.4375 72.1545 55.25C72.5434 55.066 72.8802 54.8576 73.1684 54.625C73.4531 54.3958 73.6753 54.1215 73.8351 53.8056C73.9913 53.4826 74.0712 53.1111 74.0712 52.6944C74.0712 52.1493 73.9219 51.6632 73.6267 51.2361C73.3281 50.8021 72.908 50.4653 72.3628 50.2222C71.8247 49.9722 71.1823 49.8472 70.4323 49.8472C69.217 49.8472 68.2865 50.1875 67.6406 50.8611C67.0017 51.5278 66.6823 52.4965 66.6823 53.7639V54.2083H61.1128V53.6944C61.1128 52.3611 61.3281 51.1597 61.7656 50.0833C62.2101 49.0104 62.849 48.0972 63.6823 47.3472C64.5156 46.5903 65.5191 46.0104 66.6962 45.6111C67.8698 45.2049 69.1997 45 70.6823 45C72.0781 45 73.3281 45.1806 74.4323 45.5417C75.5434 45.9028 76.4809 46.4271 77.2517 47.1111C78.0295 47.7882 78.6163 48.6076 79.0156 49.5694C79.4219 50.5347 79.6267 51.6111 79.6267 52.8056C79.6267 53.5938 79.5365 54.2986 79.3628 54.9167C79.1962 55.5382 78.9635 56.0903 78.6684 56.5694C78.3698 57.0417 78.0226 57.4583 77.6267 57.8194C77.2274 58.1736 76.7969 58.4792 76.3351 58.7361C75.8802 58.9965 75.408 59.2188 74.9184 59.4028C74.4253 59.5903 73.9392 59.75 73.4601 59.8889C72.9774 60.0278 72.5191 60.1528 72.0851 60.2639L70.9323 60.5694C70.467 60.691 70.0052 60.8194 69.5434 60.9583C69.0885 61.0972 68.6615 61.2639 68.2656 61.4583C67.8663 61.6458 67.5295 61.875 67.2517 62.1528C66.974 62.4306 66.783 62.7708 66.6823 63.1667H79.5573V67.9306Z" fill="white"/>
</svg>
