<svg width="254" height="202" viewBox="0 0 254 202" fill="none" xmlns="http://www.w3.org/2000/svg">
<path d="M87.736 53.9356C88.0589 54.5571 89.0242 54.0884 88.7117 53.4321C88.7082 53.4252 88.6423 53.2759 88.6423 53.2689C86.5138 49.203 86.5937 43.6578 88.7916 39.9182C91.7325 40.4738 94.4305 42.1162 96.8089 44.8176C97.295 45.3627 98.111 44.6335 97.6353 44.0884C94.9825 41.0849 91.9409 39.2967 88.6006 38.7724C88.368 38.7377 88.17 38.8384 88.052 39.0224C85.4721 43.0676 85.3124 49.2724 87.6735 53.7967C87.6805 53.8141 87.7256 53.9217 87.736 53.9356Z" fill="black"/>
<mask id="mask0_12020_18257" style="mask-type:luminance" maskUnits="userSpaceOnUse" x="160" y="53" width="18" height="14">
<path d="M160.333 53.0889H177.736V66.4222H160.333V53.0889Z" fill="white"/>
</mask>
<g mask="url(#mask0_12020_18257)">
<path d="M176.546 54.0124C175.893 59.5749 172.677 62.0992 169.879 62.1305C170.632 60.5541 171.167 58.0819 170.684 56.4152C169.809 53.3909 166.396 53.3214 164.962 55.9083C163.677 58.2208 164.674 61.9083 168.08 62.9638C166.052 65.5194 162.823 65.1756 161.66 63.3388C161.282 62.7277 160.341 63.311 160.733 63.9291C162.302 66.4048 166.747 66.9187 169.264 63.1999C172.851 63.5333 176.879 60.5888 177.636 54.1409C177.723 53.4152 176.629 53.3041 176.546 54.0124ZM169.691 58.9117C169.528 60.068 169.191 61.1166 168.712 61.9985C165.813 61.311 164.896 58.2902 165.921 56.4395C167.153 54.2208 170.271 54.7242 169.691 58.9117Z" fill="black"/>
</g>
<mask id="mask1_12020_18257" style="mask-type:luminance" maskUnits="userSpaceOnUse" x="83" y="36" width="80" height="71">
<path d="M83 36.1992H163V106.234H83V36.1992Z" fill="white"/>
</mask>
<g mask="url(#mask1_12020_18257)">
<path d="M151.937 47.3416C150.868 47.6367 149.778 47.8416 148.663 47.9527C148.639 47.977 148.639 47.977 148.618 47.9527C141.177 48.9805 132.378 44.7166 128.614 36.7687C123.364 36.043 117.976 36.2235 112.771 37.4075C109.18 38.2235 96.8818 41.5673 89.722 50.227C80.5901 61.2478 81.5831 80.3832 96.3366 90.8937L94.1977 99.9388C93.913 101.206 94.6943 102.349 95.6318 102.689C99.1283 104.067 101.132 104.741 103.906 105.849C105.041 106.286 106.305 105.807 106.882 104.713C107.802 102.897 108.66 101.349 110.837 97.3034C118.788 99.0569 127.212 98.5777 135.069 96.7131C136.58 99.5985 137.642 101.414 139.114 104.279C139.798 105.373 140.916 105.876 142.069 105.394C144.847 104.293 146.368 103.776 150.344 102.234C150.344 102.234 150.344 102.234 150.368 102.234C151.437 101.779 152.048 100.599 151.778 99.4839L149.594 90.2548C157.017 85.1298 162.142 76.4353 162.142 67.6402C162.142 59.7027 157.785 52.6124 151.937 47.3416ZM89.9269 70.095C88.6977 70.095 87.722 69.1402 87.722 67.9353C87.722 66.7062 88.6977 65.7305 89.9269 65.7305C91.1318 65.7305 92.1075 66.7062 92.1075 67.9353C92.1075 69.1402 91.1318 70.095 89.9269 70.095ZM115.701 53.0464C115.66 53.4318 115.149 53.6367 114.816 53.3867C111.246 50.7027 107.111 49.6367 102.541 50.2478C102.142 50.293 101.791 49.9006 101.951 49.477C103.927 44.4318 107.476 40.7235 112.156 38.793C112.406 38.7027 112.656 38.7687 112.816 38.9527C115.906 42.6784 116.906 47.5673 115.701 53.0464Z" fill="#FF4B00"/>
</g>
<mask id="mask2_12020_18257" style="mask-type:luminance" maskUnits="userSpaceOnUse" x="76" y="59" width="21" height="19">
<path d="M76.4512 59.3105H96.3331V77.0883H76.4512V59.3105Z" fill="white"/>
</mask>
<g mask="url(#mask2_12020_18257)">
<path d="M84.833 60.2517C80.0621 60.842 76.3989 64.2066 76.3989 68.3212C76.3989 73.46 81.8121 76.8559 87.2427 76.4357H87.3121C92.2913 76.026 96.1767 72.5503 96.1767 68.3212C96.1767 62.96 90.2253 59.4809 84.833 60.2517ZM81.5135 70.0955C80.3121 70.0955 79.333 69.1406 79.333 67.9357C79.333 66.7066 80.3121 65.7309 81.5135 65.7309C82.7218 65.7309 83.7218 66.7066 83.7218 67.9357C83.7218 69.1406 82.7218 70.0955 81.5135 70.0955ZM89.9267 70.0955C88.6975 70.0955 87.7218 69.1406 87.7218 67.9357C87.7218 66.7066 88.6975 65.7309 89.9267 65.7309C91.1316 65.7309 92.1073 66.7066 92.1073 67.9357C92.1073 69.1406 91.1316 70.0955 89.9267 70.0955Z" fill="#FF4B00"/>
</g>
<path d="M159.514 28.0604C159.514 35.418 153.542 41.3764 146.184 41.3764C138.826 41.3764 132.868 35.418 132.868 28.0604C132.868 20.7027 138.826 14.7271 146.184 14.7271C153.542 14.7271 159.514 20.7027 159.514 28.0604Z" fill="#FF4B00"/>
<path d="M139.114 104.279C137.66 101.45 136.573 99.5884 135.069 96.71C133.302 97.1301 130.889 97.5815 130.385 97.644C130.569 99.3037 130.75 100.918 130.91 102.713C131 103.918 132.024 104.873 133.205 104.873C138.798 104.998 137.594 104.974 139.729 105.009C139.444 104.821 139.253 104.502 139.114 104.279Z" fill="black"/>
<path d="M96.3368 90.8938C93.75 89.05 91.6077 86.8209 91.4271 86.5049C90.9931 86.9389 91.2639 86.3139 92.3577 100.279C92.4931 102.012 94.4931 102.856 94.9722 102.279C94.3299 101.744 93.9931 100.852 94.1979 99.9389L96.3368 90.8938Z" fill="black"/>
<path d="M112.174 38.8074C107.479 40.7483 103.948 44.4358 101.965 49.481C101.813 49.8664 102.122 50.2761 102.545 50.2275C107.115 49.6199 111.25 50.6858 114.827 53.3699C115.139 53.606 115.604 53.4497 115.691 53.0504C116.893 47.5643 115.896 42.6928 112.806 38.9671C112.653 38.7796 112.396 38.7171 112.174 38.8074ZM114.781 51.9879C111.389 49.6685 107.538 48.6754 103.34 49.0365C105.205 44.8421 108.254 41.731 112.215 39.9844C114.733 43.2136 115.611 47.3386 114.781 51.9879Z" fill="black"/>
<path d="M87.3125 60.2061C92.2917 60.6159 96.1771 64.0707 96.1771 68.3207C96.1771 72.5499 92.2917 76.0256 87.3125 76.4353C93.7292 76.8902 98.1319 72.6784 98.1319 68.3207C98.1319 63.8971 93.6563 59.7513 87.3125 60.2061Z" fill="black"/>
<path d="M105.833 56.3872C104.635 55.9462 103.184 56.3455 102.385 57.3421C101.934 57.908 102.785 58.5955 103.243 58.0296C103.743 57.4011 104.691 57.1372 105.451 57.4185C106.229 57.7067 106.823 58.5018 107.302 59.1407C107.733 59.7171 108.622 59.0712 108.181 58.481C107.618 57.7275 106.913 56.79 105.833 56.3872Z" fill="black"/>
<path d="M89.1667 54.5498C88.9202 55.2338 89.9514 55.6123 90.2014 54.9248C90.5521 53.9595 91.875 53.3797 93.0938 54.529C93.4549 54.8692 93.75 55.2963 94.0243 55.7095C94.4271 56.3172 95.3403 55.7026 94.9375 55.1019C94.632 54.6366 94.2952 54.147 93.8472 53.7303C92.0417 52.0255 89.7778 52.8658 89.1667 54.5498Z" fill="black"/>
<path d="M152.67 48.5018C163.243 47.5052 171.215 38.7101 171.215 28.0434C171.215 15.54 160.042 6.18232 148.712 7.59898C148.694 7.59551 148.674 7.58509 148.653 7.58509C148.628 7.58509 148.601 7.58857 148.569 7.59204C147.851 7.50176 147.153 7.48787 146.618 7.48787C135.271 7.48787 126.042 16.7101 126.042 28.0434C126.042 33.3247 128.08 38.2483 131.448 41.9115C130.003 41.8455 128.538 41.8698 127.108 42.0643C125.417 41.9913 125.035 45.6163 126.972 45.6997C136.979 44.1545 145.979 52.1233 148.122 55.1997C148.132 55.217 148.146 55.2309 148.156 55.2483C149.441 56.724 152.042 54.2518 150.875 52.9983C149.83 51.3733 148.545 49.9323 147.139 48.6059C147.576 48.599 148.056 48.5782 148.566 48.5157C149.42 48.6198 151.361 48.6893 152.67 48.5018ZM127.142 28.0434C127.142 17.3143 135.878 8.58857 146.618 8.58857C157.226 8.58857 166.069 17.1059 166.069 28.0434C166.069 43.4844 148.861 52.8073 135.934 44.3177C134.424 43.3247 133.597 42.4913 133.174 42.1233C129.472 38.6129 127.142 33.5191 127.142 28.0434Z" fill="black"/>
<path d="M143.261 33.8312C145.629 29.6993 148.32 25.8277 150.695 22.1507C151.087 21.543 150.167 20.9458 149.771 21.5569C147.292 25.3972 144.684 29.1298 142.306 33.2861C141.948 33.918 142.906 34.4562 143.261 33.8312Z" fill="black"/>
<path d="M144.497 24.887C144.983 24.1127 144.948 23.0363 144.406 22.2689C143.844 21.4703 142.403 20.7342 141.413 21.4043C140.476 22.0432 140.108 23.4946 140.611 24.5745C141.403 26.2793 143.58 26.3314 144.497 24.887ZM142.309 22.2412C142.705 22.2412 143.264 22.5502 143.511 22.9009C143.795 23.3071 143.82 23.8974 143.563 24.3002C143.122 25.005 142.038 25.0328 141.608 24.1127C141.271 23.387 141.684 22.2412 142.309 22.2412Z" fill="black"/>
<path d="M148.986 29.9528C147.187 31.1785 147.861 34.4633 150.187 34.4633C152.076 34.4633 153.031 32.307 151.979 30.8174C151.413 30.0154 149.975 29.2758 148.986 29.9528ZM151.08 31.4459C151.757 32.4042 150.896 33.6195 149.909 33.3278C148.59 32.9285 149.003 30.7862 149.882 30.7862C150.278 30.7862 150.833 31.0952 151.08 31.4459Z" fill="black"/>
<path d="M127.253 8.70309C127.715 9.2517 128.566 8.5642 128.1 8.0017L121.614 0.203089C121.146 -0.352467 120.305 0.348922 120.767 0.904478L127.253 8.70309Z" fill="black"/>
<path d="M132.233 5.83825L131.386 1.51186C131.243 0.796584 130.17 1.01186 130.309 1.72367L131.156 6.05006C131.299 6.77228 132.372 6.54658 132.233 5.83825Z" fill="black"/>
<path d="M125.653 11.4146C125.653 11.4146 125.649 11.4146 125.646 11.4146L120.927 11.484C120.208 11.4944 120.212 12.5847 120.938 12.5847C120.938 12.5847 120.941 12.5847 120.944 12.5847L125.663 12.5152C126.382 12.5048 126.378 11.4146 125.653 11.4146Z" fill="black"/>
<path d="M0 150.786C0 148.105 0.33088 145.627 0.994749 143.351C1.65651 141.07 2.60489 139.024 3.83569 137.214C5.07069 135.405 6.55228 133.867 8.27834 132.602C10.0023 131.338 11.9286 130.373 14.0529 129.703C16.1815 129.028 18.4661 128.691 20.9066 128.691C23.345 128.691 25.6274 129.028 27.7518 129.703C29.8804 130.373 31.8088 131.338 33.5349 132.602C35.2588 133.867 36.7404 135.405 37.9775 137.214C39.2125 139.024 40.1609 141.07 40.8184 143.351C41.4802 145.627 41.8132 148.105 41.8132 150.786C41.8132 153.463 41.4802 155.941 40.8184 158.221C40.1609 160.498 39.2125 162.542 37.9775 164.35C36.7404 166.161 35.2588 167.697 33.5349 168.961C31.8088 170.226 29.8804 171.195 27.7518 171.87C25.6274 172.544 23.345 172.881 20.9066 172.881C18.4661 172.881 16.1815 172.544 14.0529 171.87C11.9286 171.195 10.0023 170.226 8.27834 168.961C6.55228 167.697 5.07069 166.161 3.83569 164.35C2.60489 162.542 1.65651 160.498 0.994749 158.221C0.33088 155.941 0 153.463 0 150.786ZM11.035 150.786C11.035 155.024 11.8822 158.238 13.5809 160.43C15.2837 162.618 17.7242 163.709 20.9066 163.709C24.0868 163.709 26.5295 162.618 28.2323 160.43C29.9352 158.238 30.7866 155.024 30.7866 150.786C30.7866 146.533 29.9352 143.315 28.2323 141.134C26.5295 138.948 24.0868 137.854 20.9066 137.854C17.7242 137.854 15.2837 138.948 13.5809 141.134C11.8822 143.315 11.035 146.533 11.035 150.786Z" fill="#FF4B00"/>
<path d="M55.1583 139.288V149.125C55.8327 145.642 57.0571 142.984 58.8338 141.151C60.6146 139.319 62.8739 138.402 65.6116 138.402C67.1332 138.402 68.5558 138.672 69.8772 139.212C71.1965 139.751 72.3851 140.525 73.4431 141.53C74.499 142.537 75.4031 143.747 76.1576 145.163C76.9163 146.58 77.4938 148.171 77.8942 149.935C78.2988 151.694 78.5011 153.593 78.5011 155.633C78.5011 157.669 78.2988 159.568 77.8942 161.332C77.4938 163.098 76.9163 164.692 76.1576 166.112C75.4031 167.528 74.499 168.742 73.4431 169.754C72.3851 170.761 71.1965 171.533 69.8772 172.072C68.5558 172.612 67.1332 172.881 65.6116 172.881C62.8739 172.881 60.6146 171.962 58.8338 170.125C57.0571 168.283 55.8327 165.621 55.1583 162.141V183.217H44.8398V139.288H55.1583ZM55.1583 155.633C55.1583 158.361 55.7189 160.445 56.8443 161.889C57.9676 163.334 59.5756 164.055 61.6663 164.055C63.7949 164.055 65.3966 163.351 66.4714 161.939C67.5505 160.523 68.09 158.422 68.09 155.633C68.09 152.847 67.5505 150.748 66.4714 149.336C65.3966 147.926 63.7949 147.22 61.6663 147.22C59.5756 147.22 57.9676 147.941 56.8443 149.378C55.7189 150.818 55.1583 152.902 55.1583 155.633Z" fill="#FF4B00"/>
<path d="M102.911 171.735C101.466 172.11 100.112 172.394 98.848 172.586C97.5834 172.782 96.3969 172.881 95.2905 172.881C91.5307 172.881 88.6918 171.79 86.7761 169.602C84.8582 167.416 83.9014 164.162 83.9014 159.84V147.355H79.9814V139.287H83.9014V131.759H94.2198V139.287H102.911V147.355H94.2198V159.857C94.2198 161.589 94.5318 162.849 95.1556 163.642C95.7836 164.43 96.7952 164.822 98.1904 164.822C98.7637 164.822 99.4296 164.761 100.188 164.637C100.951 164.508 101.86 164.314 102.911 164.055V171.735Z" fill="#FF4B00"/>
<path d="M116.088 128.092V136.042H105.652V128.092H116.088ZM116.029 139.287V171.988H105.711V139.287H116.029Z" fill="#FF4B00"/>
<path d="M129.672 155.094V171.988H119.354V139.288H129.672V149.168C130.306 145.627 131.529 142.95 133.339 141.134C135.154 139.313 137.52 138.402 140.437 138.402C146.359 138.402 149.639 142.227 150.275 149.876C150.825 146.122 152.029 143.273 153.883 141.328C155.738 139.378 158.166 138.402 161.167 138.402C164.482 138.402 166.971 139.597 168.636 141.985C170.299 144.369 171.131 147.92 171.131 152.641V171.988H160.813V154.858C160.813 152.318 160.402 150.422 159.582 149.168C158.76 147.916 157.51 147.288 155.83 147.288C154.081 147.288 152.739 147.952 151.801 149.277C150.867 150.599 150.401 152.537 150.401 155.094V171.988H140.083V154.858C140.083 152.318 139.672 150.422 138.852 149.168C138.03 147.916 136.781 147.288 135.101 147.288C133.352 147.288 132.009 147.952 131.071 149.277C130.138 150.599 129.672 152.537 129.672 155.094Z" fill="#FF4B00"/>
<path d="M184.685 128.092V136.042H174.249V128.092H184.685ZM184.626 139.287V171.988H174.308V139.287H184.626Z" fill="#FF4B00"/>
<path d="M202.602 138.402C205.091 138.402 207.31 138.67 209.262 139.203C211.217 139.739 212.872 140.51 214.227 141.521C215.58 142.529 216.608 143.753 217.312 145.197C218.02 146.636 218.375 148.266 218.375 150.086H208.166C208.166 148.643 207.715 147.528 206.817 146.74C205.923 145.947 204.608 145.551 202.872 145.551C201.881 145.551 201.009 145.678 200.25 145.93C199.495 146.179 198.905 146.527 198.48 146.976C198.052 147.42 197.839 147.943 197.839 148.544C197.839 149.117 198.001 149.593 198.328 149.968C198.652 150.346 199.103 150.651 199.677 150.887C200.25 151.123 200.918 151.321 201.683 151.477C202.452 151.635 203.28 151.796 204.17 151.958L206.37 152.337C207.23 152.489 208.14 152.666 209.101 152.868C210.067 153.071 211.034 153.328 212.001 153.635C212.967 153.939 213.883 154.327 214.75 154.799C215.614 155.267 216.387 155.842 217.068 156.527C217.753 157.214 218.29 158.036 218.678 158.997C219.07 159.958 219.268 161.086 219.268 162.377C219.268 164.603 218.649 166.498 217.414 168.059C216.176 169.623 214.379 170.816 212.018 171.642C209.662 172.468 206.8 172.881 203.428 172.881C199.881 172.881 196.886 172.42 194.442 171.499C192.001 170.572 190.153 169.221 188.895 167.444C187.641 165.669 187.015 163.503 187.015 160.944H197.232C197.232 162.462 197.738 163.625 198.749 164.434C199.765 165.239 201.297 165.64 203.344 165.64C204.518 165.64 205.529 165.513 206.379 165.261C207.232 165.008 207.89 164.652 208.351 164.19C208.817 163.724 209.051 163.17 209.051 162.529C209.051 161.922 208.895 161.429 208.587 161.046C208.284 160.658 207.839 160.344 207.255 160.101C206.669 159.861 205.965 159.652 205.139 159.478C204.317 159.298 203.382 159.113 202.332 158.921L200.14 158.525C199.348 158.386 198.49 158.219 197.569 158.028C196.652 157.838 195.727 157.593 194.796 157.294C193.862 156.997 192.966 156.618 192.106 156.156C191.251 155.697 190.488 155.132 189.813 154.462C189.143 153.787 188.612 152.982 188.22 152.042C187.832 151.104 187.638 150.002 187.638 148.738C187.638 147.125 187.976 145.682 188.65 144.405C189.329 143.13 190.313 142.044 191.601 141.151C192.893 140.257 194.463 139.578 196.313 139.11C198.161 138.638 200.258 138.402 202.602 138.402Z" fill="#FF4B00"/>
<path d="M244.339 160.793H253.848C253.393 162.67 252.681 164.354 251.715 165.842C250.754 167.332 249.576 168.603 248.183 169.653C246.788 170.698 245.216 171.497 243.462 172.047C241.713 172.603 239.833 172.881 237.823 172.881C235.821 172.881 233.964 172.614 232.25 172.081C230.535 171.547 228.99 170.778 227.614 169.771C226.242 168.765 225.068 167.554 224.09 166.137C223.116 164.721 222.372 163.128 221.856 161.357C221.338 159.587 221.081 157.674 221.081 155.617C221.081 153.56 221.336 151.65 221.848 149.884C222.364 148.12 223.104 146.533 224.065 145.121C225.03 143.705 226.191 142.499 227.546 141.505C228.906 140.506 230.434 139.739 232.132 139.203C233.829 138.67 235.665 138.402 237.637 138.402C239.604 138.402 241.427 138.668 243.108 139.195C244.794 139.724 246.305 140.485 247.644 141.479C248.98 142.474 250.124 143.675 251.075 145.079C252.023 146.478 252.748 148.063 253.25 149.834C253.749 151.604 254 153.524 254 155.591C254 156.413 253.954 157.233 253.865 158.053H230.876C231.045 159.492 231.441 160.725 232.065 161.754C232.689 162.782 233.511 163.57 234.535 164.114C235.557 164.66 236.752 164.932 238.118 164.932C241.113 164.932 243.186 163.553 244.339 160.793ZM230.969 152.413H244.297C243.593 148.255 241.399 146.175 237.713 146.175C235.835 146.175 234.32 146.712 233.169 147.785C232.016 148.854 231.283 150.396 230.969 152.413Z" fill="#FF4B00"/>
<path d="M108.276 182.67H112.727L107.737 196.496C107.332 197.63 106.822 198.561 106.211 199.286C105.604 200.011 104.872 200.546 104.019 200.896C103.17 201.244 102.177 201.419 101.043 201.419C100.318 201.419 99.5277 201.343 98.6742 201.191V197.786C99.2917 197.874 99.8312 197.92 100.293 197.92C100.944 197.92 101.494 197.828 101.945 197.642C102.4 197.457 102.788 197.162 103.108 196.757L98.1094 182.67H102.67L105.452 193.115L108.276 182.67Z" fill="#FF4B00"/>
<path d="M113.197 189.507C113.197 188.63 113.307 187.821 113.526 187.079C113.749 186.333 114.07 185.662 114.487 185.072C114.909 184.482 115.408 183.983 115.988 183.572C116.571 183.157 117.223 182.843 117.943 182.628C118.662 182.408 119.431 182.299 120.253 182.299C121.079 182.299 121.851 182.408 122.572 182.628C123.29 182.843 123.939 183.157 124.519 183.572C125.103 183.983 125.602 184.482 126.019 185.072C126.435 185.662 126.753 186.333 126.972 187.079C127.195 187.821 127.309 188.63 127.309 189.507C127.309 190.383 127.195 191.193 126.972 191.934C126.753 192.676 126.435 193.342 126.019 193.932C125.602 194.522 125.103 195.026 124.519 195.441C123.939 195.852 123.29 196.166 122.572 196.385C121.851 196.605 121.079 196.714 120.253 196.714C119.431 196.714 118.662 196.605 117.943 196.385C117.223 196.166 116.571 195.852 115.988 195.441C115.408 195.026 114.909 194.522 114.487 193.932C114.07 193.342 113.749 192.676 113.526 191.934C113.307 191.193 113.197 190.383 113.197 189.507ZM117.547 189.507C117.547 190.636 117.783 191.502 118.255 192.103C118.727 192.706 119.395 193.005 120.262 193.005C121.122 193.005 121.783 192.706 122.251 192.103C122.723 191.502 122.959 190.636 122.959 189.507C122.959 188.366 122.723 187.5 122.251 186.91C121.783 186.316 121.122 186.016 120.262 186.016C119.395 186.016 118.727 186.316 118.255 186.91C117.783 187.5 117.547 188.366 117.547 189.507Z" fill="#FF4B00"/>
<path d="M137.36 189.735V182.67H141.667V196.344H137.36V192.163C137.09 193.659 136.559 194.791 135.766 195.56C134.978 196.331 133.954 196.715 132.689 196.715C131.256 196.715 130.177 196.218 129.452 195.223C128.727 194.224 128.365 192.736 128.365 190.763V182.67H132.681V189.836C132.681 190.898 132.862 191.695 133.229 192.222C133.6 192.744 134.16 193.006 134.915 193.006C135.701 193.006 136.306 192.727 136.727 192.171C137.149 191.615 137.36 190.803 137.36 189.735Z" fill="#FF4B00"/>
<path d="M147.374 190.359V196.344H143.058V182.67H147.374V187.61C147.48 186.858 147.638 186.177 147.846 185.57C148.059 184.963 148.335 184.445 148.673 184.011C149.01 183.579 149.416 183.248 149.895 183.016C150.378 182.786 150.942 182.67 151.589 182.67H152.5V186.717H150.654C150.013 186.717 149.478 186.791 149.052 186.936C148.63 187.077 148.295 187.296 148.049 187.594C147.806 187.893 147.631 188.272 147.526 188.732C147.425 189.187 147.374 189.731 147.374 190.359Z" fill="#FF4B00"/>
<path d="M163.764 177.992V181.313H159.397V177.992H163.764ZM163.738 182.67V196.344H159.422V182.67H163.738Z" fill="#FF4B00"/>
<path d="M169.443 189.279V196.343H165.127V182.67H169.443V186.86C169.713 185.359 170.24 184.225 171.028 183.454C171.82 182.685 172.849 182.299 174.113 182.299C175.547 182.299 176.626 182.8 177.351 183.799C178.076 184.794 178.438 186.278 178.438 188.25V196.343H174.122V189.178C174.122 188.116 173.936 187.323 173.565 186.8C173.199 186.278 172.64 186.016 171.888 186.016C171.1 186.016 170.497 186.295 170.075 186.851C169.654 187.403 169.443 188.213 169.443 189.279Z" fill="#FF4B00"/>
<path d="M183.842 189.507C183.842 190.636 184.078 191.502 184.55 192.103C185.022 192.706 185.688 193.005 186.548 193.005C187.02 193.005 187.416 192.917 187.736 192.735C188.061 192.556 188.32 192.303 188.512 191.977C188.708 191.646 188.849 191.26 188.933 190.822H193.233C193.125 191.698 192.889 192.499 192.525 193.224C192.158 193.945 191.682 194.565 191.091 195.087C190.506 195.61 189.831 196.012 189.068 196.293C188.303 196.573 187.462 196.714 186.548 196.714C185.726 196.714 184.956 196.605 184.238 196.385C183.517 196.166 182.866 195.852 182.282 195.441C181.702 195.026 181.203 194.522 180.782 193.932C180.364 193.342 180.044 192.676 179.82 191.934C179.601 191.193 179.492 190.383 179.492 189.507C179.492 188.63 179.601 187.821 179.82 187.079C180.044 186.333 180.364 185.662 180.782 185.072C181.203 184.482 181.702 183.983 182.282 183.572C182.866 183.157 183.517 182.843 184.238 182.628C184.956 182.408 185.726 182.299 186.548 182.299C187.462 182.299 188.303 182.44 189.068 182.72C189.838 183.003 190.514 183.403 191.1 183.926C191.684 184.444 192.158 185.064 192.525 185.789C192.889 186.514 193.125 187.319 193.233 188.2H188.933C188.849 187.757 188.708 187.372 188.512 187.045C188.32 186.72 188.061 186.468 187.736 186.286C187.416 186.107 187.02 186.016 186.548 186.016C185.688 186.016 185.022 186.316 184.55 186.91C184.078 187.5 183.842 188.366 183.842 189.507Z" fill="#FF4B00"/>
<path d="M194.076 189.507C194.076 188.63 194.186 187.821 194.405 187.079C194.628 186.333 194.949 185.662 195.366 185.072C195.787 184.482 196.287 183.983 196.867 183.572C197.45 183.157 198.102 182.843 198.822 182.628C199.541 182.408 200.31 182.299 201.132 182.299C201.958 182.299 202.73 182.408 203.45 182.628C204.169 182.843 204.818 183.157 205.398 183.572C205.982 183.983 206.481 184.482 206.898 185.072C207.314 185.662 207.632 186.333 207.851 187.079C208.074 187.821 208.188 188.63 208.188 189.507C208.188 190.383 208.074 191.193 207.851 191.934C207.632 192.676 207.314 193.342 206.898 193.932C206.481 194.522 205.982 195.026 205.398 195.441C204.818 195.852 204.169 196.166 203.45 196.385C202.73 196.605 201.958 196.714 201.132 196.714C200.31 196.714 199.541 196.605 198.822 196.385C198.102 196.166 197.45 195.852 196.867 195.441C196.287 195.026 195.787 194.522 195.366 193.932C194.949 193.342 194.628 192.676 194.405 191.934C194.186 191.193 194.076 190.383 194.076 189.507ZM198.426 189.507C198.426 190.636 198.662 191.502 199.134 192.103C199.606 192.706 200.274 193.005 201.141 193.005C202 193.005 202.662 192.706 203.13 192.103C203.602 191.502 203.838 190.636 203.838 189.507C203.838 188.366 203.602 187.5 203.13 186.91C202.662 186.316 202 186.016 201.141 186.016C200.274 186.016 199.606 186.316 199.134 186.91C198.662 187.5 198.426 188.366 198.426 189.507Z" fill="#FF4B00"/>
<path d="M213.619 189.279V196.343H209.303V182.67H213.619V186.8C213.882 185.323 214.395 184.204 215.153 183.445C215.912 182.682 216.9 182.299 218.121 182.299C220.599 182.299 221.969 183.898 222.234 187.096C222.464 185.528 222.968 184.337 223.743 183.521C224.519 182.708 225.533 182.299 226.787 182.299C228.173 182.299 229.217 182.8 229.914 183.799C230.61 184.794 230.96 186.278 230.96 188.25V196.343H226.643V189.178C226.643 188.116 226.471 187.323 226.129 186.8C225.786 186.278 225.263 186.016 224.561 186.016C223.83 186.016 223.267 186.295 222.875 186.851C222.487 187.403 222.293 188.213 222.293 189.279V196.343H217.977V189.178C217.977 188.116 217.804 187.323 217.463 186.8C217.12 186.278 216.595 186.016 215.887 186.016C215.155 186.016 214.593 186.295 214.201 186.851C213.813 187.403 213.619 188.213 213.619 189.279Z" fill="#FF4B00"/>
<path d="M241.741 191.665H245.712C245.527 192.447 245.232 193.148 244.827 193.772C244.422 194.396 243.927 194.927 243.343 195.365C242.764 195.804 242.106 196.139 241.371 196.369C240.639 196.598 239.853 196.714 239.01 196.714C238.178 196.714 237.402 196.6 236.683 196.377C235.969 196.158 235.322 195.838 234.745 195.416C234.171 194.995 233.678 194.489 233.269 193.899C232.865 193.304 232.553 192.638 232.334 191.901C232.119 191.159 232.013 190.358 232.013 189.498C232.013 188.638 232.119 187.842 232.334 187.104C232.553 186.362 232.86 185.696 233.261 185.106C233.665 184.516 234.15 184.014 234.719 183.597C235.286 183.182 235.925 182.862 236.633 182.636C237.341 182.413 238.11 182.299 238.943 182.299C239.763 182.299 240.523 182.413 241.227 182.636C241.929 182.855 242.559 183.173 243.116 183.589C243.676 184.006 244.157 184.508 244.557 185.098C244.955 185.684 245.259 186.345 245.468 187.087C245.674 187.825 245.78 188.626 245.78 189.49C245.78 189.833 245.758 190.177 245.72 190.518H236.11C236.182 191.121 236.348 191.637 236.608 192.069C236.865 192.497 237.208 192.826 237.636 193.056C238.068 193.281 238.568 193.393 239.137 193.393C240.388 193.393 241.257 192.817 241.741 191.665ZM236.152 188.158H241.725C241.432 186.417 240.513 185.544 238.968 185.544C238.186 185.544 237.554 185.77 237.071 186.219C236.587 186.67 236.281 187.315 236.152 188.158Z" fill="#FF4B00"/>
<path d="M251.124 192.027V196.344H246.96V192.027H251.124Z" fill="#FF4B00"/>
<mask id="mask3_12020_18257" style="mask-type:luminance" maskUnits="userSpaceOnUse" x="167" y="55" width="53" height="53">
<path d="M167 55H219.042V107.045H167V55Z" fill="white"/>
</mask>
<g mask="url(#mask3_12020_18257)">
<mask id="mask4_12020_18257" style="mask-type:luminance" maskUnits="userSpaceOnUse" x="167" y="55" width="53" height="53">
<path d="M193.021 55C178.653 55 167 66.6528 167 81.0208C167 95.3924 178.653 107.042 193.021 107.042C207.392 107.042 219.042 95.3924 219.042 81.0208C219.042 66.6528 207.392 55 193.021 55Z" fill="white"/>
</mask>
<g mask="url(#mask4_12020_18257)">
<mask id="mask5_12020_18257" style="mask-type:luminance" maskUnits="userSpaceOnUse" x="166" y="54" width="54" height="54">
<path d="M219.74 54.6807H166.406V107.125H219.74V54.6807Z" fill="white"/>
</mask>
<g mask="url(#mask5_12020_18257)">
<mask id="mask6_12020_18257" style="mask-type:luminance" maskUnits="userSpaceOnUse" x="167" y="55" width="53" height="53">
<path d="M167 55H219.042V107.045H167V55Z" fill="white"/>
</mask>
<g mask="url(#mask6_12020_18257)">
<mask id="mask7_12020_18257" style="mask-type:luminance" maskUnits="userSpaceOnUse" x="167" y="55" width="53" height="53">
<path d="M193.021 55C178.653 55 167 66.6528 167 81.0208C167 95.3924 178.653 107.042 193.021 107.042C207.392 107.042 219.042 95.3924 219.042 81.0208C219.042 66.6528 207.392 55 193.021 55Z" fill="white"/>
</mask>
<g mask="url(#mask7_12020_18257)">
<path d="M167 55H219.042V107.045H167V55Z" fill="#FF4B00"/>
</g>
</g>
</g>
</g>
</g>
<path d="M195.931 70V88.1806H199.111V92.9444H186.931V88.1806H190.139V77.6389H186V73.1667H187.431C188.097 73.1667 188.646 73.1215 189.083 73.0278C189.528 72.9375 189.875 72.7743 190.125 72.5417C190.382 72.3125 190.563 71.9931 190.667 71.5833C190.778 71.1667 190.833 70.6389 190.833 70H195.931Z" fill="white"/>
</svg>
